<?xml version="1.0" encoding="iso-8859-1"?>
<!-- Generator: Adobe Illustrator 22.1.0, SVG Export Plug-In . SVG Version: 6.00 Build 0)  -->
<svg version="1.1" id="Layer_1" xmlns="http://www.w3.org/2000/svg" xmlns:xlink="http://www.w3.org/1999/xlink" x="0px" y="0px"
	 viewBox="0 0 1920 1080" style="enable-background:new 0 0 1920 1080;" xml:space="preserve">
<defs>
	<filter id="Adobe_OpacityMaskFilter" filterUnits="userSpaceOnUse" x="-422" y="483.415" width="1382" height="883.41">
		<feColorMatrix  type="matrix" values="1 0 0 0 0  0 1 0 0 0  0 0 1 0 0  0 0 0 1 0"/>
	</filter>
</defs>
<mask maskUnits="userSpaceOnUse" x="-422" y="483.415" width="1382" height="883.41" id="SVGID_1_">
	<g style="filter:url(#Adobe_OpacityMaskFilter);">
		<radialGradient id="SVGID_2_" cx="267.4643" cy="882.0614" r="368.7695" gradientUnits="userSpaceOnUse">
			<stop  offset="0" style="stop-color:#FFFFFF"/>
			<stop  offset="0.1164" style="stop-color:#FBFBFB"/>
			<stop  offset="0.2408" style="stop-color:#EEEEEE"/>
			<stop  offset="0.369" style="stop-color:#D8D8D8"/>
			<stop  offset="0.5" style="stop-color:#BABABA"/>
			<stop  offset="0.6329" style="stop-color:#949494"/>
			<stop  offset="0.7676" style="stop-color:#656565"/>
			<stop  offset="0.901" style="stop-color:#2E2E2E"/>
			<stop  offset="1" style="stop-color:#000000"/>
		</radialGradient>
		<path style="fill:url(#SVGID_2_);" d="M636.235,882.068c0,203.672-165.095,368.762-368.773,368.762
			c-203.672,0-368.767-165.09-368.767-368.762S63.79,513.293,267.461,513.293C471.139,513.293,636.235,678.396,636.235,882.068z"/>
	</g>
</mask>
<g style="mask:url(#SVGID_1_);">
	<g style="opacity:0.15;">
		<path style="fill:#333333;" d="M-273.815,1366.824l-0.091-0.057l-49.423-28.537v-57.176l0.09-0.045l49.423-28.537l0.09,0.045
			l49.429,28.537v57.176l-0.09,0.056L-273.815,1366.824z M-322.967,1338.027l49.152,28.379l49.157-28.379v-56.764l-49.157-28.373
			l-49.152,28.373V1338.027z"/>
	</g>
	<g style="opacity:0.15;">
		<path style="fill:#333333;" d="M-323.148,1281.371l-0.09-0.057l-49.429-28.531v-57.181l0.09-0.045l49.429-28.537l0.091,0.046
			l49.423,28.537v57.181l-0.09,0.051L-323.148,1281.371z M-372.305,1252.575l49.157,28.379l49.152-28.379v-56.763l-49.152-28.373
			l-49.157,28.373V1252.575z"/>
	</g>
	<g style="opacity:0.15;">
		<path style="fill:#333333;" d="M-175.138,1366.824l-0.091-0.057l-49.429-28.537v-57.176l0.09-0.045l49.429-28.537l0.09,0.045
			l49.423,28.537v57.176l-0.09,0.056L-175.138,1366.824z M-224.296,1338.027l49.158,28.379l49.152-28.379v-56.764l-49.152-28.373
			l-49.158,28.373V1338.027z"/>
	</g>
	<g style="opacity:0.15;">
		<path style="fill:#333333;" d="M-224.477,1281.371l-0.091-0.057l-49.429-28.531v-57.181l0.09-0.045l49.429-28.537l0.09,0.046
			l49.429,28.537v57.181l-0.09,0.051L-224.477,1281.371z M-273.635,1252.575l49.158,28.379l49.157-28.379v-56.763l-49.157-28.373
			l-49.158,28.373V1252.575z"/>
	</g>
	<g style="opacity:0.15;">
		<path style="fill:#333333;" d="M-273.815,1195.919l-0.091-0.057l-49.423-28.531v-57.181l0.09-0.045l49.423-28.537l0.09,0.046
			l49.429,28.537v57.181l-0.09,0.051L-273.815,1195.919z M-322.967,1167.122l49.152,28.379l49.157-28.379v-56.758l-49.157-28.379
			l-49.152,28.379V1167.122z"/>
	</g>
	<g style="opacity:0.15;">
		<path style="fill:#333333;" d="M-323.148,1110.466l-0.09-0.045l-49.429-28.542v-57.17l0.09-0.057l49.429-28.537l0.091,0.057
			l49.423,28.537v57.17l-0.09,0.062L-323.148,1110.466z M-372.305,1081.669l49.157,28.379l49.152-28.379v-56.752l-49.152-28.385
			l-49.157,28.385V1081.669z"/>
	</g>
	<g style="opacity:0.15;">
		<path style="fill:#333333;" d="M-76.473,1366.824l-0.09-0.057l-49.423-28.537v-57.176l0.091-0.045l49.423-28.537l0.09,0.045
			l49.429,28.537v57.176l-0.091,0.056L-76.473,1366.824z M-125.625,1338.027l49.152,28.379l49.158-28.379v-56.764l-49.158-28.373
			l-49.152,28.373V1338.027z"/>
	</g>
	<g style="opacity:0.15;">
		<path style="fill:#333333;" d="M-125.806,1281.371l-0.09-0.057l-49.423-28.531v-57.181l0.09-0.045l49.423-28.537l0.09,0.046
			l49.423,28.537v57.181l-0.091,0.051L-125.806,1281.371z M-174.958,1252.575l49.152,28.379l49.152-28.379v-56.763l-49.152-28.373
			l-49.152,28.373V1252.575z"/>
	</g>
	<g style="opacity:0.15;">
		<path style="fill:#333333;" d="M-175.138,1195.919l-0.091-0.057l-49.429-28.531v-57.181l0.09-0.045l49.429-28.537l0.09,0.046
			l49.423,28.537v57.181l-0.09,0.051L-175.138,1195.919z M-224.296,1167.122l49.158,28.379l49.152-28.379v-56.758l-49.152-28.379
			l-49.158,28.379V1167.122z"/>
	</g>
	<g style="opacity:0.15;">
		<path style="fill:#333333;" d="M-224.477,1110.466l-0.091-0.045l-49.429-28.542v-57.17l0.09-0.057l49.429-28.537l0.09,0.057
			l49.429,28.537v57.17l-0.09,0.062L-224.477,1110.466z M-273.635,1081.669l49.158,28.379l49.157-28.379v-56.752l-49.157-28.385
			l-49.158,28.385V1081.669z"/>
	</g>
	<g style="opacity:0.15;">
		<path style="fill:#333333;" d="M-273.815,1025.019l-0.091-0.051l-49.423-28.537v-57.175l0.09-0.057l49.423-28.526l0.09,0.045
			l49.429,28.537v57.175l-0.09,0.057L-273.815,1025.019z M-322.967,996.216l49.152,28.385l49.157-28.385v-56.752l-49.157-28.379
			l-49.152,28.379V996.216z"/>
	</g>
	<g style="opacity:0.15;">
		<path style="fill:#333333;" d="M22.198,1366.824l-0.09-0.057l-49.423-28.537v-57.176l0.09-0.045l49.423-28.537l0.091,0.045
			l49.423,28.537v57.176l-0.09,0.056L22.198,1366.824z M-26.954,1338.027l49.152,28.379l49.152-28.379v-56.764l-49.152-28.373
			l-49.152,28.373V1338.027z"/>
	</g>
	<g style="opacity:0.15;">
		<path style="fill:#333333;" d="M-27.135,1281.371l-0.09-0.057l-49.429-28.531v-57.181l0.09-0.045l49.429-28.537l0.09,0.046
			l49.423,28.537v57.181l-0.09,0.051L-27.135,1281.371z M-76.292,1252.575l49.157,28.379l49.152-28.379v-56.763l-49.152-28.373
			l-49.157,28.373V1252.575z"/>
	</g>
	<g style="opacity:0.15;">
		<path style="fill:#333333;" d="M-76.473,1195.919l-0.09-0.057l-49.423-28.531v-57.181l0.091-0.045l49.423-28.537l0.09,0.046
			l49.429,28.537v57.181l-0.091,0.051L-76.473,1195.919z M-125.625,1167.122l49.152,28.379l49.158-28.379v-56.758l-49.158-28.379
			l-49.152,28.379V1167.122z"/>
	</g>
	<g style="opacity:0.15;">
		<path style="fill:#333333;" d="M-125.806,1110.466l-0.09-0.045l-49.423-28.542v-57.17l0.09-0.057l49.423-28.537l0.09,0.057
			l49.423,28.537v57.17l-0.091,0.062L-125.806,1110.466z M-174.958,1081.669l49.152,28.379l49.152-28.379v-56.752l-49.152-28.385
			l-49.152,28.385V1081.669z"/>
	</g>
	<g style="opacity:0.15;">
		<path style="fill:#333333;" d="M-175.138,1025.019l-0.091-0.051l-49.429-28.537v-57.175l0.09-0.057l49.429-28.526l0.09,0.045
			l49.423,28.537v57.175l-0.09,0.057L-175.138,1025.019z M-224.296,996.216l49.158,28.385l49.152-28.385v-56.752l-49.152-28.379
			l-49.158,28.379V996.216z"/>
	</g>
	<g style="opacity:0.15;">
		<path style="fill:#333333;" d="M-224.477,939.566l-0.091-0.051l-49.429-28.537v-57.175l0.09-0.045l49.429-28.537l0.09,0.045
			l49.429,28.537v57.175l-0.09,0.057L-224.477,939.566z M-273.635,910.775l49.158,28.379l49.157-28.379v-56.764l-49.157-28.379
			l-49.158,28.379V910.775z"/>
	</g>
	<g style="opacity:0.15;">
		<path style="fill:#333333;" d="M120.869,1366.824l-0.091-0.057l-49.429-28.537v-57.176l0.09-0.045l49.429-28.537l0.09,0.045
			l49.423,28.537v57.176l-0.091,0.056L120.869,1366.824z M71.711,1338.027l49.158,28.379l49.152-28.379v-56.764l-49.152-28.373
			l-49.158,28.373V1338.027z"/>
	</g>
	<g style="opacity:0.15;">
		<path style="fill:#333333;" d="M71.531,1281.371l-0.091-0.057l-49.423-28.531v-57.181l0.09-0.045l49.423-28.537l0.09,0.046
			l49.429,28.537v57.181l-0.09,0.051L71.531,1281.371z M22.379,1252.575l49.152,28.379l49.157-28.379v-56.763l-49.157-28.373
			l-49.152,28.373V1252.575z"/>
	</g>
	<g style="opacity:0.15;">
		<path style="fill:#333333;" d="M22.198,1195.919l-0.09-0.057l-49.423-28.531v-57.181l0.09-0.045l49.423-28.537l0.091,0.046
			l49.423,28.537v57.181l-0.09,0.051L22.198,1195.919z M-26.954,1167.122l49.152,28.379l49.152-28.379v-56.758l-49.152-28.379
			l-49.152,28.379V1167.122z"/>
	</g>
	<g style="opacity:0.15;">
		<path style="fill:#333333;" d="M-27.135,1110.466l-0.09-0.045l-49.429-28.542v-57.17l0.09-0.057l49.429-28.537l0.09,0.057
			l49.423,28.537v57.17l-0.09,0.062L-27.135,1110.466z M-76.292,1081.669l49.157,28.379l49.152-28.379v-56.752l-49.152-28.385
			l-49.157,28.385V1081.669z"/>
	</g>
	<g style="opacity:0.15;">
		<path style="fill:#333333;" d="M-76.473,1025.019l-0.09-0.051l-49.423-28.537v-57.175l0.091-0.057l49.423-28.526l0.09,0.045
			l49.429,28.537v57.175l-0.091,0.057L-76.473,1025.019z M-125.625,996.216l49.152,28.385l49.158-28.385v-56.752l-49.158-28.379
			l-49.152,28.379V996.216z"/>
	</g>
	<g style="opacity:0.15;">
		<path style="fill:#333333;" d="M-125.806,939.566l-0.09-0.051l-49.423-28.537v-57.175l0.09-0.045l49.423-28.537l0.09,0.045
			l49.423,28.537v57.175l-0.091,0.057L-125.806,939.566z M-174.958,910.775l49.152,28.379l49.152-28.379v-56.764l-49.152-28.379
			l-49.152,28.379V910.775z"/>
	</g>
	<g style="opacity:0.15;">
		<path style="fill:#333333;" d="M219.534,1366.824l-0.09-0.057l-49.423-28.537v-57.176l0.09-0.045l49.423-28.537l0.091,0.045
			l49.429,28.537v57.176l-0.09,0.056L219.534,1366.824z M170.383,1338.027l49.152,28.379l49.158-28.379v-56.764l-49.158-28.373
			l-49.152,28.373V1338.027z"/>
	</g>
	<g style="opacity:0.15;">
		<path style="fill:#333333;" d="M170.202,1281.371l-0.09-0.057l-49.423-28.531v-57.181l0.09-0.045l49.423-28.537l0.09,0.046
			l49.423,28.537v57.181l-0.09,0.051L170.202,1281.371z M121.05,1252.575l49.152,28.379l49.152-28.379v-56.763l-49.152-28.373
			l-49.152,28.373V1252.575z"/>
	</g>
	<g style="opacity:0.15;">
		<path style="fill:#333333;" d="M120.869,1195.919l-0.091-0.057L71.35,1167.33v-57.181l0.09-0.045l49.429-28.537l0.09,0.046
			l49.423,28.537v57.181l-0.091,0.051L120.869,1195.919z M71.711,1167.122l49.158,28.379l49.152-28.379v-56.758l-49.152-28.379
			l-49.158,28.379V1167.122z"/>
	</g>
	<g style="opacity:0.15;">
		<path style="fill:#333333;" d="M71.531,1110.466l-0.091-0.045l-49.423-28.542v-57.17l0.09-0.057l49.423-28.537l0.09,0.057
			l49.429,28.537v57.17l-0.09,0.062L71.531,1110.466z M22.379,1081.669l49.152,28.379l49.157-28.379v-56.752l-49.157-28.385
			l-49.152,28.385V1081.669z"/>
	</g>
	<g style="opacity:0.15;">
		<path style="fill:#333333;" d="M22.198,1025.019l-0.09-0.051l-49.423-28.537v-57.175l0.09-0.057l49.423-28.526l0.091,0.045
			l49.423,28.537v57.175l-0.09,0.057L22.198,1025.019z M-26.954,996.216l49.152,28.385l49.152-28.385v-56.752l-49.152-28.379
			l-49.152,28.379V996.216z"/>
	</g>
	<g style="opacity:0.15;">
		<path style="fill:#333333;" d="M-27.135,939.566l-0.09-0.051l-49.429-28.537v-57.175l0.09-0.045l49.429-28.537l0.09,0.045
			l49.423,28.537v57.175l-0.09,0.057L-27.135,939.566z M-76.292,910.775l49.157,28.379l49.152-28.379v-56.764l-49.152-28.379
			l-49.157,28.379V910.775z"/>
	</g>
	<g style="opacity:0.15;">
		<path style="fill:#333333;" d="M219.534,1195.919l-0.09-0.057l-49.423-28.531v-57.181l0.09-0.045l49.423-28.537l0.091,0.046
			l49.429,28.537v57.181l-0.09,0.051L219.534,1195.919z M170.383,1167.122l49.152,28.379l49.158-28.379v-56.758l-49.158-28.379
			l-49.152,28.379V1167.122z"/>
	</g>
	<g style="opacity:0.15;">
		<path style="fill:#333333;" d="M170.202,1110.466l-0.09-0.045l-49.423-28.542v-57.17l0.09-0.057l49.423-28.537l0.09,0.057
			l49.423,28.537v57.17l-0.09,0.062L170.202,1110.466z M121.05,1081.669l49.152,28.379l49.152-28.379v-56.752l-49.152-28.385
			l-49.152,28.385V1081.669z"/>
	</g>
	<g style="opacity:0.15;">
		<path style="fill:#333333;" d="M120.039,1025.019l-0.09-0.051L70.52,996.431v-57.175l0.09-0.057l49.429-28.526l0.09,0.045
			l49.423,28.537v57.175l-0.09,0.057L120.039,1025.019z M70.882,996.216l49.157,28.385l49.152-28.385v-56.752l-49.152-28.379
			l-49.157,28.379V996.216z"/>
	</g>
	<g style="opacity:0.15;">
		<path style="fill:#333333;" d="M70.989,939.566l-0.09-0.051l-49.423-28.537v-57.175l0.091-0.045l49.423-28.537l0.09,0.045
			l49.429,28.537v57.175l-0.091,0.057L70.989,939.566z M21.836,910.775l49.152,28.379l49.158-28.379v-56.764l-49.158-28.379
			l-49.152,28.379V910.775z"/>
	</g>
	<g style="opacity:0.15;">
		<path style="fill:#333333;" d="M-273.815,854.119l-0.091-0.051l-49.423-28.543V768.35l0.09-0.045l49.423-28.537l0.09,0.051
			l49.429,28.531v57.175l-0.09,0.057L-273.815,854.119z M-322.967,825.322l49.152,28.379l49.157-28.379v-56.763l-49.157-28.373
			l-49.152,28.373V825.322z"/>
	</g>
	<g style="opacity:0.15;">
		<path style="fill:#333333;" d="M-323.148,768.666l-0.09-0.051l-49.429-28.537v-57.176l0.09-0.056l49.429-28.531l0.091,0.051
			l49.423,28.537v57.176l-0.09,0.051L-323.148,768.666z M-372.305,739.869l49.157,28.379l49.152-28.379v-56.758l-49.152-28.379
			l-49.157,28.379V739.869z"/>
	</g>
	<g style="opacity:0.15;">
		<path style="fill:#333333;" d="M-175.138,854.119l-0.091-0.051l-49.429-28.543V768.35l0.09-0.045l49.429-28.537l0.09,0.051
			l49.423,28.531v57.175l-0.09,0.057L-175.138,854.119z M-224.296,825.322l49.158,28.379l49.152-28.379v-56.763l-49.152-28.373
			l-49.158,28.373V825.322z"/>
	</g>
	<g style="opacity:0.15;">
		<path style="fill:#333333;" d="M-224.477,768.666l-0.091-0.051l-49.429-28.537v-57.176l0.09-0.056l49.429-28.531l0.09,0.051
			l49.429,28.537v57.176l-0.09,0.051L-224.477,768.666z M-273.635,739.869l49.158,28.379l49.157-28.379v-56.758l-49.157-28.379
			l-49.158,28.379V739.869z"/>
	</g>
	<g style="opacity:0.15;">
		<path style="fill:#333333;" d="M-273.815,683.213l-0.091-0.051l-49.423-28.537v-57.176l0.09-0.05l49.423-28.537l0.09,0.054
			l49.429,28.534v57.176l-0.09,0.057L-273.815,683.213z M-322.967,654.416l49.152,28.379l49.157-28.379v-56.755l-49.157-28.385
			l-49.152,28.385V654.416z"/>
	</g>
	<g style="opacity:0.15;">
		<path style="fill:#333333;" d="M-323.148,597.763l-0.09-0.05l-49.429-28.537v-57.176l0.09-0.053l49.429-28.531l0.091,0.048
			l49.423,28.537v57.176l-0.09,0.054L-323.148,597.763z M-372.305,568.966l49.157,28.379l49.152-28.379v-56.758l-49.152-28.379
			l-49.157,28.379V568.966z"/>
	</g>
	<g style="opacity:0.15;">
		<path style="fill:#333333;" d="M-76.473,854.119l-0.09-0.051l-49.423-28.543V768.35l0.091-0.045l49.423-28.537l0.09,0.051
			l49.429,28.531v57.175l-0.091,0.057L-76.473,854.119z M-125.625,825.322l49.152,28.379l49.158-28.379v-56.763l-49.158-28.373
			l-49.152,28.373V825.322z"/>
	</g>
	<g style="opacity:0.15;">
		<path style="fill:#333333;" d="M-125.806,768.666l-0.09-0.051l-49.423-28.537v-57.176l0.09-0.056l49.423-28.531l0.09,0.051
			l49.423,28.537v57.176l-0.091,0.051L-125.806,768.666z M-174.958,739.869l49.152,28.379l49.152-28.379v-56.758l-49.152-28.379
			l-49.152,28.379V739.869z"/>
	</g>
	<g style="opacity:0.15;">
		<path style="fill:#333333;" d="M-175.138,683.213l-0.091-0.051l-49.429-28.537v-57.176l0.09-0.05l49.429-28.537l0.09,0.054
			l49.423,28.534v57.176l-0.09,0.057L-175.138,683.213z M-224.296,654.416l49.158,28.379l49.152-28.379v-56.755l-49.152-28.385
			l-49.158,28.385V654.416z"/>
	</g>
	<g style="opacity:0.15;">
		<path style="fill:#333333;" d="M-224.477,597.763l-0.091-0.05l-49.429-28.537v-57.176l0.09-0.053l49.429-28.531l0.09,0.048
			l49.429,28.537v57.176l-0.09,0.054L-224.477,597.763z M-273.635,568.966l49.158,28.379l49.157-28.379v-56.758l-49.157-28.379
			l-49.158,28.379V568.966z"/>
	</g>
	<g style="opacity:0.15;">
		<path style="fill:#333333;" d="M22.198,854.119l-0.09-0.051l-49.423-28.543V768.35l0.09-0.045l49.423-28.537l0.091,0.051
			l49.423,28.531v57.175l-0.09,0.057L22.198,854.119z M-26.954,825.322l49.152,28.379l49.152-28.379v-56.763l-49.152-28.373
			l-49.152,28.373V825.322z"/>
	</g>
	<g style="opacity:0.15;">
		<path style="fill:#333333;" d="M-27.135,768.666l-0.09-0.051l-49.429-28.537v-57.176l0.09-0.056l49.429-28.531l0.09,0.051
			l49.423,28.537v57.176l-0.09,0.051L-27.135,768.666z M-76.292,739.869l49.157,28.379l49.152-28.379v-56.758l-49.152-28.379
			l-49.157,28.379V739.869z"/>
	</g>
	<g style="opacity:0.15;">
		<path style="fill:#333333;" d="M-76.473,683.213l-0.09-0.051l-49.423-28.537v-57.176l0.091-0.05l49.423-28.537l0.09,0.054
			l49.429,28.534v57.176l-0.091,0.057L-76.473,683.213z M-125.625,654.416l49.152,28.379l49.158-28.379v-56.755l-49.158-28.385
			l-49.152,28.385V654.416z"/>
	</g>
	<g style="opacity:0.15;">
		<path style="fill:#333333;" d="M-125.806,597.763l-0.09-0.05l-49.423-28.537v-57.176l0.09-0.053l49.423-28.531l0.09,0.048
			l49.423,28.537v57.176l-0.091,0.054L-125.806,597.763z M-174.958,568.966l49.152,28.379l49.152-28.379v-56.758l-49.152-28.379
			l-49.152,28.379V568.966z"/>
	</g>
	<g style="opacity:0.15;">
		<path style="fill:#333333;" d="M120.327,854.119l-0.09-0.051l-49.429-28.543V768.35l0.09-0.045l49.429-28.537l0.09,0.051
			l49.423,28.531v57.175l-0.09,0.057L120.327,854.119z M71.17,825.322l49.157,28.379l49.152-28.379v-56.763l-49.152-28.373
			L71.17,768.558V825.322z"/>
	</g>
	<g style="opacity:0.15;">
		<path style="fill:#333333;" d="M219.071,1025.019l-0.09-0.051l-49.429-28.537v-57.175l0.09-0.057l49.429-28.526l0.091,0.045
			l49.423,28.537v57.175l-0.09,0.057L219.071,1025.019z M169.914,996.216l49.157,28.385l49.152-28.385v-56.752l-49.152-28.379
			l-49.157,28.379V996.216z"/>
	</g>
	<g style="opacity:0.15;">
		<path style="fill:#333333;" d="M169.005,939.566l-0.091-0.051l-49.423-28.537v-57.175l0.09-0.045l49.423-28.537l0.09,0.045
			l49.429,28.537v57.175l-0.09,0.057L169.005,939.566z M119.853,910.775l49.152,28.379l49.157-28.379v-56.764l-49.157-28.379
			l-49.152,28.379V910.775z"/>
	</g>
	<g style="opacity:0.15;">
		<path style="fill:#333333;" d="M219.36,854.119l-0.091-0.051l-49.429-28.543V768.35l0.09-0.045l49.429-28.537l0.09,0.051
			l49.423,28.531v57.175l-0.09,0.057L219.36,854.119z M170.202,825.322l49.158,28.379l49.152-28.379v-56.763l-49.152-28.373
			l-49.158,28.373V825.322z"/>
	</g>
	<g style="opacity:0.15;">
		<path style="fill:#333333;" d="M318.104,1025.019l-0.09-0.051l-49.429-28.537v-57.175l0.091-0.057l49.429-28.526l0.09,0.045
			l49.423,28.537v57.175l-0.091,0.057L318.104,1025.019z M268.946,996.216l49.158,28.385l49.152-28.385v-56.752l-49.152-28.379
			l-49.158,28.379V996.216z"/>
	</g>
	<g style="opacity:0.15;">
		<path style="fill:#333333;" d="M268.037,939.566l-0.09-0.051l-49.423-28.537v-57.175l0.09-0.045l49.423-28.537l0.09,0.045
			l49.429,28.537v57.175l-0.091,0.057L268.037,939.566z M218.885,910.775l49.152,28.379l49.158-28.379v-56.764l-49.158-28.379
			l-49.152,28.379V910.775z"/>
	</g>
	<g style="opacity:0.15;">
		<path style="fill:#333333;" d="M318.392,854.119l-0.09-0.051l-49.429-28.543V768.35l0.091-0.045l49.429-28.537l0.09,0.051
			l49.423,28.531v57.175l-0.091,0.057L318.392,854.119z M269.234,825.322l49.158,28.379l49.152-28.379v-56.763l-49.152-28.373
			l-49.158,28.373V825.322z"/>
	</g>
	<g style="opacity:0.15;">
		<path style="fill:#333333;" d="M71.531,768.666l-0.091-0.051l-49.423-28.537v-57.176l0.09-0.056l49.423-28.531l0.09,0.051
			l49.429,28.537v57.176l-0.09,0.051L71.531,768.666z M22.379,739.869l49.152,28.379l49.157-28.379v-56.758l-49.157-28.379
			l-49.152,28.379V739.869z"/>
	</g>
	<g style="opacity:0.15;">
		<path style="fill:#333333;" d="M22.198,683.213l-0.09-0.051l-49.423-28.537v-57.176l0.09-0.05l49.423-28.537l0.091,0.054
			l49.423,28.534v57.176l-0.09,0.057L22.198,683.213z M-26.954,654.416l49.152,28.379l49.152-28.379v-56.755l-49.152-28.385
			l-49.152,28.385V654.416z"/>
	</g>
	<g style="opacity:0.15;">
		<path style="fill:#333333;" d="M-27.135,597.763l-0.09-0.05l-49.429-28.537v-57.176l0.09-0.053l49.429-28.531l0.09,0.048
			l49.423,28.537v57.176l-0.09,0.054L-27.135,597.763z M-76.292,568.966l49.157,28.379l49.152-28.379v-56.758l-49.152-28.379
			l-49.157,28.379V568.966z"/>
	</g>
	<g style="opacity:0.15;">
		<path style="fill:#333333;" d="M170.202,768.666l-0.09-0.051l-49.423-28.537v-57.176l0.09-0.056l49.423-28.531l0.09,0.051
			l49.423,28.537v57.176l-0.09,0.051L170.202,768.666z M121.05,739.869l49.152,28.379l49.152-28.379v-56.758l-49.152-28.379
			l-49.152,28.379V739.869z"/>
	</g>
	<g style="opacity:0.15;">
		<path style="fill:#333333;" d="M120.869,683.213l-0.091-0.051L71.35,654.625v-57.176l0.09-0.05l49.429-28.537l0.09,0.054
			l49.423,28.534v57.176l-0.091,0.057L120.869,683.213z M71.711,654.416l49.158,28.379l49.152-28.379v-56.755l-49.152-28.385
			l-49.158,28.385V654.416z"/>
	</g>
	<g style="opacity:0.15;">
		<path style="fill:#333333;" d="M71.531,597.763l-0.091-0.05l-49.423-28.537v-57.176l0.09-0.053l49.423-28.531l0.09,0.048
			l49.429,28.537v57.176l-0.09,0.054L71.531,597.763z M22.379,568.966l49.152,28.379l49.157-28.379v-56.758L71.531,483.83
			l-49.152,28.379V568.966z"/>
	</g>
	<g style="opacity:0.15;">
		<path style="fill:#333333;" d="M219.534,683.213l-0.09-0.051l-49.423-28.537v-57.176l0.09-0.05l49.423-28.537l0.091,0.054
			l49.429,28.534v57.176l-0.09,0.057L219.534,683.213z M170.383,654.416l49.152,28.379l49.158-28.379v-56.755l-49.158-28.385
			l-49.152,28.385V654.416z"/>
	</g>
	<g style="opacity:0.15;">
		<path style="fill:#333333;" d="M170.202,597.763l-0.09-0.05l-49.423-28.537v-57.176l0.09-0.053l49.423-28.531l0.09,0.048
			l49.423,28.537v57.176l-0.09,0.054L170.202,597.763z M121.05,568.966l49.152,28.379l49.152-28.379v-56.758l-49.152-28.379
			l-49.152,28.379V568.966z"/>
	</g>
	<g style="opacity:0.15;">
		<path style="fill:#333333;" d="M-372.486,1025.019l-0.09-0.051L-422,996.431v-57.175l0.091-0.051l49.423-28.532l0.091,0.045
			l49.429,28.537v57.175l-0.09,0.057L-372.486,1025.019z M-421.639,996.216l49.152,28.385l49.158-28.385v-56.752l-49.158-28.379
			l-49.152,28.379V996.216z"/>
	</g>
	<g style="opacity:0.15;">
		<path style="fill:#333333;" d="M-323.148,939.571l-0.09-0.056l-49.429-28.537v-57.175l0.09-0.045l49.429-28.537l0.091,0.051
			l49.423,28.531v57.175l-0.09,0.057L-323.148,939.571z M-372.305,910.775l49.157,28.379l49.152-28.379v-56.764l-49.152-28.379
			l-49.157,28.379V910.775z"/>
	</g>
	<g style="opacity:0.15;">
		<path style="fill:#333333;" d="M-372.486,854.119l-0.09-0.051L-422,825.525V768.35l0.091-0.045l49.423-28.537l0.091,0.051
			l49.429,28.531v57.175l-0.09,0.057L-372.486,854.119z M-421.639,825.322l49.152,28.379l49.158-28.379v-56.763l-49.158-28.373
			l-49.152,28.373V825.322z"/>
	</g>
	<g style="opacity:0.15;">
		<path style="fill:#333333;" d="M-323.148,768.666l-0.09-0.051l-49.429-28.537v-57.176l0.09-0.056l49.429-28.531l0.091,0.051
			l49.423,28.537v57.176l-0.09,0.051L-323.148,768.666z M-372.305,739.869l49.157,28.379l49.152-28.379v-56.758l-49.152-28.379
			l-49.157,28.379V739.869z"/>
	</g>
	<g style="opacity:0.15;">
		<path style="fill:#333333;" d="M811.81,1366.824l-0.091-0.057l-49.423-28.537v-57.176l0.09-0.045l49.423-28.537l0.09,0.045
			l49.423,28.537v57.176l-0.091,0.056L811.81,1366.824z M762.658,1338.027l49.152,28.379l49.152-28.379v-56.764l-49.152-28.373
			l-49.152,28.373V1338.027z"/>
	</g>
	<g style="opacity:0.15;">
		<path style="fill:#333333;" d="M762.477,1281.371l-0.09-0.057l-49.429-28.531v-57.181l0.09-0.045l49.429-28.537l0.091,0.046
			l49.423,28.537v57.181l-0.09,0.051L762.477,1281.371z M713.319,1252.575l49.157,28.379l49.152-28.379v-56.763l-49.152-28.373
			l-49.157,28.373V1252.575z"/>
	</g>
	<g style="opacity:0.15;">
		<path style="fill:#333333;" d="M910.481,1366.824l-0.09-0.057l-49.429-28.537v-57.176l0.09-0.045l49.429-28.537l0.09,0.045
			L960,1281.055v57.176l-0.091,0.056L910.481,1366.824z M861.323,1338.027l49.157,28.379l49.158-28.379v-56.764l-49.158-28.373
			l-49.157,28.373V1338.027z"/>
	</g>
	<g style="opacity:0.15;">
		<path style="fill:#333333;" d="M861.142,1281.371l-0.09-0.057l-49.423-28.531v-57.181l0.09-0.045l49.423-28.537l0.09,0.046
			l49.429,28.537v57.181l-0.091,0.051L861.142,1281.371z M811.99,1252.575l49.152,28.379l49.158-28.379v-56.763l-49.158-28.373
			l-49.152,28.373V1252.575z"/>
	</g>
	<g style="opacity:0.15;">
		<path style="fill:#333333;" d="M811.81,1195.919l-0.091-0.057l-49.423-28.531v-57.181l0.09-0.045l49.423-28.537l0.09,0.046
			l49.423,28.537v57.181l-0.091,0.051L811.81,1195.919z M762.658,1167.122l49.152,28.379l49.152-28.379v-56.758l-49.152-28.379
			l-49.152,28.379V1167.122z"/>
	</g>
	<g style="opacity:0.15;">
		<path style="fill:#333333;" d="M910.481,1195.919l-0.09-0.057l-49.429-28.531v-57.181l0.09-0.045l49.429-28.537l0.09,0.046
			L960,1110.15v57.181l-0.091,0.051L910.481,1195.919z M861.323,1167.122l49.157,28.379l49.158-28.379v-56.758l-49.158-28.379
			l-49.157,28.379V1167.122z"/>
	</g>
	<g style="opacity:0.15;">
		<path style="fill:#333333;" d="M861.142,1110.466l-0.09-0.045l-49.423-28.542v-57.17l0.09-0.057l49.423-28.537l0.09,0.057
			l49.429,28.537v57.17l-0.091,0.062L861.142,1110.466z M811.99,1081.669l49.152,28.379l49.158-28.379v-56.752l-49.158-28.385
			l-49.152,28.385V1081.669z"/>
	</g>
	<g style="opacity:0.15;">
		<path style="fill:#333333;" d="M910.481,1025.019l-0.09-0.051l-49.429-28.537v-57.175l0.09-0.057l49.429-28.526l0.09,0.045
			L960,939.255v57.175l-0.091,0.057L910.481,1025.019z M861.323,996.216l49.157,28.385l49.158-28.385v-56.752l-49.158-28.379
			l-49.157,28.379V996.216z"/>
	</g>
	<g style="opacity:0.15;">
		<path style="fill:#333333;" d="M910.481,854.119l-0.09-0.051l-49.429-28.543V768.35l0.09-0.045l49.429-28.537l0.09,0.051
			L960,768.35v57.175l-0.091,0.057L910.481,854.119z M861.323,825.322l49.157,28.379l49.158-28.379v-56.763l-49.158-28.373
			l-49.157,28.373V825.322z"/>
	</g>
	<g style="opacity:0.15;">
		<path style="fill:#333333;" d="M861.142,768.666l-0.09-0.051l-49.423-28.537v-57.176l0.09-0.056l49.423-28.531l0.09,0.051
			l49.429,28.537v57.176l-0.091,0.051L861.142,768.666z M811.99,739.869l49.152,28.379l49.158-28.379v-56.758l-49.158-28.379
			l-49.152,28.379V739.869z"/>
	</g>
	<g style="opacity:0.15;">
		<path style="fill:#333333;" d="M811.81,683.213l-0.091-0.051l-49.423-28.537v-57.176l0.09-0.05l49.423-28.537l0.09,0.054
			l49.423,28.534v57.176l-0.091,0.057L811.81,683.213z M762.658,654.416l49.152,28.379l49.152-28.379v-56.755l-49.152-28.385
			l-49.152,28.385V654.416z"/>
	</g>
	<g style="opacity:0.15;">
		<path style="fill:#333333;" d="M762.477,597.763l-0.09-0.05l-49.429-28.537v-57.176l0.09-0.053l49.429-28.531l0.091,0.048
			l49.423,28.537v57.176l-0.09,0.054L762.477,597.763z M713.319,568.966l49.157,28.379l49.152-28.379v-56.758l-49.152-28.379
			l-49.157,28.379V568.966z"/>
	</g>
	<g style="opacity:0.15;">
		<path style="fill:#333333;" d="M861.142,597.763l-0.09-0.05l-49.423-28.537v-57.176l0.09-0.053l49.423-28.531l0.09,0.048
			l49.429,28.537v57.176l-0.091,0.054L861.142,597.763z M811.99,568.966l49.152,28.379l49.158-28.379v-56.758l-49.158-28.379
			l-49.152,28.379V568.966z"/>
	</g>
	<g style="opacity:0.15;">
		<path style="fill:#333333;" d="M318.466,1366.824l-0.09-0.057l-49.429-28.537v-57.176l0.091-0.057l49.429-28.526l0.09,0.045
			l49.423,28.537v57.176l-0.091,0.056L318.466,1366.824z M269.308,1338.027l49.158,28.379l49.152-28.379v-56.764l-49.152-28.373
			l-49.158,28.373V1338.027z"/>
	</g>
	<g style="opacity:0.15;">
		<path style="fill:#333333;" d="M269.127,1281.371l-0.09-0.057l-49.423-28.531v-57.181l0.09-0.045l49.423-28.537l0.09,0.046
			l49.429,28.537v57.181l-0.09,0.051L269.127,1281.371z M219.975,1252.575l49.152,28.379l49.157-28.379v-56.763l-49.157-28.373
			l-49.152,28.373V1252.575z"/>
	</g>
	<g style="opacity:0.15;">
		<path style="fill:#333333;" d="M417.131,1366.824l-0.09-0.057l-49.423-28.537v-57.176l0.09-0.057l49.423-28.526l0.091,0.045
			l49.429,28.537v57.176l-0.09,0.056L417.131,1366.824z M367.979,1338.027l49.152,28.379l49.158-28.379v-56.764l-49.158-28.373
			l-49.152,28.373V1338.027z"/>
	</g>
	<g style="opacity:0.15;">
		<path style="fill:#333333;" d="M367.798,1281.371l-0.09-0.057l-49.423-28.531v-57.181l0.091-0.045l49.423-28.537l0.09,0.046
			l49.423,28.537v57.181l-0.09,0.051L367.798,1281.371z M318.646,1252.575l49.152,28.379l49.152-28.379v-56.763l-49.152-28.373
			l-49.152,28.373V1252.575z"/>
	</g>
	<g style="opacity:0.15;">
		<path style="fill:#333333;" d="M515.802,1366.824l-0.091-0.057l-49.423-28.537v-57.176l0.09-0.057l49.423-28.526l0.09,0.045
			l49.423,28.537v57.176l-0.09,0.056L515.802,1366.824z M466.65,1338.027l49.152,28.379l49.152-28.379v-56.764l-49.152-28.373
			l-49.152,28.373V1338.027z"/>
	</g>
	<g style="opacity:0.15;">
		<path style="fill:#333333;" d="M466.469,1281.371l-0.09-0.057l-49.429-28.531v-57.181l0.09-0.045l49.429-28.537l0.091,0.046
			l49.423,28.537v57.181l-0.09,0.051L466.469,1281.371z M417.312,1252.575l49.157,28.379l49.152-28.379v-56.763l-49.152-28.373
			l-49.157,28.373V1252.575z"/>
	</g>
	<g style="opacity:0.15;">
		<path style="fill:#333333;" d="M614.473,1366.824l-0.09-0.057l-49.429-28.537v-57.176l0.091-0.057l49.429-28.526l0.09,0.045
			l49.423,28.537v57.176l-0.091,0.056L614.473,1366.824z M565.315,1338.027l49.158,28.379l49.152-28.379v-56.764l-49.152-28.373
			l-49.158,28.373V1338.027z"/>
	</g>
	<g style="opacity:0.15;">
		<path style="fill:#333333;" d="M565.135,1281.371l-0.09-0.057l-49.423-28.531v-57.181l0.09-0.045l49.423-28.537l0.09,0.046
			l49.429,28.537v57.181l-0.09,0.051L565.135,1281.371z M515.983,1252.575l49.152,28.379l49.157-28.379v-56.763l-49.157-28.373
			l-49.152,28.373V1252.575z"/>
	</g>
	<g style="opacity:0.15;">
		<path style="fill:#333333;" d="M713.138,1366.824l-0.09-0.057l-49.423-28.537v-57.176l0.09-0.057l49.423-28.526l0.091,0.045
			l49.429,28.537v57.176l-0.09,0.056L713.138,1366.824z M663.987,1338.027l49.152,28.379l49.158-28.379v-56.764l-49.158-28.373
			l-49.152,28.373V1338.027z"/>
	</g>
	<g style="opacity:0.15;">
		<path style="fill:#333333;" d="M663.806,1281.371l-0.09-0.057l-49.423-28.531v-57.181l0.091-0.045l49.423-28.537l0.09,0.046
			l49.423,28.537v57.181l-0.09,0.051L663.806,1281.371z M614.654,1252.575l49.152,28.379l49.152-28.379v-56.763l-49.152-28.373
			l-49.152,28.373V1252.575z"/>
	</g>
	<g style="opacity:0.15;">
		<path style="fill:#333333;" d="M811.81,1366.824l-0.091-0.057l-49.423-28.537v-57.176l0.09-0.057l49.423-28.526l0.09,0.045
			l49.423,28.537v57.176l-0.091,0.056L811.81,1366.824z M762.658,1338.027l49.152,28.379l49.152-28.379v-56.764l-49.152-28.373
			l-49.152,28.373V1338.027z"/>
	</g>
	<g style="opacity:0.15;">
		<path style="fill:#333333;" d="M762.477,1281.371l-0.09-0.057l-49.429-28.531v-57.181l0.09-0.045l49.429-28.537l0.091,0.046
			l49.423,28.537v57.181l-0.09,0.051L762.477,1281.371z M713.319,1252.575l49.157,28.379l49.152-28.379v-56.763l-49.152-28.373
			l-49.157,28.373V1252.575z"/>
	</g>
	<g style="opacity:0.15;">
		<path style="fill:#333333;" d="M318.466,1195.919l-0.09-0.057l-49.429-28.531v-57.181l0.091-0.045l49.429-28.537l0.09,0.046
			l49.423,28.537v57.181l-0.091,0.051L318.466,1195.919z M269.308,1167.122l49.158,28.379l49.152-28.379v-56.758l-49.152-28.379
			l-49.158,28.379V1167.122z"/>
	</g>
	<g style="opacity:0.15;">
		<path style="fill:#333333;" d="M269.127,1110.466l-0.09-0.045l-49.423-28.542v-57.17l0.09-0.057l49.423-28.532l0.09,0.051
			l49.429,28.537v57.17l-0.09,0.062L269.127,1110.466z M219.975,1081.669l49.152,28.379l49.157-28.379v-56.752l-49.157-28.379
			l-49.152,28.379V1081.669z"/>
	</g>
	<g style="opacity:0.15;">
		<path style="fill:#333333;" d="M417.131,1195.919l-0.09-0.057l-49.423-28.531v-57.181l0.09-0.045l49.423-28.537l0.091,0.046
			l49.429,28.537v57.181l-0.09,0.051L417.131,1195.919z M367.979,1167.122l49.152,28.379l49.158-28.379v-56.758l-49.158-28.379
			l-49.152,28.379V1167.122z"/>
	</g>
	<g style="opacity:0.15;">
		<path style="fill:#333333;" d="M367.798,1110.466l-0.09-0.045l-49.423-28.542v-57.17l0.091-0.057l49.423-28.532l0.09,0.051
			l49.423,28.537v57.17l-0.09,0.062L367.798,1110.466z M318.646,1081.669l49.152,28.379l49.152-28.379v-56.752l-49.152-28.379
			l-49.152,28.379V1081.669z"/>
	</g>
	<g style="opacity:0.15;">
		<path style="fill:#333333;" d="M515.802,1195.919l-0.091-0.057l-49.423-28.531v-57.181l0.09-0.045l49.423-28.537l0.09,0.046
			l49.423,28.537v57.181l-0.09,0.051L515.802,1195.919z M466.65,1167.122l49.152,28.379l49.152-28.379v-56.758l-49.152-28.379
			l-49.152,28.379V1167.122z"/>
	</g>
	<g style="opacity:0.15;">
		<path style="fill:#333333;" d="M466.469,1110.466l-0.09-0.045l-49.429-28.542v-57.17l0.09-0.057l49.429-28.532l0.091,0.051
			l49.423,28.537v57.17l-0.09,0.062L466.469,1110.466z M417.312,1081.669l49.157,28.379l49.152-28.379v-56.752l-49.152-28.379
			l-49.157,28.379V1081.669z"/>
	</g>
	<g style="opacity:0.15;">
		<path style="fill:#333333;" d="M417.131,1025.019l-0.09-0.051l-49.423-28.537v-57.175l0.09-0.051l49.423-28.532l0.091,0.045
			l49.429,28.537v57.175l-0.09,0.057L417.131,1025.019z M367.979,996.216l49.152,28.385l49.158-28.385v-56.752l-49.158-28.379
			l-49.152,28.379V996.216z"/>
	</g>
	<g style="opacity:0.15;">
		<path style="fill:#333333;" d="M269.127,768.666l-0.09-0.051l-49.423-28.537v-57.176l0.09-0.056l49.423-28.531l0.09,0.051
			l49.429,28.537v57.176l-0.09,0.051L269.127,768.666z M219.975,739.869l49.152,28.379l49.157-28.379v-56.758l-49.157-28.379
			l-49.152,28.379V739.869z"/>
	</g>
	<g style="opacity:0.15;">
		<path style="fill:#333333;" d="M614.473,1195.919l-0.09-0.057l-49.429-28.531v-57.181l0.091-0.045l49.429-28.537l0.09,0.046
			l49.423,28.537v57.181l-0.091,0.051L614.473,1195.919z M565.315,1167.122l49.158,28.379l49.152-28.379v-56.758l-49.152-28.379
			l-49.158,28.379V1167.122z"/>
	</g>
	<g style="opacity:0.15;">
		<path style="fill:#333333;" d="M565.135,1110.466l-0.09-0.045l-49.423-28.542v-57.17l0.09-0.057l49.423-28.532l0.09,0.051
			l49.429,28.537v57.17l-0.09,0.062L565.135,1110.466z M515.983,1081.669l49.152,28.379l49.157-28.379v-56.752l-49.157-28.379
			l-49.152,28.379V1081.669z"/>
	</g>
	<g style="opacity:0.15;">
		<path style="fill:#333333;" d="M515.802,1025.019l-0.091-0.051l-49.423-28.537v-57.175l0.09-0.051l49.423-28.532l0.09,0.045
			l49.423,28.537v57.175l-0.09,0.057L515.802,1025.019z M466.65,996.216l49.152,28.385l49.152-28.385v-56.752l-49.152-28.379
			l-49.152,28.379V996.216z"/>
	</g>
	<g style="opacity:0.15;">
		<path style="fill:#333333;" d="M466.108,939.571l-0.09-0.056l-49.429-28.537v-57.175l0.09-0.045l49.429-28.537l0.091,0.051
			l49.423,28.531v57.175l-0.09,0.057L466.108,939.571z M416.95,910.775l49.157,28.379l49.152-28.379v-56.764l-49.152-28.379
			l-49.157,28.379V910.775z"/>
	</g>
	<g style="opacity:0.15;">
		<path style="fill:#333333;" d="M417.131,854.119l-0.09-0.051l-49.423-28.543V768.35l0.09-0.045l49.423-28.537l0.091,0.051
			l49.429,28.531v57.175l-0.09,0.057L417.131,854.119z M367.979,825.322l49.152,28.379l49.158-28.379v-56.763l-49.158-28.373
			l-49.152,28.373V825.322z"/>
	</g>
	<g style="opacity:0.15;">
		<path style="fill:#333333;" d="M367.798,768.666l-0.09-0.051l-49.423-28.537v-57.176l0.091-0.056l49.423-28.531l0.09,0.051
			l49.423,28.537v57.176l-0.09,0.051L367.798,768.666z M318.646,739.869l49.152,28.379l49.152-28.379v-56.758l-49.152-28.379
			l-49.152,28.379V739.869z"/>
	</g>
	<g style="opacity:0.15;">
		<path style="fill:#333333;" d="M318.466,683.213l-0.09-0.051l-49.429-28.537v-57.176l0.091-0.053l49.429-28.534l0.09,0.054
			l49.423,28.534v57.176l-0.091,0.057L318.466,683.213z M269.308,654.416l49.158,28.379l49.152-28.379v-56.761l-49.152-28.379
			l-49.158,28.379V654.416z"/>
	</g>
	<g style="opacity:0.15;">
		<path style="fill:#333333;" d="M269.127,597.763l-0.09-0.05l-49.423-28.537v-57.176l0.09-0.053l49.423-28.531l0.09,0.048
			l49.429,28.537v57.176l-0.09,0.054L269.127,597.763z M219.975,568.966l49.152,28.379l49.157-28.379v-56.758l-49.157-28.379
			l-49.152,28.379V568.966z"/>
	</g>
	<g style="opacity:0.15;">
		<path style="fill:#333333;" d="M713.138,1195.919l-0.09-0.057l-49.423-28.531v-57.181l0.09-0.045l49.423-28.537l0.091,0.046
			l49.429,28.537v57.181l-0.09,0.051L713.138,1195.919z M663.987,1167.122l49.152,28.379l49.158-28.379v-56.758l-49.158-28.379
			l-49.152,28.379V1167.122z"/>
	</g>
	<g style="opacity:0.15;">
		<path style="fill:#333333;" d="M663.806,1110.466l-0.09-0.045l-49.423-28.542v-57.17l0.091-0.057l49.423-28.532l0.09,0.051
			l49.423,28.537v57.17l-0.09,0.062L663.806,1110.466z M614.654,1081.669l49.152,28.379l49.152-28.379v-56.752l-49.152-28.379
			l-49.152,28.379V1081.669z"/>
	</g>
	<g style="opacity:0.15;">
		<path style="fill:#333333;" d="M614.473,1025.019l-0.09-0.051l-49.429-28.537v-57.175l0.091-0.051l49.429-28.532l0.09,0.045
			l49.423,28.537v57.175l-0.091,0.057L614.473,1025.019z M565.315,996.216l49.158,28.385l49.152-28.385v-56.752l-49.152-28.379
			l-49.158,28.379V996.216z"/>
	</g>
	<g style="opacity:0.15;">
		<path style="fill:#333333;" d="M565.135,939.571l-0.09-0.056l-49.423-28.537v-57.175l0.09-0.045l49.423-28.537l0.09,0.051
			l49.429,28.531v57.175l-0.09,0.057L565.135,939.571z M515.983,910.775l49.152,28.379l49.157-28.379v-56.764l-49.157-28.379
			l-49.152,28.379V910.775z"/>
	</g>
	<g style="opacity:0.15;">
		<path style="fill:#333333;" d="M515.802,854.119l-0.091-0.051l-49.423-28.543V768.35l0.09-0.045l49.423-28.537l0.09,0.051
			l49.423,28.531v57.175l-0.09,0.057L515.802,854.119z M466.65,825.322l49.152,28.379l49.152-28.379v-56.763l-49.152-28.373
			l-49.152,28.373V825.322z"/>
	</g>
	<g style="opacity:0.15;">
		<path style="fill:#333333;" d="M466.469,768.666l-0.09-0.051l-49.429-28.537v-57.176l0.09-0.056l49.429-28.531l0.091,0.051
			l49.423,28.537v57.176l-0.09,0.051L466.469,768.666z M417.312,739.869l49.157,28.379l49.152-28.379v-56.758l-49.152-28.379
			l-49.157,28.379V739.869z"/>
	</g>
	<g style="opacity:0.15;">
		<path style="fill:#333333;" d="M417.131,683.213l-0.09-0.051l-49.423-28.537v-57.176l0.09-0.053l49.423-28.534l0.091,0.054
			l49.429,28.534v57.176l-0.09,0.057L417.131,683.213z M367.979,654.416l49.152,28.379l49.158-28.379v-56.761l-49.158-28.379
			l-49.152,28.379V654.416z"/>
	</g>
	<g style="opacity:0.15;">
		<path style="fill:#333333;" d="M367.798,597.763l-0.09-0.05l-49.423-28.537v-57.176l0.091-0.053l49.423-28.531l0.09,0.048
			l49.423,28.537v57.176l-0.09,0.054L367.798,597.763z M318.646,568.966l49.152,28.379l49.152-28.379v-56.758l-49.152-28.379
			l-49.152,28.379V568.966z"/>
	</g>
	<g style="opacity:0.15;">
		<path style="fill:#333333;" d="M762.477,1110.466l-0.09-0.045l-49.429-28.542v-57.17l0.09-0.057l49.429-28.532l0.091,0.051
			l49.423,28.537v57.17l-0.09,0.062L762.477,1110.466z M713.319,1081.669l49.157,28.379l49.152-28.379v-56.752l-49.152-28.379
			l-49.157,28.379V1081.669z"/>
	</g>
	<g style="opacity:0.15;">
		<path style="fill:#333333;" d="M713.138,1025.019l-0.09-0.051l-49.423-28.537v-57.175l0.09-0.051l49.423-28.532l0.091,0.045
			l49.429,28.537v57.175l-0.09,0.057L713.138,1025.019z M663.987,996.216l49.152,28.385l49.158-28.385v-56.752l-49.158-28.379
			l-49.152,28.379V996.216z"/>
	</g>
	<g style="opacity:0.15;">
		<path style="fill:#333333;" d="M663.806,939.571l-0.09-0.056l-49.423-28.537v-57.175l0.091-0.045l49.423-28.537l0.09,0.051
			l49.423,28.531v57.175l-0.09,0.057L663.806,939.571z M614.654,910.775l49.152,28.379l49.152-28.379v-56.764l-49.152-28.379
			l-49.152,28.379V910.775z"/>
	</g>
	<g style="opacity:0.15;">
		<path style="fill:#333333;" d="M614.473,854.119l-0.09-0.051l-49.429-28.543V768.35l0.091-0.045l49.429-28.537l0.09,0.051
			l49.423,28.531v57.175l-0.091,0.057L614.473,854.119z M565.315,825.322l49.158,28.379l49.152-28.379v-56.763l-49.152-28.373
			l-49.158,28.373V825.322z"/>
	</g>
	<g style="opacity:0.15;">
		<path style="fill:#333333;" d="M565.135,768.666l-0.09-0.051l-49.423-28.537v-57.176l0.09-0.056l49.423-28.531l0.09,0.051
			l49.429,28.537v57.176l-0.09,0.051L565.135,768.666z M515.983,739.869l49.152,28.379l49.157-28.379v-56.758l-49.157-28.379
			l-49.152,28.379V739.869z"/>
	</g>
	<g style="opacity:0.15;">
		<path style="fill:#333333;" d="M515.802,683.213l-0.091-0.051l-49.423-28.537v-57.176l0.09-0.053l49.423-28.534l0.09,0.054
			l49.423,28.534v57.176l-0.09,0.057L515.802,683.213z M466.65,654.416l49.152,28.379l49.152-28.379v-56.761l-49.152-28.379
			l-49.152,28.379V654.416z"/>
	</g>
	<g style="opacity:0.15;">
		<path style="fill:#333333;" d="M466.469,597.763l-0.09-0.05l-49.429-28.537v-57.176l0.09-0.053l49.429-28.531l0.091,0.048
			l49.423,28.537v57.176l-0.09,0.054L466.469,597.763z M417.312,568.966l49.157,28.379l49.152-28.379v-56.758l-49.152-28.379
			l-49.157,28.379V568.966z"/>
	</g>
	<g style="opacity:0.15;">
		<path style="fill:#333333;" d="M811.81,1025.019l-0.091-0.051l-49.423-28.537v-57.175l0.09-0.051l49.423-28.532l0.09,0.045
			l49.423,28.537v57.175l-0.091,0.057L811.81,1025.019z M762.658,996.216l49.152,28.385l49.152-28.385v-56.752l-49.152-28.379
			l-49.152,28.379V996.216z"/>
	</g>
	<g style="opacity:0.15;">
		<path style="fill:#333333;" d="M762.477,939.571l-0.09-0.056l-49.429-28.537v-57.175l0.09-0.045l49.429-28.537l0.091,0.051
			l49.423,28.531v57.175l-0.09,0.057L762.477,939.571z M713.319,910.775l49.157,28.379l49.152-28.379v-56.764l-49.152-28.379
			l-49.157,28.379V910.775z"/>
	</g>
	<g style="opacity:0.15;">
		<path style="fill:#333333;" d="M713.138,854.119l-0.09-0.051l-49.423-28.543V768.35l0.09-0.045l49.423-28.537l0.091,0.051
			l49.429,28.531v57.175l-0.09,0.057L713.138,854.119z M663.987,825.322l49.152,28.379l49.158-28.379v-56.763l-49.158-28.373
			l-49.152,28.373V825.322z"/>
	</g>
	<g style="opacity:0.15;">
		<path style="fill:#333333;" d="M663.806,768.666l-0.09-0.051l-49.423-28.537v-57.176l0.091-0.056l49.423-28.531l0.09,0.051
			l49.423,28.537v57.176l-0.09,0.051L663.806,768.666z M614.654,739.869l49.152,28.379l49.152-28.379v-56.758l-49.152-28.379
			l-49.152,28.379V739.869z"/>
	</g>
	<g style="opacity:0.15;">
		<path style="fill:#333333;" d="M614.473,683.213l-0.09-0.051l-49.429-28.537v-57.176l0.091-0.053l49.429-28.534l0.09,0.054
			l49.423,28.534v57.176l-0.091,0.057L614.473,683.213z M565.315,654.416l49.158,28.379l49.152-28.379v-56.761l-49.152-28.379
			l-49.158,28.379V654.416z"/>
	</g>
	<g style="opacity:0.15;">
		<path style="fill:#333333;" d="M565.135,597.763l-0.09-0.05l-49.423-28.537v-57.176l0.09-0.053l49.423-28.531l0.09,0.048
			l49.429,28.537v57.176l-0.09,0.054L565.135,597.763z M515.983,568.966l49.152,28.379l49.157-28.379v-56.758l-49.157-28.379
			l-49.152,28.379V568.966z"/>
	</g>
	<g style="opacity:0.15;">
		<path style="fill:#333333;" d="M861.142,939.571l-0.09-0.056l-49.423-28.537v-57.175l0.09-0.045l49.423-28.537l0.09,0.051
			l49.429,28.531v57.175l-0.091,0.057L861.142,939.571z M811.99,910.775l49.152,28.379l49.158-28.379v-56.764l-49.158-28.379
			l-49.152,28.379V910.775z"/>
	</g>
	<g style="opacity:0.15;">
		<path style="fill:#333333;" d="M811.81,854.119l-0.091-0.051l-49.423-28.543V768.35l0.09-0.045l49.423-28.537l0.09,0.051
			l49.423,28.531v57.175l-0.091,0.057L811.81,854.119z M762.658,825.322l49.152,28.379l49.152-28.379v-56.763l-49.152-28.373
			l-49.152,28.373V825.322z"/>
	</g>
	<g style="opacity:0.15;">
		<path style="fill:#333333;" d="M762.477,768.666l-0.09-0.051l-49.429-28.537v-57.176l0.09-0.056l49.429-28.531l0.091,0.051
			l49.423,28.537v57.176l-0.09,0.051L762.477,768.666z M713.319,739.869l49.157,28.379l49.152-28.379v-56.758l-49.152-28.379
			l-49.157,28.379V739.869z"/>
	</g>
	<g style="opacity:0.15;">
		<path style="fill:#333333;" d="M713.138,683.213l-0.09-0.051l-49.423-28.537v-57.176l0.09-0.053l49.423-28.534l0.091,0.054
			l49.429,28.534v57.176l-0.09,0.057L713.138,683.213z M663.987,654.416l49.152,28.379l49.158-28.379v-56.761l-49.158-28.379
			l-49.152,28.379V654.416z"/>
	</g>
	<g style="opacity:0.15;">
		<path style="fill:#333333;" d="M663.806,597.763l-0.09-0.05l-49.423-28.537v-57.176l0.091-0.053l49.423-28.531l0.09,0.048
			l49.423,28.537v57.176l-0.09,0.054L663.806,597.763z M614.654,568.966l49.152,28.379l49.152-28.379v-56.758l-49.152-28.379
			l-49.152,28.379V568.966z"/>
	</g>
	<g style="opacity:0.15;">
		<path style="fill:#333333;" d="M861.142,768.666l-0.09-0.051l-49.423-28.537v-57.176l0.09-0.056l49.423-28.531l0.09,0.051
			l49.429,28.537v57.176l-0.091,0.051L861.142,768.666z M811.99,739.869l49.152,28.379l49.158-28.379v-56.758l-49.158-28.379
			l-49.152,28.379V739.869z"/>
	</g>
	<g style="opacity:0.15;">
		<path style="fill:#333333;" d="M811.81,683.213l-0.091-0.051l-49.423-28.537v-57.176l0.09-0.053l49.423-28.534l0.09,0.054
			l49.423,28.534v57.176l-0.091,0.057L811.81,683.213z M762.658,654.416l49.152,28.379l49.152-28.379v-56.761l-49.152-28.379
			l-49.152,28.379V654.416z"/>
	</g>
	<g style="opacity:0.15;">
		<path style="fill:#333333;" d="M762.477,597.763l-0.09-0.05l-49.429-28.537v-57.176l0.09-0.053l49.429-28.531l0.091,0.048
			l49.423,28.537v57.176l-0.09,0.054L762.477,597.763z M713.319,568.966l49.157,28.379l49.152-28.379v-56.758l-49.152-28.379
			l-49.157,28.379V568.966z"/>
	</g>
	<g style="opacity:0.15;">
		<path style="fill:#333333;" d="M367.075,938.752l-0.09-0.05l-49.429-28.543v-57.175l0.09-0.046l49.429-28.537l0.09,0.051
			l49.423,28.531v57.175l-0.09,0.057L367.075,938.752z M317.918,909.956l49.157,28.379l49.152-28.379v-56.763l-49.152-28.373
			l-49.157,28.373V909.956z"/>
	</g>
</g>
</svg>
