<?xml version="1.0" encoding="utf-8"?>
<!-- Generator: Adobe Illustrator 16.0.0, SVG Export Plug-In . SVG Version: 6.00 Build 0)  -->
<!DOCTYPE svg PUBLIC "-//W3C//DTD SVG 1.1//EN" "http://www.w3.org/Graphics/SVG/1.1/DTD/svg11.dtd">
<svg version="1.1" id="Layer_1" xmlns="http://www.w3.org/2000/svg" xmlns:xlink="http://www.w3.org/1999/xlink" x="0px" y="0px"
	 width="200px" height="200px" viewBox="0 0 200 200" enable-background="new 0 0 200 200" xml:space="preserve">
<g>
	<g>
		<path fill="#2A313B" d="M122.952,64.503c0,0.168-0.017,0.497-0.025,0.497H166c0.552,0,1-0.448,1-1s-0.448-1-1-1h-43.178
			C122.9,64,122.952,63.99,122.952,64.503z"/>
		<path fill="#2A313B" d="M103.817,64.503c0-0.513,0.052-0.503,0.13-1.503H32c-0.553,0-1,0.448-1,1s0.447,1,1,1h71.843
			C103.834,65,103.817,64.671,103.817,64.503z"/>
	</g>
	<path fill="#2A313B" d="M103.317,64.002c0-5.553,4.517-10.071,10.069-10.071c5.55,0,10.065,4.518,10.065,10.071
		c0,5.551-4.515,10.066-10.065,10.066C107.834,74.069,103.317,69.553,103.317,64.002z M122.452,64.002
		c0-5.002-4.067-9.071-9.065-9.071c-5.001,0-9.069,4.069-9.069,9.071c0,4.999,4.068,9.066,9.069,9.066
		C118.385,73.069,122.452,69.001,122.452,64.002z"/>
	<g>
		<path fill="#2A313B" d="M64.952,100.503c0,0.168-0.017,0.497-0.025,0.497H166c0.552,0,1-0.448,1-1s-0.448-1-1-1H64.822
			C64.9,100,64.952,99.99,64.952,100.503z"/>
		<path fill="#2A313B" d="M45.817,100.503c0-0.513,0.052-0.503,0.13-1.503H32c-0.553,0-1,0.448-1,1s0.447,1,1,1h13.843
			C45.834,101,45.817,100.671,45.817,100.503z"/>
	</g>
	<path fill="#2A313B" d="M45.317,100.002c0-5.553,4.517-10.071,10.069-10.071c5.551,0,10.065,4.518,10.065,10.071
		c0,5.55-4.515,10.066-10.065,10.066C49.834,110.068,45.317,105.553,45.317,100.002z M64.452,100.002
		c0-5.002-4.067-9.071-9.065-9.071c-5.001,0-9.069,4.069-9.069,9.071c0,5,4.068,9.066,9.069,9.066
		C60.385,109.068,64.452,105.002,64.452,100.002z"/>
	<g>
		<path fill="#2A313B" d="M101.952,136.503c0,0.168-0.017,0.497-0.025,0.497H166c0.552,0,1-0.447,1-1s-0.448-1-1-1h-64.178
			C101.9,136,101.952,135.99,101.952,136.503z"/>
		<path fill="#2A313B" d="M82.817,136.503c0-0.513,0.052-0.503,0.13-1.503H32c-0.553,0-1,0.447-1,1s0.447,1,1,1h50.843
			C82.834,137,82.817,136.671,82.817,136.503z"/>
	</g>
	<path fill="#2A313B" d="M82.317,136.002c0-5.553,4.517-10.07,10.069-10.07c5.551,0,10.065,4.518,10.065,10.07
		c0,5.551-4.515,10.066-10.065,10.066C86.834,146.068,82.317,141.553,82.317,136.002z M101.452,136.002
		c0-5.002-4.067-9.07-9.065-9.07c-5.001,0-9.069,4.068-9.069,9.07c0,5,4.068,9.066,9.069,9.066
		C97.385,145.068,101.452,141.002,101.452,136.002z"/>
</g>
</svg>
