<?xml version="1.0" encoding="utf-8"?>
<!-- Generator: Adobe Illustrator 16.0.0, SVG Export Plug-In . SVG Version: 6.00 Build 0)  -->
<!DOCTYPE svg PUBLIC "-//W3C//DTD SVG 1.1//EN" "http://www.w3.org/Graphics/SVG/1.1/DTD/svg11.dtd">
<svg version="1.1" id="Layer_1" xmlns="http://www.w3.org/2000/svg" xmlns:xlink="http://www.w3.org/1999/xlink" x="0px" y="0px"
	 width="200px" height="200px" viewBox="0 0 200 200" enable-background="new 0 0 200 200" xml:space="preserve">
<g>
	<path fill="#FFFFFF" d="M56.118,168.551c-3.663,0-7.243-1.281-10.079-3.609c-3.283-2.695-5.319-6.506-5.735-10.734
		c-0.416-4.227,0.839-8.361,3.533-11.645c2.438-2.969,5.856-4.938,9.657-5.574l44.636-54.38
		c-6.598-11.764-5.317-26.551,3.271-37.013c5.821-7.093,14.42-11.46,23.594-11.981c0.396-0.026,0.769,0.192,0.948,0.545
		c0.18,0.354,0.133,0.781-0.119,1.087l-10.558,12.864l8.311,21.849l23.05,3.893l10.929-13.313c0.249-0.302,0.649-0.432,1.03-0.332
		c0.379,0.101,0.664,0.414,0.729,0.8c1.583,9.405-0.972,19.018-7.01,26.373c-6.275,7.645-15.555,12.03-25.459,12.03
		c-3.723,0-7.376-0.62-10.868-1.842L71.95,151.207c0.387,4.196-0.859,8.277-3.533,11.533
		C65.386,166.434,60.903,168.551,56.118,168.551z M122.754,35.836c-7.721,1.038-14.841,4.977-19.807,11.028
		c-8.207,9.997-9.31,24.198-2.744,35.336c0.213,0.362,0.178,0.818-0.089,1.142l-45.316,55.209c-0.158,0.193-0.384,0.32-0.632,0.355
		c-3.461,0.492-6.58,2.24-8.783,4.924c-2.355,2.869-3.452,6.484-3.089,10.18s2.145,7.027,5.014,9.383
		c2.479,2.035,5.608,3.156,8.811,3.156c4.184,0,8.103-1.852,10.753-5.08c2.416-2.942,3.498-6.656,3.048-10.457
		c-0.032-0.27,0.047-0.541,0.22-0.752l44.742-54.508c0.271-0.331,0.725-0.452,1.124-0.302c3.471,1.3,7.118,1.959,10.842,1.959
		c9.304,0,18.02-4.118,23.913-11.299c5.19-6.322,7.64-14.42,6.878-22.52l-9.833,11.978c-0.228,0.277-0.584,0.414-0.939,0.352
		l-24.186-4.085c-0.35-0.059-0.642-0.299-0.768-0.63l-8.721-22.926c-0.128-0.335-0.066-0.713,0.161-0.99L122.754,35.836z"/>
	<path fill="#FFFFFF" d="M56.121,161.133c-1.954,0-3.863-0.684-5.376-1.926c-3.615-2.967-4.142-8.322-1.174-11.938
		c1.616-1.969,4.008-3.099,6.561-3.099c1.955,0,3.864,0.684,5.377,1.925c1.751,1.438,2.837,3.472,3.059,5.728
		c0.222,2.255-0.447,4.461-1.885,6.211C61.066,160.003,58.675,161.133,56.121,161.133z M56.132,145.17
		c-2.252,0-4.361,0.996-5.788,2.733c-2.617,3.189-2.153,7.914,1.036,10.531c1.334,1.095,3.018,1.698,4.741,1.698
		c2.253,0,4.362-0.996,5.789-2.734c1.268-1.543,1.857-3.489,1.662-5.479c-0.195-1.99-1.154-3.784-2.698-5.053
		C59.54,145.773,57.855,145.17,56.132,145.17z"/>
	<path fill="#FFFFFF" d="M146.653,68.691c-0.049,0-0.099-0.003-0.147-0.011l-18.942-2.823c-0.352-0.053-0.648-0.288-0.781-0.617
		l-7.059-17.62c-0.134-0.335-0.077-0.717,0.148-0.999l11.889-14.799c0.223-0.277,0.575-0.416,0.928-0.363l18.943,2.822
		c0.352,0.053,0.648,0.288,0.78,0.618l7.057,17.621c0.135,0.335,0.078,0.716-0.148,0.998l-11.888,14.799
		C147.241,68.556,146.953,68.691,146.653,68.691z M128.426,63.964l17.807,2.654l11.163-13.896l-6.626-16.546l-17.809-2.653
		l-11.163,13.896L128.426,63.964z"/>
	<path fill="#FFFFFF" d="M139.253,58.8c-0.258,0-0.518-0.011-0.779-0.033c-4.98-0.424-8.688-4.821-8.263-9.802
		c0.419-4.911,4.814-8.696,9.803-8.263c4.98,0.425,8.688,4.822,8.265,9.802C147.88,55.156,143.916,58.8,139.253,58.8z
		 M139.233,41.667c-4.147,0-7.673,3.243-8.026,7.382c-0.377,4.432,2.921,8.344,7.352,8.721c4.438,0.373,8.35-2.983,8.724-7.352
		c0.376-4.431-2.923-8.343-7.354-8.721C139.695,41.677,139.464,41.667,139.233,41.667z"/>
</g>
</svg>
