<?xml version="1.0" encoding="utf-8"?>
<!-- Generator: Adobe Illustrator 16.0.0, SVG Export Plug-In . SVG Version: 6.00 Build 0)  -->
<!DOCTYPE svg PUBLIC "-//W3C//DTD SVG 1.1//EN" "http://www.w3.org/Graphics/SVG/1.1/DTD/svg11.dtd">
<svg version="1.1" id="Layer_1" xmlns="http://www.w3.org/2000/svg" xmlns:xlink="http://www.w3.org/1999/xlink" x="0px" y="0px"
	 width="200px" height="200px" viewBox="0 0 200 200" enable-background="new 0 0 200 200" xml:space="preserve">
<path fill="#FFFFFF" d="M148.71,111.273c7.011-2.439,12.066-9.266,12.066-17.137c0-6.967-3.963-13.137-9.734-16.137h6.735
	c0.552,0,1.223-0.174,1.223-0.727v-11c0-0.552-0.67-1.273-1.223-1.273H147V55h10.777c0.552,0,1.223-0.174,1.223-0.727v-11
	c0-0.552-0.67-1.273-1.223-1.273H57.119c-9.868,0-17.896,8.075-17.896,18c0,6.967,3.963,13,9.734,16h-7.181
	C41.225,76,41,76.721,41,77.273v11C41,88.826,41.225,89,41.777,89H53v10H41.777C41.225,99,41,99.721,41,100.273v11v11
	c0,0.553,0.225,0.727,0.777,0.727H53v10H41.777c-0.552,0-0.777,0.722-0.777,1.273v11c0,0.553,0.225,0.727,0.777,0.727H108v11.226
	c0,0.216,0.026,0.406,0.23,0.475c0.204,0.07,0.374-0.139,0.502-0.311l8.395-11.39h0.14l7.596,11.369
	c0.095,0.141,0.251,0.288,0.414,0.288c0.049,0,0.209,0.027,0.258,0.013c0.21-0.064,0.465-0.225,0.465-0.444V146h16.881
	c9.868,0,17.896-7.938,17.896-17.863C160.776,120.267,155.721,113.713,148.71,111.273z M145,60H75.777c-0.276,0-0.5,0.224-0.5,0.5
	s0.224,0.5,0.5,0.5H145v4H57.119c-2.59,0-4.778-2.29-4.778-5s2.188-5,4.778-5H145V60z M41.224,60c0-8.822,7.131-16,15.896-16H157v9
	H57.119c-3.674,0-6.778,3.206-6.778,7s3.104,7,6.778,7H157v9h-14.119H57.119C48.354,76,41.224,68.822,41.224,60z M55,95h68.777
	c0.276,0,0.5-0.224,0.5-0.5s-0.224-0.5-0.5-0.5H55v-5h87.881c2.59,0,4.778,2.29,4.778,5s-2.188,5-4.778,5H55V95z M43,101h99.881
	c3.674,0,6.778-3.206,6.778-7s-3.104-7-6.778-7H43v-9h14.119h85.762c8.765,0,15.896,7.178,15.896,16s-7.131,16-15.896,16H43V101z
	 M125.277,128h-1.5h-15.5H55v-5h87.881c2.59,0,4.778,2.29,4.778,5c0,2.711-2.188,5-4.778,5H126v-4.227
	C126,128.497,125.554,128,125.277,128z M108,144H43v-9h65V144z M55,133v-4h53v4H55z M125,155.594l-7.252-10.56
	c-0.09-0.134-0.296-0.215-0.458-0.22c-0.16-0.019-0.231,0.07-0.329,0.2L109,155.728V129h14.777H125v4.273v2v9v2V155.594z
	 M142.881,144H126v-9h16.881c3.674,0,6.778-3.205,6.778-7c0-3.794-3.104-7-6.778-7H43v-9h99.881c8.765,0,15.896,7.178,15.896,16
	S151.646,144,142.881,144z"/>
</svg>
