<?xml version="1.0" encoding="utf-8"?>
<!-- Generator: Adobe Illustrator 16.0.0, SVG Export Plug-In . SVG Version: 6.00 Build 0)  -->
<!DOCTYPE svg PUBLIC "-//W3C//DTD SVG 1.1//EN" "http://www.w3.org/Graphics/SVG/1.1/DTD/svg11.dtd">
<svg version="1.1" id="Layer_1" xmlns="http://www.w3.org/2000/svg" xmlns:xlink="http://www.w3.org/1999/xlink" x="0px" y="0px"
	 width="200px" height="200px" viewBox="0 0 200 200" enable-background="new 0 0 200 200" xml:space="preserve">
<g>
	<path fill="#2A313B" d="M144.55,159.517H55.454c-7.369,0-14.404-4.168-17.507-10.369c-3.941-6.299-3.941-14.227,0.046-20.608
		l44.529-77.737c4.105-6.57,10.47-10.319,17.48-10.319c7.369,0,14.403,4.167,17.505,10.369l44.521,77.719
		c3.968,6.35,3.968,14.277-0.02,20.658C158.81,155.64,152.265,159.517,144.55,159.517z M100.003,42.483
		c-6.307,0-12.053,3.406-15.765,9.346l-44.529,77.736c-3.599,5.762-3.599,12.877-0.02,18.605c2.818,5.623,9.135,9.346,15.765,9.346
		h89.096c7.045,0,12.773-3.377,15.718-9.264c3.625-5.811,3.625-12.926,0.046-18.654l-44.568-77.802
		C112.948,46.206,106.633,42.483,100.003,42.483z"/>
	<path fill="#2A313B" d="M100.003,115.979c-2.558,0-4.276-1.718-4.276-4.275V84.521c0-2.557,1.719-4.275,4.276-4.275
		c2.557,0,4.274,1.718,4.274,4.275v27.182C104.277,114.261,102.56,115.979,100.003,115.979z M100.003,81.246
		c-1.99,0-3.276,1.286-3.276,3.275v27.182c0,1.989,1.286,3.275,3.276,3.275c1.989,0,3.274-1.286,3.274-3.275V84.521
		C103.277,82.531,101.992,81.246,100.003,81.246z"/>
	<path fill="#2A313B" d="M100.001,135.609c-0.803,0-2.472,0-3.373-0.901c-0.901-0.902-0.901-1.832-0.901-3.374
		c0-0.802,0-2.472,0.901-3.374c1.65-1.648,4.344-1.648,5.992,0c0.903,0.902,0.903,1.832,0.902,3.375
		c0,0.848-0.688,2.219-1.375,3.059c0.106,0.238,0.077,0.439,0.017,0.584C101.922,135.563,101.078,135.609,100.001,135.609z
		 M99.625,127.682c-0.841,0-1.654,0.351-2.29,0.985c-0.608,0.609-0.608,1.999-0.608,2.667c0,1.563,0.027,2.086,0.608,2.667
		c0.608,0.608,1.998,0.608,2.666,0.608c0.197,0,0.682,0,1.016-0.043l-0.212-0.212l0.354-0.354c0.702-0.703,1.364-2.099,1.364-2.667
		c0.001-1.563-0.026-2.085-0.609-2.666C101.277,128.032,100.465,127.682,99.625,127.682z"/>
</g>
</svg>
