<?xml version="1.0" encoding="utf-8"?>
<!-- Generator: Adobe Illustrator 16.0.0, SVG Export Plug-In . SVG Version: 6.00 Build 0)  -->
<!DOCTYPE svg PUBLIC "-//W3C//DTD SVG 1.1//EN" "http://www.w3.org/Graphics/SVG/1.1/DTD/svg11.dtd">
<svg version="1.1" id="Layer_1" xmlns="http://www.w3.org/2000/svg" xmlns:xlink="http://www.w3.org/1999/xlink" x="0px" y="0px"
	 width="200px" height="200px" viewBox="0 0 200 200" enable-background="new 0 0 200 200" xml:space="preserve">
<g>
	<g>
		<path fill="#FFFFFF" d="M148.517,170.951H51.482c-7.579,0-13.079-4.427-13.079-10.526c0-5.355,2.259-8.882,2.711-9.534
			l39.4-67.637V39.893c-3.76-3.893-4.99-6.478-4.109-8.602c0.28-0.674,1.229-2.242,4.001-2.242h39.189c2.774,0,3.722,1.569,4,2.243
			c0.88,2.123-0.35,4.708-4.11,8.601v43.361l39.44,67.704c0.409,0.58,2.671,4.094,2.671,9.468
			C161.597,166.524,156.096,170.951,148.517,170.951z M80.406,31.049c-1.135,0-1.88,0.349-2.153,1.008
			c-0.518,1.25,0.819,3.514,3.975,6.729c0.184,0.187,0.287,0.438,0.287,0.701v44.037c0,0.177-0.047,0.351-0.136,0.503L42.8,151.963
			c-0.284,0.414-2.397,3.602-2.397,8.462c0,4.94,4.66,8.526,11.079,8.526h97.035c6.42,0,11.08-3.586,11.08-8.526
			c0-4.876-2.114-8.048-2.355-8.393l-39.62-68.005c-0.089-0.153-0.136-0.327-0.136-0.503V39.486c0-0.262,0.103-0.514,0.287-0.701
			c3.156-3.215,4.493-5.479,3.975-6.729c-0.272-0.66-1.017-1.008-2.152-1.008H80.406z"/>
	</g>
	<g>
		<path fill="#FFFFFF" d="M79.452,155.511c-3.452,0-6.261-2.808-6.261-6.26c0-3.45,2.809-6.258,6.261-6.258
			c3.451,0,6.259,2.808,6.259,6.258C85.71,152.703,82.903,155.511,79.452,155.511z M79.452,143.993
			c-2.901,0-5.261,2.358-5.261,5.258c0,2.9,2.36,5.26,5.261,5.26c2.9,0,5.259-2.359,5.259-5.26
			C84.71,146.352,82.352,143.993,79.452,143.993z"/>
	</g>
	<path fill="none" stroke="#FFFFFF" stroke-linecap="round" stroke-linejoin="round" stroke-miterlimit="10" d="M102.671,90.525
		c-5.28,0-9.571,4.291-9.571,9.565c0,5.278,4.291,9.569,9.571,9.569c5.274,0,9.566-4.291,9.566-9.569
		C112.238,94.816,107.946,90.525,102.671,90.525z"/>
	<g>
		<path fill="none" stroke="#FFFFFF" stroke-linecap="round" stroke-linejoin="round" stroke-miterlimit="10" d="M150.76,159.109
			c-1.4,5.84-8.79,5.391-8.79,5.391s-69.26,0-80.48,0c-11.23,0-12.04-2.061-13.3-5.682c-1.25-3.619,1.41-8.46,1.41-8.46l24.44-40.48
			c0.15-0.18,0.37-0.271,0.63-0.361c0.92,2.271,2.13,4.396,3.57,6.336c-0.01,0.16-0.03,0.327-0.03,0.497
			c0,4.15,3.38,7.534,7.54,7.534c0.46,0,0.91-0.048,1.34-0.118c2.22,1.27,4.62,2.241,7.16,2.892c-1.23,1.34-1.99,3.12-1.99,5.08
			c0,4.16,3.38,7.54,7.54,7.54c4.15,0,7.53-3.38,7.53-7.54c0-1.69-0.56-3.239-1.51-4.5c8.88-1.36,16.42-6.75,20.7-14.26
			c0.96,1.56,14.72,23.961,19,30.661C149.951,150.578,152.161,153.279,150.76,159.109z"/>
		<path fill="none" stroke="#FFFFFF" stroke-miterlimit="10" d="M94.25,126.658c1.37-1.5,3.35-2.451,5.55-2.451
			c2.46,0,4.65,1.19,6.02,3.03"/>
		<path fill="none" stroke="#FFFFFF" stroke-linecap="round" stroke-linejoin="round" stroke-miterlimit="10" d="M105.82,127.237
			c0.95,1.261,1.51,2.81,1.51,4.5c0,4.16-3.38,7.54-7.53,7.54c-4.16,0-7.54-3.38-7.54-7.54c0-1.96,0.76-3.739,1.99-5.079"/>
		<path fill="none" stroke="#FFFFFF" stroke-miterlimit="10" d="M78.241,115.867c0.25-3.93,3.52-7.05,7.51-7.05
			c4.16,0,7.54,3.38,7.54,7.54c0,3.689-2.68,6.77-6.2,7.41"/>
	</g>
</g>
</svg>
