<?xml version="1.0" encoding="utf-8"?>
<!-- Generator: Adobe Illustrator 16.0.0, SVG Export Plug-In . SVG Version: 6.00 Build 0)  -->
<!DOCTYPE svg PUBLIC "-//W3C//DTD SVG 1.1//EN" "http://www.w3.org/Graphics/SVG/1.1/DTD/svg11.dtd">
<svg version="1.1" id="Layer_1" xmlns="http://www.w3.org/2000/svg" xmlns:xlink="http://www.w3.org/1999/xlink" x="0px" y="0px"
	 width="200px" height="200px" viewBox="0 0 200 200" enable-background="new 0 0 200 200" xml:space="preserve">
<g>
	<g>
		<path fill="none" stroke="#2A313B" stroke-width="3" stroke-miterlimit="10" d="M164.303,94.153h-23.561
			c-4.869-0.003-9.655,1.257-13.892,3.657c-3.606,2.045-6.726,4.849-9.142,8.217c-1.611-0.281-3.242-0.421-4.877-0.42h-23.58
			c-1.635-0.002-3.266,0.139-4.876,0.42c-2.417-3.369-5.536-6.172-9.143-8.217c-4.236-2.4-9.022-3.66-13.892-3.657H37.781
			c-15.654,0.034-28.338,12.718-28.372,28.372v15.994c0.012,1.675,1.372,3.026,3.048,3.026h48.338v8.407
			c0,1.683,1.365,3.047,3.047,3.047h74.316c1.682,0,3.047-1.364,3.047-3.047v-8.407h48.338c1.684,0,3.048-1.364,3.048-3.048v-15.973
			C192.557,106.902,179.924,94.234,164.303,94.153z"/>
	</g>
</g>
<g>
	<g>
		<path fill="none" stroke="#2A313B" stroke-miterlimit="10" d="M64.725,52.393c-4.016-4.04-9.478-6.309-15.174-6.305
			c-11.851-0.01-21.466,9.588-21.477,21.439c-0.011,11.851,9.588,21.467,21.439,21.477c11.852,0.011,21.467-9.588,21.477-21.439
			C70.995,61.877,68.742,56.42,64.725,52.393z"/>
	</g>
</g>
<g>
	<g>
		<path fill="none" stroke="#2A313B" stroke-miterlimit="10" d="M152.551,46.067c-11.852-0.011-21.467,9.587-21.478,21.438
			c-0.005,5.688,2.249,11.146,6.265,15.172c4.016,4.04,9.479,6.31,15.174,6.306c11.852,0.011,21.467-9.588,21.478-21.439
			C174,55.693,164.4,46.078,152.551,46.067z"/>
	</g>
</g>
<g>
	<g>
		<path fill="none" stroke="#2A313B" stroke-miterlimit="10" d="M116.185,63.773c-4.021-4.007-9.466-6.255-15.143-6.252
			c-5.696-0.004-11.158,2.266-15.174,6.305c-8.357,8.387-8.334,21.959,0.052,30.316c8.387,8.357,21.96,8.334,30.317-0.053
			C124.594,85.704,124.57,72.131,116.185,63.773z"/>
	</g>
</g>
<path fill="none" stroke="#2A313B" stroke-miterlimit="10" d="M61.767,142.072c0-19.421,10.779-35.136,24.1-35.136"/>
<path fill="none" stroke="#2A313B" stroke-miterlimit="10" d="M139.866,142.072c0-19.421-10.779-35.136-24.1-35.136"/>
</svg>
