<?xml version="1.0" encoding="utf-8"?>
<!-- Generator: Adobe Illustrator 16.0.0, SVG Export Plug-In . SVG Version: 6.00 Build 0)  -->
<!DOCTYPE svg PUBLIC "-//W3C//DTD SVG 1.1//EN" "http://www.w3.org/Graphics/SVG/1.1/DTD/svg11.dtd">
<svg version="1.1" id="Layer_1" xmlns="http://www.w3.org/2000/svg" xmlns:xlink="http://www.w3.org/1999/xlink" x="0px" y="0px"
	 width="49.625px" height="50.5px" viewBox="0 0 49.625 50.5" enable-background="new 0 0 49.625 50.5" xml:space="preserve">
<path fill="#EE3765" d="M40.25,25.488c0,8.365-6.781,15.146-15.146,15.146S9.957,33.854,9.957,25.488
	c0-8.366,6.781-15.146,15.146-15.146S40.25,17.122,40.25,25.488"/>
<path fill="#FFFFFF" d="M17.285,26.086c-0.332,0-0.597-0.271-0.597-0.604s0.265-0.593,0.597-0.593H24.5v-7.218
	c0-0.333,0.271-0.604,0.604-0.604s0.596,0.271,0.596,0.604v7.218h7.216c0.332,0,0.604,0.261,0.604,0.593s-0.271,0.604-0.604,0.604
	h-7.216v7.219c0,0.332-0.264,0.603-0.596,0.603S24.5,33.637,24.5,33.305v-7.219H17.285z"/>
</svg>
