<?xml version="1.0" encoding="utf-8"?>
<!-- Generator: Adobe Illustrator 16.0.0, SVG Export Plug-In . SVG Version: 6.00 Build 0)  -->
<!DOCTYPE svg PUBLIC "-//W3C//DTD SVG 1.1//EN" "http://www.w3.org/Graphics/SVG/1.1/DTD/svg11.dtd">
<svg version="1.1" id="Layer_1" xmlns="http://www.w3.org/2000/svg" xmlns:xlink="http://www.w3.org/1999/xlink" x="0px" y="0px"
	 width="200px" height="200px" viewBox="0 0 200 200" enable-background="new 0 0 200 200" xml:space="preserve">
<path fill="#FFFFFF" d="M160.231,78H39.138C36.972,78,35,76.008,35,73.822V26.565C35,24.533,36.779,23,39.138,23h121.094
	c2.254,0,3.769,1.433,3.769,3.565v47.256C164,76.125,162.31,78,160.231,78z M39.138,25C38.108,25,37,25.49,37,26.565v47.256
	C37,74.901,38.079,76,39.138,76h121.094c1.093,0,1.769-1.131,1.769-2.178V26.565c0-1.362-1.108-1.565-1.769-1.565H39.138z"/>
<path fill="#FFFFFF" d="M62.591,60.921c-5.916,0-10.728-4.813-10.728-10.728c0-5.915,4.813-10.728,10.728-10.728
	s10.728,4.813,10.728,10.728C73.319,56.109,68.507,60.921,62.591,60.921z M62.591,40.466c-5.364,0-9.728,4.364-9.728,9.728
	c0,5.364,4.364,9.728,9.728,9.728s9.728-4.364,9.728-9.728C72.319,44.83,67.956,40.466,62.591,40.466z"/>
<circle fill="#FFFFFF" cx="96.99" cy="46.255" r="1.973"/>
<circle fill="#FFFFFF" cx="107.686" cy="46.255" r="1.972"/>
<circle fill="#FFFFFF" cx="118.382" cy="46.255" r="1.972"/>
<circle fill="#FFFFFF" cx="129.08" cy="46.255" r="1.972"/>
<circle fill="#FFFFFF" cx="139.776" cy="46.255" r="1.973"/>
<circle fill="#FFFFFF" cx="103.882" cy="54.132" r="1.973"/>
<circle fill="#FFFFFF" cx="114.578" cy="54.132" r="1.972"/>
<circle fill="#FFFFFF" cx="125.274" cy="54.132" r="1.972"/>
<circle fill="#FFFFFF" cx="135.971" cy="54.132" r="1.972"/>
<circle fill="#FFFFFF" cx="146.668" cy="54.132" r="1.973"/>
<path fill="#FFFFFF" d="M160.231,131H39.138c-2.204,0-4.138-1.876-4.138-4.015V79.729C35,77.638,36.817,76,39.138,76h121.094
	c2.184,0,3.769,1.568,3.769,3.729v47.257C164,129.236,162.345,131,160.231,131z M39.138,78C38.087,78,37,78.646,37,79.729v47.257
	c0,1.055,1.019,2.015,2.138,2.015h121.094c1.148,0,1.769-1.038,1.769-2.015V79.729c0-1.066-0.678-1.729-1.769-1.729H39.138z"/>
<path fill="#FFFFFF" d="M62.591,114.085c-5.916,0-10.728-4.813-10.728-10.729c0-5.915,4.813-10.727,10.728-10.727
	s10.728,4.812,10.728,10.727C73.319,109.272,68.507,114.085,62.591,114.085z M62.591,93.629c-5.364,0-9.728,4.364-9.728,9.727
	c0,5.364,4.364,9.729,9.728,9.729s9.728-4.364,9.728-9.729C72.319,97.993,67.956,93.629,62.591,93.629z"/>
<circle fill="#FFFFFF" cx="96.99" cy="99.418" r="1.973"/>
<circle fill="#FFFFFF" cx="107.686" cy="99.418" r="1.972"/>
<circle fill="#FFFFFF" cx="118.382" cy="99.418" r="1.972"/>
<circle fill="#FFFFFF" cx="129.08" cy="99.418" r="1.972"/>
<circle fill="#FFFFFF" cx="139.776" cy="99.418" r="1.973"/>
<circle fill="#FFFFFF" cx="103.882" cy="107.296" r="1.973"/>
<circle fill="#FFFFFF" cx="114.578" cy="107.296" r="1.972"/>
<circle fill="#FFFFFF" cx="125.274" cy="107.296" r="1.972"/>
<circle fill="#FFFFFF" cx="135.971" cy="107.296" r="1.972"/>
<circle fill="#FFFFFF" cx="146.668" cy="107.296" r="1.973"/>
<path fill="#FFFFFF" d="M175,166h-63.947c-0.193-5.968-5.058-10.771-11.053-10.854V130h-2v25.304
	c-5.197,0.864-9.19,5.301-9.366,10.696H25c-0.552,0-1,0.447-1,1s0.448,1,1,1h63.749c0.795,5.417,5.46,9.594,11.096,9.594
	c5.634,0,10.299-4.177,11.094-9.594H175c0.553,0,1-0.447,1-1S175.553,166,175,166z M99.844,175.594c-5.088,0-9.229-4.14-9.229-9.228
	s4.14-9.228,9.229-9.228c5.087,0,9.227,4.14,9.227,9.228S104.932,175.594,99.844,175.594z"/>
</svg>
