<?xml version="1.0" encoding="utf-8"?>
<!-- Generator: Adobe Illustrator 16.0.0, SVG Export Plug-In . SVG Version: 6.00 Build 0)  -->
<!DOCTYPE svg PUBLIC "-//W3C//DTD SVG 1.1//EN" "http://www.w3.org/Graphics/SVG/1.1/DTD/svg11.dtd">
<svg version="1.1" id="Layer_1" xmlns="http://www.w3.org/2000/svg" xmlns:xlink="http://www.w3.org/1999/xlink" x="0px" y="0px"
	 width="200px" height="200px" viewBox="0 0 200 200" enable-background="new 0 0 200 200" xml:space="preserve">
<g>
	<g>
		<path fill="#FFFFFF" d="M86.061,172.827c-0.416,0-0.798-0.261-0.942-0.665c-0.676-1.902-1.352-3.853-2.007-5.806
			c-0.798-2.37-2.917-4.021-5.399-4.205c-3.399-0.253-6.757-0.926-9.98-2.001c-2.325-0.776-4.978-0.047-6.599,1.801
			c-1.358,1.548-2.733,3.087-4.089,4.579c-0.333,0.366-0.885,0.434-1.297,0.158l-7.864-5.272c-0.412-0.275-0.559-0.812-0.347-1.259
			c0.867-1.827,1.768-3.682,2.683-5.524c1.112-2.24,0.783-4.904-0.84-6.788c-2.22-2.576-4.117-5.427-5.641-8.473
			c-1.112-2.226-3.428-3.57-5.941-3.397c-2.051,0.134-4.112,0.25-6.134,0.347c-0.488,0.021-0.933-0.319-1.028-0.806l-1.832-9.291
			c-0.096-0.486,0.179-0.97,0.646-1.136c1.898-0.675,3.849-1.351,5.805-2.008c2.37-0.796,4.021-2.916,4.206-5.4
			c0.251-3.394,0.924-6.751,2-9.979c0.786-2.359,0.079-4.95-1.801-6.6c-1.543-1.354-3.082-2.728-4.58-4.09
			c-0.367-0.333-0.434-0.885-0.158-1.297l5.273-7.864c0.276-0.411,0.813-0.558,1.26-0.346c1.82,0.865,3.676,1.766,5.523,2.685
			c2.189,1.086,4.951,0.745,6.787-0.84c2.578-2.222,5.429-4.12,8.475-5.641c2.226-1.112,3.559-3.444,3.396-5.941
			c-0.134-2.051-0.25-4.112-0.347-6.133c-0.023-0.495,0.319-0.933,0.805-1.028l9.291-1.834c0.49-0.099,0.97,0.179,1.136,0.646
			c0.676,1.902,1.35,3.854,2.007,5.806c0.797,2.371,2.917,4.021,5.398,4.206c3.399,0.252,6.757,0.925,9.981,2
			c2.323,0.773,4.977,0.046,6.598-1.801c1.358-1.548,2.732-3.086,4.092-4.581c0.334-0.367,0.885-0.434,1.297-0.158l7.863,5.273
			c0.412,0.276,0.559,0.812,0.346,1.259c-0.866,1.824-1.769,3.679-2.683,5.523c-1.113,2.241-0.784,4.905,0.839,6.788
			c2.22,2.575,4.118,5.426,5.641,8.475c1.114,2.224,3.419,3.57,5.94,3.396c2.048-0.134,4.11-0.251,6.134-0.347
			c0.51-0.015,0.933,0.319,1.028,0.805l1.834,9.29c0.096,0.486-0.179,0.97-0.646,1.136c-1.904,0.678-3.854,1.353-5.806,2.009
			c-2.371,0.799-4.022,2.918-4.207,5.398c-0.251,3.395-0.923,6.753-2,9.981c-0.787,2.358-0.081,4.948,1.8,6.599
			c1.556,1.366,3.096,2.74,4.581,4.09c0.367,0.333,0.434,0.886,0.158,1.297l-5.274,7.865c-0.275,0.412-0.813,0.56-1.26,0.346
			c-1.832-0.871-3.689-1.772-5.522-2.683c-2.19-1.086-4.945-0.744-6.788,0.84c-2.578,2.22-5.428,4.117-8.472,5.641
			c-2.227,1.113-3.561,3.445-3.397,5.939c0.134,2.067,0.25,4.128,0.346,6.134c0.023,0.495-0.319,0.933-0.806,1.028l-9.29,1.833
			C86.19,172.821,86.125,172.827,86.061,172.827z M65.785,157.834c0.876,0,1.745,0.141,2.581,0.419
			c3.066,1.023,6.261,1.664,9.495,1.904c3.287,0.243,6.092,2.427,7.147,5.562c0.56,1.665,1.133,3.328,1.708,4.96l7.595-1.499
			c-0.086-1.721-0.188-3.477-0.302-5.237c-0.215-3.299,1.55-6.384,4.499-7.858c2.896-1.449,5.609-3.255,8.063-5.367
			c1.482-1.274,3.372-1.977,5.323-1.977c1.258,0,2.523,0.298,3.658,0.86c1.564,0.777,3.145,1.547,4.713,2.298l4.312-6.431
			c-1.277-1.154-2.59-2.323-3.916-3.487c-2.487-2.183-3.42-5.611-2.378-8.733c1.024-3.072,1.664-6.268,1.903-9.497
			c0.244-3.285,2.427-6.09,5.563-7.146c1.665-0.56,3.327-1.132,4.96-1.709l-1.5-7.595c-1.734,0.086-3.491,0.188-5.237,0.303
			c-3.331,0.219-6.385-1.552-7.86-4.498c-1.45-2.901-3.256-5.614-5.367-8.064c-2.15-2.494-2.588-6.02-1.116-8.982
			c0.779-1.571,1.55-3.152,2.297-4.713l-6.429-4.312c-1.162,1.284-2.331,2.596-3.488,3.916c-1.562,1.778-3.805,2.798-6.155,2.798
			c-0.876,0-1.744-0.141-2.579-0.419c-3.067-1.023-6.262-1.664-9.497-1.904c-3.287-0.244-6.092-2.427-7.146-5.562
			c-0.56-1.664-1.133-3.327-1.708-4.96l-7.596,1.5c0.087,1.731,0.188,3.488,0.303,5.236c0.215,3.303-1.551,6.388-4.499,7.86
			c-2.898,1.448-5.61,3.253-8.063,5.367c-1.479,1.275-3.369,1.978-5.323,1.978c-1.26,0-2.525-0.297-3.66-0.86
			c-1.575-0.783-3.155-1.553-4.713-2.298l-4.312,6.43c1.286,1.164,2.599,2.333,3.915,3.488c2.486,2.181,3.419,5.609,2.379,8.734
			c-1.023,3.071-1.664,6.266-1.903,9.494c-0.245,3.29-2.428,6.096-5.563,7.148c-1.666,0.561-3.329,1.134-4.958,1.709l1.498,7.596
			c1.732-0.087,3.489-0.188,5.237-0.303c3.328-0.218,6.388,1.553,7.86,4.499c1.449,2.898,3.255,5.61,5.367,8.062
			c2.149,2.495,2.587,6.021,1.116,8.982c-0.78,1.571-1.549,3.151-2.296,4.715l6.43,4.311c1.16-1.283,2.33-2.596,3.487-3.915
			C61.191,158.854,63.434,157.834,65.785,157.834z"/>
	</g>
	<g>
		<path fill="#FFFFFF" d="M80.784,139.779c-3.748,0-7.391-1.114-10.534-3.223c-4.206-2.818-7.063-7.113-8.045-12.094
			s0.029-10.039,2.849-14.244c1.398-2.084,3.157-3.839,5.227-5.216c3.134-2.087,6.789-3.19,10.569-3.19
			c3.765,0,7.411,1.11,10.544,3.21c8.694,5.83,11.024,17.646,5.195,26.341c-2.823,4.209-7.118,7.069-12.093,8.052
			C83.269,139.657,82.021,139.779,80.784,139.779z M80.849,102.813c-3.583,0-7.045,1.045-10.015,3.022
			c-1.96,1.304-3.625,2.967-4.95,4.94c-2.67,3.983-3.629,8.775-2.698,13.493c0.931,4.719,3.637,8.788,7.621,11.457
			c3.961,2.657,8.813,3.634,13.494,2.708c4.713-0.931,8.782-3.64,11.456-7.627c5.522-8.237,3.314-19.431-4.921-24.953
			C87.868,103.864,84.415,102.813,80.849,102.813z"/>
	</g>
	<g>
		<g>
			<g>
				<path fill="#FFFFFF" d="M140.496,95.417c-0.416,0-0.798-0.26-0.942-0.665c-0.439-1.236-0.88-2.503-1.306-3.773
					c-0.472-1.405-1.727-2.383-3.197-2.491c-2.226-0.165-4.433-0.607-6.561-1.315c-1.379-0.46-2.947-0.027-3.907,1.066
					c-0.885,1.007-1.779,2.008-2.659,2.978c-0.334,0.367-0.884,0.434-1.297,0.158l-5.104-3.423
					c-0.412-0.276-0.559-0.812-0.346-1.259c0.563-1.187,1.15-2.393,1.745-3.59c0.658-1.327,0.462-2.906-0.498-4.02
					c-1.46-1.697-2.708-3.571-3.708-5.571c-0.66-1.318-2.044-2.111-3.52-2.011c-1.333,0.086-2.673,0.162-3.986,0.224
					c-0.485,0.013-0.932-0.32-1.028-0.805l-1.19-6.029c-0.096-0.486,0.179-0.97,0.646-1.136c1.235-0.439,2.502-0.877,3.774-1.305
					c1.404-0.472,2.382-1.727,2.491-3.196c0.165-2.228,0.607-4.436,1.315-6.563c0.465-1.397,0.046-2.931-1.067-3.907
					c-1.003-0.883-2.004-1.775-2.978-2.661c-0.367-0.333-0.434-0.885-0.158-1.297l3.424-5.104c0.276-0.412,0.812-0.559,1.26-0.346
					c1.183,0.562,2.387,1.148,3.588,1.745c1.3,0.645,2.933,0.441,4.019-0.497c1.695-1.46,3.57-2.708,5.572-3.709
					c1.318-0.658,2.108-2.039,2.012-3.518c-0.087-1.334-0.163-2.674-0.225-3.988c-0.023-0.495,0.319-0.932,0.806-1.028l6.028-1.189
					c0.488-0.099,0.97,0.18,1.136,0.646c0.439,1.237,0.878,2.505,1.305,3.772c0.472,1.405,1.727,2.383,3.197,2.492
					c2.234,0.166,4.442,0.609,6.562,1.315c1.377,0.459,2.947,0.028,3.91-1.068c0.88-1.004,1.775-2.006,2.657-2.976
					c0.333-0.367,0.885-0.435,1.296-0.158l5.104,3.422c0.412,0.276,0.56,0.813,0.346,1.26c-0.564,1.185-1.148,2.391-1.745,3.591
					c-0.659,1.327-0.464,2.904,0.497,4.018c1.458,1.69,2.706,3.564,3.709,5.571c0.658,1.318,2.031,2.11,3.518,2.012
					c1.333-0.086,2.671-0.163,3.987-0.226c0.497-0.008,0.933,0.319,1.029,0.805l1.19,6.029c0.096,0.486-0.179,0.97-0.646,1.136
					c-1.239,0.441-2.507,0.881-3.775,1.307c-1.403,0.473-2.381,1.728-2.491,3.197c-0.165,2.23-0.607,4.438-1.315,6.562
					c-0.465,1.397-0.046,2.93,1.067,3.905c1.012,0.892,2.014,1.784,2.978,2.662c0.366,0.333,0.433,0.885,0.157,1.296l-3.423,5.104
					c-0.275,0.411-0.813,0.559-1.26,0.346c-1.19-0.566-2.398-1.152-3.588-1.743c-1.3-0.647-2.93-0.443-4.021,0.496
					c-1.692,1.458-3.567,2.706-5.57,3.708c-1.319,0.66-2.108,2.042-2.012,3.519c0.088,1.343,0.165,2.683,0.226,3.988
					c0.023,0.495-0.319,0.932-0.806,1.027l-6.028,1.189C140.625,95.411,140.56,95.417,140.496,95.417z M127.336,84.984
					c0.607,0,1.208,0.098,1.786,0.291c1.97,0.656,4.015,1.065,6.076,1.218c2.274,0.167,4.216,1.678,4.945,3.849
					c0.33,0.982,0.668,1.962,1.007,2.927l4.333-0.855c-0.052-1.018-0.113-2.052-0.182-3.089c-0.149-2.282,1.073-4.417,3.113-5.438
					c1.856-0.928,3.592-2.084,5.16-3.435c1.688-1.453,4.215-1.766,6.216-0.772c0.921,0.457,1.853,0.912,2.779,1.356l2.46-3.668
					c-0.757-0.683-1.532-1.372-2.312-2.059c-1.719-1.504-2.366-3.876-1.645-6.04c0.655-1.967,1.065-4.012,1.218-6.078
					c0.169-2.274,1.68-4.214,3.848-4.944c0.98-0.33,1.961-0.667,2.928-1.007l-0.855-4.333c-1.025,0.053-2.061,0.114-3.092,0.181
					c-2.284,0.14-4.418-1.075-5.437-3.114c-0.929-1.858-2.085-3.594-3.435-5.159c-1.488-1.726-1.792-4.165-0.773-6.214
					c0.461-0.928,0.915-1.859,1.357-2.781l-3.668-2.459c-0.685,0.759-1.374,1.534-2.055,2.31c-1.485,1.691-3.918,2.353-6.044,1.646
					c-1.963-0.654-4.008-1.064-6.078-1.218c-2.275-0.168-4.216-1.679-4.945-3.849c-0.33-0.979-0.667-1.96-1.007-2.927l-4.333,0.855
					c0.053,1.023,0.113,2.059,0.181,3.09c0.148,2.285-1.074,4.419-3.114,5.438c-1.854,0.928-3.59,2.083-5.16,3.435
					c-1.679,1.451-4.208,1.769-6.214,0.774c-0.929-0.461-1.859-0.916-2.78-1.358l-2.46,3.668c0.762,0.687,1.537,1.376,2.313,2.058
					c1.719,1.507,2.365,3.879,1.645,6.042c-0.656,1.97-1.065,4.015-1.218,6.078c-0.168,2.274-1.679,4.215-3.847,4.944
					c-0.983,0.331-1.964,0.667-2.928,1.006l0.856,4.333c1.023-0.053,2.059-0.113,3.089-0.18c2.301-0.135,4.419,1.074,5.438,3.112
					c0.926,1.852,2.082,3.588,3.435,5.16c1.486,1.724,1.79,4.164,0.774,6.214c-0.461,0.926-0.916,1.857-1.358,2.78l3.668,2.459
					c0.685-0.759,1.374-1.535,2.058-2.313C124.158,85.69,125.71,84.984,127.336,84.984z"/>
			</g>
		</g>
		<g>
			<g>
				<path fill="#FFFFFF" d="M137.07,73.794c-2.467,0-4.865-0.733-6.935-2.12c-2.768-1.856-4.648-4.684-5.294-7.962
					c-0.646-3.278,0.02-6.607,1.876-9.375c0.917-1.37,2.074-2.525,3.438-3.434c2.063-1.374,4.469-2.1,6.957-2.1
					c2.479,0,4.878,0.73,6.94,2.113c2.768,1.856,4.649,4.684,5.295,7.961c0.646,3.278-0.02,6.607-1.875,9.375
					c-1.857,2.772-4.684,4.654-7.959,5.3C138.706,73.713,137.884,73.794,137.07,73.794z M137.111,49.805
					c-2.29,0-4.504,0.668-6.403,1.932c-1.253,0.835-2.317,1.898-3.161,3.158c-1.708,2.545-2.32,5.608-1.726,8.625
					s2.324,5.617,4.87,7.325c2.535,1.698,5.637,2.321,8.628,1.729c3.013-0.594,5.613-2.326,7.322-4.875
					c1.708-2.546,2.32-5.609,1.725-8.625c-0.595-3.016-2.325-5.617-4.871-7.324C141.598,50.477,139.391,49.805,137.111,49.805z"/>
			</g>
		</g>
	</g>
</g>
</svg>
