<?xml version="1.0" encoding="utf-8"?>
<!-- Generator: Adobe Illustrator 16.0.0, SVG Export Plug-In . SVG Version: 6.00 Build 0)  -->
<!DOCTYPE svg PUBLIC "-//W3C//DTD SVG 1.1//EN" "http://www.w3.org/Graphics/SVG/1.1/DTD/svg11.dtd">
<svg version="1.1" id="Layer_1" xmlns="http://www.w3.org/2000/svg" xmlns:xlink="http://www.w3.org/1999/xlink" x="0px" y="0px"
	 width="200px" height="200px" viewBox="0 0 200 200" enable-background="new 0 0 200 200" xml:space="preserve">
<g>
	<g>
		<path fill="#FFFFFF" d="M175.277,72.068h0.005 M175.277,72.068l-50.176,89.994H86.365l50.178-89.994H175.277 M175.282,71.068
			h-0.005h-38.734c-0.362,0-0.697,0.196-0.873,0.513l-50.178,89.993c-0.173,0.31-0.169,0.688,0.011,0.994s0.508,0.493,0.862,0.493
			h38.736c0.362,0,0.697-0.196,0.873-0.513l50.148-89.944c0.1-0.155,0.156-0.339,0.156-0.537
			C176.279,71.516,175.835,71.068,175.282,71.068L175.282,71.068z"/>
	</g>
	<g>
		<path fill="#FFFFFF" d="M83.049,54l10.266,18H73.723l50.176,90H85.164L24.723,54h38.734H83 M83.049,53H63.457H24.723
			c-0.354,0-0.684-0.062-0.862,0.244c-0.18,0.306-0.184,0.56-0.011,0.869l60.441,108.188c0.178,0.316,0.511,0.699,0.873,0.699
			h38.734c0.354,0,0.683-0.438,0.862-0.743s0.184-0.559,0.011-0.869L75.425,73h17.89c0.356,0,0.686-0.439,0.865-0.748
			c0.179-0.308,0.18-0.813,0.004-1.123L83.918,53.317C83.739,53.005,83.408,53,83.049,53L83.049,53z"/>
	</g>
</g>
<g>
	<path fill="#FFFFFF" d="M83.049,53l10.266,18H73.723l31.428,56.337L136.543,71h38.734l-50.176,90H86.365h0.034h-1.235L24.723,53
		h38.734H83 M175,71L175,71 M83.049,50H63.457H24.723c-1.064,0-2.05,0.314-2.588,1.232c-0.539,0.918-0.55,1.929-0.03,2.858
		l60.441,108.187c0.53,0.948,1.532,1.723,2.618,1.723h1.235h38.702c1.088,0,2.091-0.839,2.62-1.789l50.123-90.03
		c0.276-0.454,0.435-0.799,0.435-1.369c0-1.657-1.34-2.813-2.997-2.813h-0.005h-38.734c-1.088,0-2.091,0.339-2.621,1.29
		l-28.773,51.762L78.832,74h14.482c1.068,0,2.057-0.819,2.594-1.743s0.542-2.189,0.012-3.118L85.654,51.326
		C85.121,50.39,84.126,50,83.049,50L83.049,50z"/>
</g>
</svg>
