<?xml version="1.0" encoding="utf-8"?>
<!-- Generator: Adobe Illustrator 16.0.0, SVG Export Plug-In . SVG Version: 6.00 Build 0)  -->
<!DOCTYPE svg PUBLIC "-//W3C//DTD SVG 1.1//EN" "http://www.w3.org/Graphics/SVG/1.1/DTD/svg11.dtd">
<svg version="1.1" id="Layer_1" xmlns="http://www.w3.org/2000/svg" xmlns:xlink="http://www.w3.org/1999/xlink" x="0px" y="0px"
	 width="200px" height="200px" viewBox="0 0 200 200" enable-background="new 0 0 200 200" xml:space="preserve">
<g>
	<path fill="#FFFFFF" d="M144.55,159.517H55.454c-7.369,0-14.404-4.168-17.507-10.369c-3.941-6.299-3.941-14.227,0.046-20.608
		l44.529-77.737c4.105-6.57,10.47-10.319,17.48-10.319c7.369,0,14.403,4.167,17.505,10.369l44.521,77.719
		c3.968,6.35,3.968,14.277-0.02,20.658C158.81,155.64,152.265,159.517,144.55,159.517z M100.003,42.483
		c-6.307,0-12.053,3.406-15.765,9.346l-44.529,77.736c-3.599,5.762-3.599,12.877-0.02,18.605c2.818,5.623,9.135,9.346,15.765,9.346
		h89.096c7.045,0,12.773-3.377,15.718-9.264c3.625-5.811,3.625-12.926,0.046-18.654l-44.568-77.802
		C112.948,46.206,106.633,42.483,100.003,42.483z"/>
	<path fill="#FFFFFF" d="M100.003,115.979c-2.558,0-4.276-1.718-4.276-4.275V84.521c0-2.557,1.719-4.275,4.276-4.275
		c2.557,0,4.274,1.718,4.274,4.275v27.182C104.277,114.261,102.56,115.979,100.003,115.979z M100.003,81.246
		c-1.99,0-3.276,1.286-3.276,3.275v27.182c0,1.989,1.286,3.275,3.276,3.275c1.989,0,3.274-1.286,3.274-3.275V84.521
		C103.277,82.531,101.992,81.246,100.003,81.246z"/>
	<circle fill="none" stroke="#FFFFFF" stroke-miterlimit="10" cx="99.955" cy="129.138" r="4.054"/>
</g>
</svg>
