<?xml version="1.0" encoding="utf-8"?>
<!-- Generator: Adobe Illustrator 16.0.0, SVG Export Plug-In . SVG Version: 6.00 Build 0)  -->
<!DOCTYPE svg PUBLIC "-//W3C//DTD SVG 1.1//EN" "http://www.w3.org/Graphics/SVG/1.1/DTD/svg11.dtd">
<svg version="1.1" id="Layer_1" xmlns="http://www.w3.org/2000/svg" xmlns:xlink="http://www.w3.org/1999/xlink" x="0px" y="0px"
	 width="820px" height="292px" viewBox="0 0 820 292" enable-background="new 0 0 820 292" xml:space="preserve">
<g>
	<g>
		<polygon fill="#ED1C24" points="399.777,1.237 444.053,1.237 399.777,94.907 444.053,188.587 399.777,188.587 		"/>
		<g>
			<path d="M373.731,229.105v-1.913h1.525v1.913H373.731z"/>
			<g>
				<g>
					<path fill="#ED1C24" d="M383.876,216.104h1.221v6.993l7.546-6.993h1.689l-5.809,5.361l6.078,7.64h-1.595l-5.405-6.782
						l-2.505,2.313v4.47h-1.221V216.104z"/>
					<path fill="#ED1C24" d="M398.896,219.706h1.15v1.62h0.041c0.411-1.127,1.672-1.878,2.993-1.878c2.652,0,3.45,1.361,3.45,3.591
						v6.066h-1.144v-5.867c0-1.631-0.528-2.84-2.382-2.84c-1.825,0-2.916,1.385-2.957,3.216v5.491h-1.15V219.706z"/>
					<path fill="#ED1C24" d="M419.714,224.399c0,2.711-1.566,4.977-4.447,4.977c-2.875,0-4.43-2.266-4.43-4.977
						c0-2.675,1.555-4.951,4.43-4.951C418.147,219.448,419.714,221.725,419.714,224.399z M411.976,224.399
						c0,2.008,1.098,4.014,3.291,4.014c2.194,0,3.298-2.006,3.298-4.014c0-1.982-1.104-4.001-3.298-4.001
						C413.073,220.398,411.976,222.417,411.976,224.399z"/>
					<path fill="#ED1C24" d="M424.003,219.706h1.227l2.4,8.038h0.041l2.282-8.038h1.291l2.306,8.038h0.029l2.394-8.038h1.227
						l-3.022,9.399h-1.243l-2.317-7.897h-0.041l-2.295,7.897h-1.243L424.003,219.706z"/>
					<path fill="#ED1C24" d="M441.5,216.104h1.149v13.001H441.5V216.104z"/>
					<path fill="#ED1C24" d="M448.101,224.729c0.012,1.679,0.88,3.685,3.086,3.685c1.685,0,2.576-0.974,2.951-2.394h1.145
						c-0.475,2.136-1.725,3.356-4.096,3.356c-2.98,0-4.236-2.289-4.236-4.977c0-2.463,1.256-4.951,4.236-4.951
						c3.028,0,4.23,2.617,4.137,5.28H448.101z M454.174,223.743c-0.059-1.713-1.127-3.345-2.987-3.345
						c-1.883,0-2.904,1.644-3.086,3.345H454.174z"/>
					<path fill="#ED1C24" d="M468.29,229.105h-1.05v-1.783h-0.047c-0.493,1.221-1.972,2.054-3.351,2.054
						c-2.846,0-4.219-2.3-4.219-4.977c0-2.651,1.373-4.951,4.219-4.951c1.414,0,2.764,0.703,3.263,2.042h0.035v-5.386h1.149V229.105
						z M463.843,228.413c2.447,0,3.298-2.076,3.298-4.014c0-1.947-0.851-4.001-3.298-4.001c-2.183,0-3.063,2.054-3.063,4.001
						C460.78,226.337,461.66,228.413,463.843,228.413z"/>
					<path fill="#ED1C24" d="M480.987,228.331c-0.018,2.816-1.074,4.529-4.166,4.529c-1.865,0-3.72-0.833-3.896-2.84h1.15
						c0.271,1.396,1.467,1.878,2.746,1.878c2.125,0,3.027-1.267,3.027-3.567v-1.255h-0.034c-0.522,1.126-1.638,1.925-2.993,1.925
						c-2.998,0-4.23-2.137-4.23-4.836c0-2.58,1.521-4.717,4.23-4.717c1.373,0,2.547,0.845,2.993,1.878h0.034v-1.62h1.139V228.331z
						 M479.849,224.294c0-1.842-0.862-3.896-3.027-3.896c-2.171,0-3.098,1.948-3.098,3.896c0,1.89,0.992,3.744,3.098,3.744
						C478.816,228.038,479.849,226.208,479.849,224.294z"/>
					<path fill="#ED1C24" d="M486.444,224.729c0.023,1.679,0.886,3.685,3.086,3.685c1.673,0,2.588-0.974,2.957-2.394h1.145
						c-0.486,2.136-1.73,3.356-4.102,3.356c-2.975,0-4.248-2.289-4.248-4.977c0-2.463,1.273-4.951,4.248-4.951
						c3.016,0,4.23,2.617,4.131,5.28H486.444z M492.522,223.743c-0.059-1.713-1.126-3.345-2.992-3.345
						c-1.865,0-2.904,1.644-3.086,3.345H492.522z"/>
				</g>
			</g>
			<path d="M502.28,229.105v-1.913h1.508v1.913H502.28z"/>
			<g>
				<g>
					<path fill="#0161A5" d="M513.646,224.834c-0.047,2.664,1.878,3.485,4.236,3.485c1.367,0,3.443-0.739,3.443-2.629
						c0-1.502-1.473-2.076-2.669-2.357l-2.897-0.705c-1.515-0.375-2.941-1.115-2.941-3.145c0-1.279,0.828-3.65,4.483-3.65
						c2.563,0,4.829,1.385,4.812,4.038h-1.244c-0.076-1.996-1.707-2.981-3.551-2.981c-1.695,0-3.255,0.646-3.255,2.57
						c0,1.232,0.909,1.748,1.965,2.006l3.163,0.787c1.836,0.48,3.373,1.268,3.373,3.426c0,0.869-0.358,3.697-4.97,3.697
						c-3.074,0-5.333-1.396-5.181-4.542H513.646z"/>
					<path fill="#0161A5" d="M526.853,216.104h1.162v8.167l5.192-4.565h1.537l-4.001,3.496l4.283,5.903h-1.455l-3.703-5.128
						l-1.854,1.561v3.567h-1.162V216.104z"/>
					<path fill="#0161A5" d="M539.303,216.104h1.162v1.842h-1.162V216.104z M539.303,219.706h1.162v9.399h-1.162V219.706z"/>
					<path fill="#0161A5" d="M544.761,216.104h1.149v13.001h-1.149V216.104z"/>
					<path fill="#0161A5" d="M550.205,216.104h1.139v13.001h-1.139V216.104z"/>
					<path fill="#0161A5" d="M561.806,222.452c-0.054-1.409-1.14-2.054-2.471-2.054c-1.009,0-2.207,0.411-2.207,1.632
						c0,1.009,1.156,1.373,1.955,1.571l1.52,0.341c1.308,0.223,2.681,0.963,2.681,2.605c0,2.053-2.035,2.828-3.767,2.828
						c-2.189,0-3.673-1.009-3.866-3.32h1.144c0.1,1.547,1.244,2.357,2.77,2.357c1.068,0,2.57-0.48,2.57-1.771
						c0-1.104-1.016-1.479-2.061-1.736l-1.467-0.306c-1.501-0.423-2.634-0.927-2.634-2.534c0-1.891,1.878-2.617,3.544-2.617
						c1.877,0,3.361,0.961,3.444,3.004H561.806z"/>
				</g>
			</g>
			<g>
				<g>
					<path fill="#0161A5" d="M245.87,216.104h1.226v9.375c0,2.652-0.974,3.896-3.784,3.896c-2.992,0-3.638-2.184-3.62-4.459h1.244
						c0.035,1.126-0.077,3.402,2.487,3.402c1.925,0,2.447-0.975,2.447-3.355V216.104z"/>
					<path fill="#0161A5" d="M259.03,229.105h-1.051v-1.677h-0.052c-0.598,1.242-1.825,1.947-3.227,1.947
						c-2.376,0-3.298-1.396-3.298-3.567v-6.103h1.15v6.126c0.041,1.678,0.675,2.581,2.512,2.581c1.965,0,2.815-1.865,2.815-3.777
						v-4.93h1.15V229.105z"/>
					<path fill="#0161A5" d="M269.48,222.452c-0.065-1.409-1.15-2.054-2.458-2.054c-1.026,0-2.224,0.411-2.224,1.632
						c0,1.009,1.174,1.373,1.948,1.571l1.537,0.341c1.309,0.223,2.664,0.963,2.664,2.605c0,2.053-2.024,2.828-3.767,2.828
						c-2.171,0-3.673-1.009-3.86-3.32h1.149c0.095,1.547,1.244,2.357,2.776,2.357c1.074,0,2.552-0.48,2.552-1.771
						c0-1.104-1.009-1.479-2.048-1.736l-1.473-0.306c-1.496-0.423-2.629-0.927-2.629-2.534c0-1.891,1.878-2.617,3.532-2.617
						c1.878,0,3.374,0.961,3.451,3.004H269.48z"/>
					<path fill="#0161A5" d="M278.041,219.706h1.901v0.962h-1.901v6.337c0,0.739,0.106,1.174,0.927,1.256
						c0.317,0,0.646-0.047,0.974-0.082v1.009c-0.346,0-0.675,0.036-1.015,0.036c-1.538,0-2.06-0.506-2.036-2.113v-6.442h-1.643
						v-0.962h1.643v-2.816h1.15V219.706z"/>
					<path fill="#0161A5" d="M284.242,216.104h1.145v1.842h-1.145V216.104z M284.242,219.706h1.145v9.399h-1.145V219.706z"/>
					<path fill="#0161A5" d="M291.295,220.668h-1.607v-0.962h1.607v-0.844c-0.012-1.632,0.429-2.758,2.271-2.758
						c0.329,0,0.604,0,0.963,0.081v0.962c-0.3-0.047-0.558-0.081-0.839-0.081c-1.273,0-1.226,0.785-1.244,1.83v0.81h1.842v0.962
						h-1.842v8.438h-1.15V220.668z"/>
					<path fill="#0161A5" d="M311.373,222.663c-0.317-1.408-1.161-2.265-2.658-2.265c-2.212,0-3.292,2.019-3.292,4.001
						c0,2.008,1.079,4.014,3.292,4.014c1.414,0,2.576-1.102,2.722-2.675h1.156c-0.299,2.241-1.784,3.638-3.878,3.638
						c-2.869,0-4.448-2.266-4.448-4.977c0-2.675,1.579-4.951,4.448-4.951c2,0,3.543,1.067,3.814,3.215H311.373z"/>
					<path fill="#0161A5" d="M317.282,222.569c0.117-2.183,1.666-3.121,3.819-3.121c1.661,0,3.45,0.48,3.45,3.004v4.987
						c0,0.458,0.217,0.716,0.681,0.716c0.129,0,0.27-0.035,0.352-0.082v0.963c-0.24,0.045-0.44,0.069-0.733,0.069
						c-1.162,0-1.355-0.657-1.355-1.644h-0.023c-0.804,1.222-1.631,1.914-3.42,1.914c-1.731,0-3.151-0.856-3.151-2.734
						c0-2.664,2.564-2.734,5.04-3.04c0.944-0.104,1.461-0.234,1.461-1.278c0-1.537-1.104-1.925-2.447-1.925
						c-1.426,0-2.488,0.657-2.511,2.171H317.282z M323.401,223.966h-0.029c-0.141,0.258-0.669,0.363-0.963,0.434
						c-1.959,0.342-4.359,0.329-4.359,2.148c0,1.15,1.009,1.865,2.071,1.865c1.749,0,3.31-1.102,3.28-2.957V223.966z"/>
					<path fill="#0161A5" d="M332.672,219.706h1.924v0.962h-1.924v6.337c0,0.739,0.111,1.174,0.933,1.256
						c0.323,0,0.657-0.047,0.992-0.082v1.009c-0.346,0-0.675,0.036-1.021,0.036c-1.531,0-2.06-0.506-2.042-2.113v-6.442h-1.631
						v-0.962h1.631v-2.816h1.139V219.706z"/>
					<path fill="#0161A5" d="M338.879,216.104h1.162v1.842h-1.162V216.104z M338.879,219.706h1.162v9.399h-1.162V219.706z"/>
					<path fill="#0161A5" d="M353.208,224.399c0,2.711-1.561,4.977-4.441,4.977c-2.87,0-4.424-2.266-4.424-4.977
						c0-2.675,1.554-4.951,4.424-4.951C351.647,219.448,353.208,221.725,353.208,224.399z M345.492,224.399
						c0,2.008,1.086,4.014,3.274,4.014c2.212,0,3.297-2.006,3.297-4.014c0-1.982-1.085-4.001-3.297-4.001
						C346.578,220.398,345.492,222.417,345.492,224.399z"/>
					<path fill="#0161A5" d="M357.52,219.706h1.144v1.62h0.029c0.429-1.127,1.673-1.878,2.999-1.878c2.64,0,3.45,1.361,3.45,3.591
						v6.066h-1.149v-5.867c0-1.631-0.528-2.84-2.383-2.84c-1.824,0-2.916,1.385-2.945,3.216v5.491h-1.144V219.706z"/>
					<g>
						<rect x="298.834" y="216.104" fill="#0161A5" width="1.144" height="1.842"/>
						<rect x="298.834" y="219.706" fill="#0161A5" width="1.144" height="9.399"/>
					</g>
				</g>
			</g>
		</g>
		<g>
			<g>
				<path d="M571.797,18.264c-4.688,0-8.514-3.811-8.514-8.51c0-4.695,3.826-8.517,8.514-8.517c4.694,0,8.515,3.822,8.515,8.517
					C580.312,14.453,576.491,18.264,571.797,18.264z M571.797,1.589c-4.494,0-8.167,3.656-8.167,8.165
					c0,4.505,3.673,8.165,8.167,8.165c4.501,0,8.161-3.659,8.161-8.165C579.958,5.245,576.298,1.589,571.797,1.589z"/>
			</g>
			<g>
				<path d="M568.84,5.804h3.292c1.391,0,2.505,0.514,2.505,2.041c0,1.061-0.64,1.842-1.689,2.026v0.011
					c1.173,0.136,1.455,0.877,1.531,1.7c0.082,0.814-0.053,1.698,0.264,2.121h-0.534c-0.293-0.546-0.123-1.45-0.211-2.215
					c-0.105-0.766-0.475-1.375-1.865-1.375h-2.816v3.591h-0.476V5.804z M572.132,9.687c1.155,0,2.018-0.541,2.018-1.81
					c0-1.194-0.944-1.649-2.018-1.649h-2.816v3.459H572.132z"/>
			</g>
		</g>
		<path fill="#0161A5" d="M311.215,1.237v129.438h-0.023c0.006,0.141,0.023,0.275,0.023,0.434c0,7.51-6.09,13.613-13.625,13.613
			c-7.528,0-13.624-6.104-13.624-13.613c0-0.158,0.029-0.293,0.029-0.434l-42.855,12.884c5.867,25.782,28.909,45.028,56.45,45.028
			c31.984,0,57.911-25.924,57.911-57.912V1.237H311.215z"/>
		<path fill="#0161A5" d="M505.384,72.77c-7.527,0-13.635-6.103-13.635-13.627c0-7.522,6.107-13.618,13.635-13.618
			c7.511,0,13.619,6.096,13.619,13.618L561.8,46.096c-5.928-25.69-28.939-44.858-56.416-44.858c-6.46,0-12.674,1.067-18.477,3.024
			l-35.649,75.452c8.29,21.827,29.384,37.333,54.126,37.333l0,0c7.511,0,13.619,6.102,13.619,13.628
			c0,7.528-6.108,13.63-13.619,13.63c-7.51,0-13.553-5.92-13.57-13.419l-26.873,8.167l21.967,46.504
			c5.803,1.948,12.017,3.029,18.477,3.029c31.971,0,57.899-25.924,57.899-57.912C563.283,98.694,537.354,72.77,505.384,72.77z"/>
	</g>
	<g>
		<path fill="#800000018000000180000001" d="M0,287.845l1.01-1.174c1.173,1.337,3.083,2.646,5.702,2.646
			c3.71,0,4.774-2.074,4.774-3.629c0-5.348-10.913-2.564-10.913-8.922c0-2.973,2.674-4.855,5.975-4.855
			c2.701,0,4.775,0.955,6.166,2.564l-1.037,1.146c-1.31-1.583-3.165-2.293-5.211-2.293c-2.428,0-4.256,1.393-4.256,3.356
			c0,4.665,10.913,2.101,10.913,8.894c0,2.347-1.555,5.156-6.466,5.156C3.656,290.735,1.392,289.509,0,287.845z"/>
		<path fill="#800000018000000180000001" d="M18.911,283.425v-11.214h1.583v11.187c0,3.683,1.937,5.92,5.511,5.92
			c3.574,0,5.511-2.237,5.511-5.92v-11.187h1.583v11.214c0,4.501-2.401,7.311-7.094,7.311
			C21.339,290.735,18.911,287.899,18.911,283.425z"/>
		<path fill="#800000018000000180000001" d="M50.345,290.409l-5.102-7.531h-4.011v7.531h-1.555v-18.198h6.793
			c3.138,0,5.539,1.991,5.539,5.32c0,3.302-2.319,5.13-5.047,5.238l5.266,7.64H50.345z M50.373,277.531
			c0-2.292-1.61-3.901-4.038-3.901h-5.102v7.83h5.102C48.763,281.46,50.373,279.823,50.373,277.531z"/>
		<path fill="#800000018000000180000001" d="M57.934,290.409v-18.198h11.541v1.419h-9.985v6.738h9.794v1.42h-9.794v8.621H57.934z"/>
		<path fill="#800000018000000180000001" d="M87.048,290.409l-1.801-4.475h-9.631l-1.8,4.475h-1.801l7.448-18.198h1.937
			l7.448,18.198H87.048z M80.446,273.876l-4.311,10.64h8.594L80.446,273.876z"/>
		<path fill="#800000018000000180000001" d="M91.827,281.323c0-5.593,4.065-9.412,9.222-9.412c2.892,0,5.102,1.282,6.629,3.219
			l-1.31,0.846c-1.146-1.582-3.137-2.646-5.32-2.646c-4.256,0-7.585,3.247-7.585,7.994c0,4.693,3.329,7.994,7.585,7.994
			c2.183,0,4.174-1.064,5.32-2.646l1.337,0.818c-1.637,1.992-3.765,3.246-6.657,3.246C95.892,290.735,91.827,286.917,91.827,281.323
			z"/>
		<path fill="#800000018000000180000001" d="M112.867,290.409v-18.198h11.541v1.419h-9.985v6.738h9.794v1.42h-9.794v7.201h9.985
			v1.42H112.867z"/>
		<path fill="#800000018000000180000001" d="M144.056,290.409V273.63h-5.947v-1.419h13.478v1.419h-5.948v16.779H144.056z"/>
		<path fill="#800000018000000180000001" d="M167.523,290.409l-5.102-7.531h-4.01v7.531h-1.555v-18.198h6.793
			c3.137,0,5.538,1.991,5.538,5.32c0,3.302-2.319,5.13-5.047,5.238l5.265,7.64H167.523z M167.551,277.531
			c0-2.292-1.61-3.901-4.038-3.901h-5.102v7.83h5.102C165.941,281.46,167.551,279.823,167.551,277.531z"/>
		<path fill="#800000018000000180000001" d="M175.112,290.409v-18.198h11.541v1.419h-9.985v6.738h9.794v1.42h-9.794v7.201h9.985
			v1.42H175.112z"/>
		<path fill="#800000018000000180000001" d="M205.727,290.409l-1.801-4.475h-9.631l-1.8,4.475h-1.801l7.448-18.198h1.937
			l7.448,18.198H205.727z M199.125,273.876l-4.311,10.64h8.594L199.125,273.876z"/>
		<path fill="#800000018000000180000001" d="M215.007,290.409V273.63h-5.948v-1.419h13.478v1.419h-5.948v16.779H215.007z"/>
		<path fill="#800000018000000180000001" d="M243.249,290.409v-16.234l-6.63,16.234h-0.6l-6.657-16.234v16.234h-1.555v-18.198h2.319
			l6.193,15.142l6.166-15.142h2.346v18.198H243.249z"/>
		<path fill="#800000018000000180000001" d="M251.412,290.409v-18.198h11.541v1.419h-9.985v6.738h9.794v1.42h-9.794v7.201h9.985
			v1.42H251.412z"/>
		<path fill="#800000018000000180000001" d="M281.863,290.409l-11.459-15.633v15.633h-1.555v-18.198h1.583l11.404,15.415v-15.415
			h1.555v18.198H281.863z"/>
		<path fill="#800000018000000180000001" d="M294.609,290.409V273.63h-5.948v-1.419h13.478v1.419h-5.948v16.779H294.609z"/>
		<path fill="#800000018000000180000001" d="M321.161,290.409V273.63h-5.948v-1.419h13.478v1.419h-5.948v16.779H321.161z"/>
		<path fill="#800000018000000180000001" d="M333.96,290.409v-18.198H345.5v1.419h-9.985v6.738h9.794v1.42h-9.794v7.201h9.985v1.42
			H333.96z"/>
		<path fill="#800000018000000180000001" d="M350.715,281.323c0-5.593,4.065-9.412,9.222-9.412c2.892,0,5.102,1.282,6.63,3.219
			l-1.31,0.846c-1.146-1.582-3.138-2.646-5.32-2.646c-4.256,0-7.584,3.247-7.584,7.994c0,4.693,3.328,7.994,7.584,7.994
			c2.183,0,4.174-1.064,5.32-2.646l1.336,0.818c-1.637,1.992-3.765,3.246-6.657,3.246
			C354.781,290.735,350.715,286.917,350.715,281.323z"/>
		<path fill="#800000018000000180000001" d="M384.851,290.409v-8.648H373.31v8.648h-1.555v-18.198h1.555v8.13h11.541v-8.13h1.555
			v18.198H384.851z"/>
		<path fill="#800000018000000180000001" d="M405.999,290.409l-11.458-15.633v15.633h-1.555v-18.198h1.583l11.404,15.415v-15.415
			h1.555v18.198H405.999z"/>
		<path fill="#800000018000000180000001" d="M413.425,281.323c0-5.32,3.492-9.412,8.84-9.412c5.32,0,8.84,4.092,8.84,9.412
			s-3.52,9.412-8.84,9.412C416.917,290.735,413.425,286.644,413.425,281.323z M429.467,281.323c0-4.61-2.837-7.994-7.202-7.994
			c-4.393,0-7.203,3.384-7.203,7.994c0,4.584,2.811,7.994,7.203,7.994C426.63,289.317,429.467,285.907,429.467,281.323z"/>
		<path fill="#800000018000000180000001" d="M436.62,290.409v-18.198h1.582v16.778h8.813v1.42H436.62z"/>
		<path fill="#800000018000000180000001" d="M450.565,281.323c0-5.32,3.492-9.412,8.84-9.412c5.32,0,8.839,4.092,8.839,9.412
			s-3.519,9.412-8.839,9.412C454.058,290.735,450.565,286.644,450.565,281.323z M466.607,281.323c0-4.61-2.837-7.994-7.202-7.994
			c-4.393,0-7.203,3.384-7.203,7.994c0,4.584,2.811,7.994,7.203,7.994C463.771,289.317,466.607,285.907,466.607,281.323z"/>
		<path fill="#800000018000000180000001" d="M473.46,281.323c0-5.62,4.093-9.412,9.223-9.412c3,0,5.184,1.2,6.848,3.109
			l-1.174,0.847c-1.281-1.528-3.355-2.538-5.674-2.538c-4.257,0-7.585,3.247-7.585,7.994c0,4.693,3.328,8.021,7.585,8.021
			c2.428,0,4.365-1.201,5.347-2.21v-4.365h-6.875v-1.392h8.431v6.357c-1.609,1.801-4.038,3.027-6.902,3.027
			C477.553,290.763,473.46,286.944,473.46,281.323z"/>
		<path fill="#800000018000000180000001" d="M500.83,290.409v-7.775l-7.229-10.423h1.883l6.139,8.948l6.138-8.948h1.883
			l-7.229,10.423v7.775H500.83z"/>
		<path fill="#800000018000000180000001" d="M522.472,287.845l1.01-1.174c1.172,1.337,3.082,2.646,5.701,2.646
			c3.711,0,4.775-2.074,4.775-3.629c0-5.348-10.914-2.564-10.914-8.922c0-2.973,2.674-4.855,5.975-4.855
			c2.701,0,4.775,0.955,6.166,2.564l-1.036,1.146c-1.31-1.583-3.165-2.293-5.211-2.293c-2.429,0-4.257,1.393-4.257,3.356
			c0,4.665,10.914,2.101,10.914,8.894c0,2.347-1.556,5.156-6.467,5.156C526.128,290.735,523.862,289.509,522.472,287.845z"/>
		<path fill="#800000018000000180000001" d="M540.7,281.323c0-5.32,3.492-9.412,8.84-9.412c5.32,0,8.84,4.092,8.84,9.412
			s-3.52,9.412-8.84,9.412C544.192,290.735,540.7,286.644,540.7,281.323z M556.742,281.323c0-4.61-2.837-7.994-7.202-7.994
			c-4.393,0-7.203,3.384-7.203,7.994c0,4.584,2.811,7.994,7.203,7.994C553.905,289.317,556.742,285.907,556.742,281.323z"/>
		<path fill="#800000018000000180000001" d="M563.896,290.409v-18.198h1.582v16.778h8.813v1.42H563.896z"/>
		<path fill="#800000018000000180000001" d="M578.741,283.425v-11.214h1.582v11.187c0,3.683,1.938,5.92,5.512,5.92
			s5.511-2.237,5.511-5.92v-11.187h1.583v11.214c0,4.501-2.401,7.311-7.094,7.311C581.169,290.735,578.741,287.899,578.741,283.425z
			"/>
		<path fill="#800000018000000180000001" d="M604.146,290.409V273.63h-5.947v-1.419h13.478v1.419h-5.948v16.779H604.146z"/>
		<path fill="#800000018000000180000001" d="M616.945,290.409v-18.198h1.556v18.198H616.945z"/>
		<path fill="#800000018000000180000001" d="M624.396,281.323c0-5.32,3.492-9.412,8.839-9.412c5.32,0,8.84,4.092,8.84,9.412
			s-3.52,9.412-8.84,9.412C627.888,290.735,624.396,286.644,624.396,281.323z M640.437,281.323c0-4.61-2.837-7.994-7.202-7.994
			c-4.392,0-7.202,3.384-7.202,7.994c0,4.584,2.811,7.994,7.202,7.994C637.6,289.317,640.437,285.907,640.437,281.323z"/>
		<path fill="#800000018000000180000001" d="M660.986,290.409l-11.459-15.633v15.633h-1.556v-18.198h1.583l11.404,15.415v-15.415
			h1.556v18.198H660.986z"/>
		<path fill="#800000018000000180000001" d="M668.084,287.845l1.01-1.174c1.173,1.337,3.083,2.646,5.702,2.646
			c3.711,0,4.774-2.074,4.774-3.629c0-5.348-10.913-2.564-10.913-8.922c0-2.973,2.674-4.855,5.975-4.855
			c2.701,0,4.775,0.955,6.166,2.564l-1.037,1.146c-1.309-1.583-3.164-2.293-5.211-2.293c-2.428,0-4.256,1.393-4.256,3.356
			c0,4.665,10.913,2.101,10.913,8.894c0,2.347-1.556,5.156-6.466,5.156C671.74,290.735,669.476,289.509,668.084,287.845z"/>
		<path fill="#800000018000000180000001" d="M696.109,290.409v-18.198h6.821c3.492,0,5.483,2.456,5.483,5.32s-2.019,5.32-5.483,5.32
			h-5.266v7.558H696.109z M706.776,277.531c0-2.292-1.582-3.901-4.01-3.901h-5.102v7.803h5.102
			C705.194,281.433,706.776,279.796,706.776,277.531z"/>
		<path fill="#800000018000000180000001" d="M724.76,290.409l-1.8-4.475h-9.631l-1.801,4.475h-1.801l7.447-18.198h1.938
			l7.448,18.198H724.76z M718.157,273.876l-4.311,10.64h8.594L718.157,273.876z"/>
		<path fill="#800000018000000180000001" d="M741.952,290.409l-5.102-7.531h-4.011v7.531h-1.556v-18.198h6.794
			c3.138,0,5.538,1.991,5.538,5.32c0,3.302-2.318,5.13-5.047,5.238l5.266,7.64H741.952z M741.979,277.531
			c0-2.292-1.609-3.901-4.037-3.901h-5.103v7.83h5.103C740.37,281.46,741.979,279.823,741.979,277.531z"/>
		<path fill="#800000018000000180000001" d="M753.906,290.409V273.63h-5.948v-1.419h13.479v1.419h-5.947v16.779H753.906z"/>
		<path fill="#800000018000000180000001" d="M779.72,290.409l-11.459-15.633v15.633h-1.555v-18.198h1.582l11.404,15.415v-15.415
			h1.555v18.198H779.72z"/>
		<path fill="#800000018000000180000001" d="M787.827,290.409v-18.198h11.541v1.419h-9.986v6.738h9.795v1.42h-9.795v7.201h9.986
			v1.42H787.827z"/>
		<path fill="#800000018000000180000001" d="M815.933,290.409l-5.102-7.531h-4.012v7.531h-1.555v-18.198h6.793
			c3.139,0,5.539,1.991,5.539,5.32c0,3.302-2.319,5.13-5.047,5.238l5.266,7.64H815.933z M815.96,277.531
			c0-2.292-1.609-3.901-4.038-3.901h-5.103v7.83h5.103C814.351,281.46,815.96,279.823,815.96,277.531z"/>
	</g>
</g>
</svg>
