<?xml version="1.0" encoding="utf-8"?>
<!-- Generator: Adobe Illustrator 16.0.0, SVG Export Plug-In . SVG Version: 6.00 Build 0)  -->
<!DOCTYPE svg PUBLIC "-//W3C//DTD SVG 1.1//EN" "http://www.w3.org/Graphics/SVG/1.1/DTD/svg11.dtd">
<svg version="1.1" id="Layer_1" xmlns="http://www.w3.org/2000/svg" xmlns:xlink="http://www.w3.org/1999/xlink" x="0px" y="0px"
	 width="1252px" height="198px" viewBox="0 0 1252 198" enable-background="new 0 0 1252 198" xml:space="preserve">
<g>
	<g>
		<g>
			<linearGradient id="SVGID_1_" gradientUnits="userSpaceOnUse" x1="347.1807" y1="67.8608" x2="429.1548" y2="67.8608">
				<stop  offset="0" style="stop-color:#232C31"/>
				<stop  offset="1" style="stop-color:#000000"/>
			</linearGradient>
			<polygon fill="url(#SVGID_1_)" points="362.221,101.705 362.221,18.976 347.181,18.976 347.181,101.705 347.181,116.746 
				362.221,116.746 429.155,116.746 429.155,101.705 			"/>
			<linearGradient id="SVGID_2_" gradientUnits="userSpaceOnUse" x1="567.2534" y1="67.8608" x2="665.0215" y2="67.8608">
				<stop  offset="0" style="stop-color:#232C31"/>
				<stop  offset="1" style="stop-color:#000000"/>
			</linearGradient>
			<polyline fill="url(#SVGID_2_)" points="567.253,116.746 582.294,116.746 612.378,34.02 649.98,116.746 665.021,116.746 
				619.896,18.976 604.858,18.976 			"/>
			<linearGradient id="SVGID_3_" gradientUnits="userSpaceOnUse" x1="692.9785" y1="67.8608" x2="790.7441" y2="67.8608">
				<stop  offset="0" style="stop-color:#232C31"/>
				<stop  offset="1" style="stop-color:#000000"/>
			</linearGradient>
			<polygon fill="url(#SVGID_3_)" points="775.703,18.976 775.703,101.705 715.539,18.976 708.018,18.976 692.979,18.976 
				692.979,116.746 708.018,116.746 708.018,34.02 768.182,116.746 775.703,116.746 790.744,116.746 790.744,18.976 			"/>
			<linearGradient id="SVGID_4_" gradientUnits="userSpaceOnUse" x1="818.7012" y1="67.8608" x2="923.1777" y2="67.8608">
				<stop  offset="0" style="stop-color:#232C31"/>
				<stop  offset="1" style="stop-color:#000000"/>
			</linearGradient>
			<polygon fill="url(#SVGID_4_)" points="923.178,18.976 910.33,18.976 901.648,18.976 870.939,55.173 840.229,18.976 
				831.547,18.976 818.701,18.976 860.014,68.052 818.701,116.746 832.191,116.746 840.875,116.746 870.939,81.032 901.002,116.746 
				909.686,116.746 923.178,116.746 881.865,68.052 			"/>
			<linearGradient id="SVGID_5_" gradientUnits="userSpaceOnUse" x1="1166.0605" y1="66.1626" x2="1247.8438" y2="66.1626">
				<stop  offset="0" style="stop-color:#232C31"/>
				<stop  offset="1" style="stop-color:#000000"/>
			</linearGradient>
			<polygon fill="url(#SVGID_5_)" points="1180.342,99.265 1180.342,17.481 1166.061,17.481 1166.061,100.199 1166.061,114.844 
				1181.561,114.844 1247.844,114.844 1247.844,99.265 			"/>
			<g>
				<g>
					<linearGradient id="SVGID_6_" gradientUnits="userSpaceOnUse" x1="1056.5781" y1="25.084" x2="1138.3555" y2="25.084">
						<stop  offset="0" style="stop-color:#232C31"/>
						<stop  offset="1" style="stop-color:#000000"/>
					</linearGradient>
					<rect x="1056.578" y="17.46" fill="url(#SVGID_6_)" width="81.777" height="15.248"/>
					<linearGradient id="SVGID_7_" gradientUnits="userSpaceOnUse" x1="1056.5781" y1="86.0713" x2="1138.3555" y2="86.0713">
						<stop  offset="0" style="stop-color:#232C31"/>
						<stop  offset="1" style="stop-color:#000000"/>
					</linearGradient>
					<polygon fill="url(#SVGID_7_)" points="1073.211,100.625 1073.211,74.289 1117.566,74.289 1117.566,57.656 1072.139,57.656 
						1056.578,57.656 1056.578,73.331 1056.578,100.73 1056.578,114.486 1072.139,114.486 1138.355,114.486 1138.355,100.625 					
						"/>
				</g>
			</g>
			<linearGradient id="SVGID_8_" gradientUnits="userSpaceOnUse" x1="938.2773" y1="67.6328" x2="1028.5195" y2="67.6328">
				<stop  offset="0" style="stop-color:#232C31"/>
				<stop  offset="1" style="stop-color:#000000"/>
			</linearGradient>
			<path fill="url(#SVGID_8_)" d="M1011.705,86.285c-5.883,9.087-15.559,14.475-26.506,14.475
				c-17.943,0-32.486-15.054-32.486-33.745s14.543-34.007,32.486-34.007c11.568,0,21.721,6.541,27.473,15.627h15.848
				c-7.07-18.171-23.801-29.873-43.32-29.873c-25.916,0-46.922,21.994-46.922,48.992c0,26.997,21.006,48.75,46.922,48.75
				c19.52,0,36.25-12.05,43.32-30.222h-16.814V86.285z"/>
			<g>
				<linearGradient id="SVGID_9_" gradientUnits="userSpaceOnUse" x1="456.4087" y1="26.4692" x2="538.186" y2="26.4692">
					<stop  offset="0" style="stop-color:#232C31"/>
					<stop  offset="1" style="stop-color:#000000"/>
				</linearGradient>
				<rect x="456.409" y="18.846" fill="url(#SVGID_9_)" width="81.777" height="15.247"/>
				<linearGradient id="SVGID_10_" gradientUnits="userSpaceOnUse" x1="456.4087" y1="88.8433" x2="538.186" y2="88.8433">
					<stop  offset="0" style="stop-color:#232C31"/>
					<stop  offset="1" style="stop-color:#000000"/>
				</linearGradient>
				<polygon fill="url(#SVGID_10_)" points="474.427,75.676 516.009,75.676 516.009,60.429 472.765,60.429 456.409,60.429 
					456.409,74.452 456.409,101.848 456.409,117.258 472.765,117.258 538.186,117.258 538.186,103.396 474.427,103.396 				"/>
			</g>
			<g>
				<linearGradient id="SVGID_11_" gradientUnits="userSpaceOnUse" x1="228.9775" y1="64.9189" x2="319.2246" y2="64.9189">
					<stop  offset="0" style="stop-color:#232C31"/>
					<stop  offset="1" style="stop-color:#000000"/>
				</linearGradient>
				<path fill="url(#SVGID_11_)" d="M302.408,83.721c-5.883,8.644-15.56,14.289-26.506,14.289c-17.941,0-32.486-15.15-32.486-33.84
					c0-18.691,14.544-33.845,32.486-33.845c11.57,0,21.719,6.306,27.475,15.794h15.847c-7.071-17.665-23.804-30.084-43.322-30.084
					c-25.915,0-46.925,21.888-46.925,48.885s21.009,48.883,46.925,48.883c19.518,0,36.251-12.416,43.322-30.082H302.408z"/>
				<linearGradient id="SVGID_12_" gradientUnits="userSpaceOnUse" x1="232.9604" y1="166.96" x2="252.8447" y2="166.96">
					<stop  offset="0" style="stop-color:#232C31"/>
					<stop  offset="1" style="stop-color:#000000"/>
				</linearGradient>
				<path fill="url(#SVGID_12_)" d="M241.735,180.385v-24.754h-8.775v-2.096h19.884v2.096h-8.774v24.754H241.735z"/>
				<linearGradient id="SVGID_13_" gradientUnits="userSpaceOnUse" x1="269.7173" y1="166.9805" x2="295.7959" y2="166.9805">
					<stop  offset="0" style="stop-color:#232C31"/>
					<stop  offset="1" style="stop-color:#000000"/>
				</linearGradient>
				<path fill="url(#SVGID_13_)" d="M269.717,166.98c0-7.85,5.151-13.885,13.039-13.885c7.848,0,13.04,6.035,13.04,13.885
					s-5.192,13.885-13.04,13.885C274.865,180.865,269.717,174.828,269.717,166.98z M293.383,166.98
					c0-6.803-4.188-11.791-10.626-11.791c-6.48,0-10.625,4.988-10.625,11.791c0,6.762,4.145,11.791,10.625,11.791
					C289.194,178.771,293.383,173.742,293.383,166.98z"/>
				<linearGradient id="SVGID_14_" gradientUnits="userSpaceOnUse" x1="312.3867" y1="166.96" x2="345.751" y2="166.96">
					<stop  offset="0" style="stop-color:#232C31"/>
					<stop  offset="1" style="stop-color:#000000"/>
				</linearGradient>
				<path fill="url(#SVGID_14_)" d="M335.529,180.385l-6.439-23.063l-6.44,23.063h-2.574l-7.688-26.85h2.576l6.479,23.627
					l6.601-23.627h2.093l6.562,23.627l6.479-23.627h2.576l-7.647,26.85H335.529z"/>
				<linearGradient id="SVGID_15_" gradientUnits="userSpaceOnUse" x1="359.4438" y1="166.96" x2="384.2764" y2="166.96">
					<stop  offset="0" style="stop-color:#232C31"/>
					<stop  offset="1" style="stop-color:#000000"/>
				</linearGradient>
				<path fill="url(#SVGID_15_)" d="M381.621,180.385l-2.656-6.602h-14.208l-2.656,6.602h-2.657l10.987-26.85h2.859l10.987,26.85
					H381.621z M371.882,155.992l-6.359,15.695h12.678L371.882,155.992z"/>
				<linearGradient id="SVGID_16_" gradientUnits="userSpaceOnUse" x1="402.5166" y1="166.96" x2="421.0313" y2="166.96">
					<stop  offset="0" style="stop-color:#232C31"/>
					<stop  offset="1" style="stop-color:#000000"/>
				</linearGradient>
				<path fill="url(#SVGID_16_)" d="M418.252,180.385l-7.524-11.113h-5.919v11.113h-2.292v-26.85h10.022
					c4.628,0,8.17,2.941,8.17,7.85c0,4.871-3.42,7.566-7.447,7.729l7.769,11.271H418.252z M418.294,161.385
					c0-3.379-2.375-5.754-5.956-5.754h-7.529v11.551h7.529C415.919,167.182,418.294,164.767,418.294,161.385z"/>
				<linearGradient id="SVGID_17_" gradientUnits="userSpaceOnUse" x1="440.7192" y1="166.96" x2="462.8579" y2="166.96">
					<stop  offset="0" style="stop-color:#232C31"/>
					<stop  offset="1" style="stop-color:#000000"/>
				</linearGradient>
				<path fill="url(#SVGID_17_)" d="M440.719,180.385v-26.85h8.574c8.332,0,13.564,6.08,13.564,13.445
					c0,7.445-5.233,13.404-13.564,13.404H440.719z M460.442,166.98c0-6.278-4.025-11.35-11.148-11.35h-6.279v22.662h6.279
					C456.376,178.291,460.442,173.26,460.442,166.98z"/>
				<linearGradient id="SVGID_18_" gradientUnits="userSpaceOnUse" x1="481.3784" y1="166.9824" x2="500.7388" y2="166.9824">
					<stop  offset="0" style="stop-color:#232C31"/>
					<stop  offset="1" style="stop-color:#000000"/>
				</linearGradient>
				<path fill="url(#SVGID_18_)" d="M481.378,176.6l1.488-1.729c1.73,1.97,4.548,3.901,8.412,3.901c5.475,0,7.044-3.057,7.044-5.352
					c0-7.887-16.099-3.781-16.099-13.16c0-4.387,3.944-7.162,8.814-7.162c3.986,0,7.045,1.406,9.098,3.781l-1.531,1.691
					c-1.932-2.336-4.668-3.38-7.688-3.38c-3.581,0-6.278,2.052-6.278,4.952c0,6.88,16.1,3.096,16.1,13.119
					c0,3.461-2.295,7.605-9.542,7.605C486.77,180.865,483.429,179.055,481.378,176.6z"/>
				<linearGradient id="SVGID_19_" gradientUnits="userSpaceOnUse" x1="544.2563" y1="166.9805" x2="570.3384" y2="166.9805">
					<stop  offset="0" style="stop-color:#232C31"/>
					<stop  offset="1" style="stop-color:#000000"/>
				</linearGradient>
				<path fill="url(#SVGID_19_)" d="M544.256,166.98c0-7.85,5.152-13.885,13.041-13.885c7.848,0,13.041,6.035,13.041,13.885
					s-5.193,13.885-13.041,13.885C549.409,180.865,544.256,174.828,544.256,166.98z M567.922,166.98
					c0-6.803-4.187-11.791-10.625-11.791c-6.48,0-10.626,4.988-10.626,11.791c0,6.762,4.146,11.791,10.626,11.791
					C563.735,178.771,567.922,173.742,567.922,166.98z"/>
				<linearGradient id="SVGID_20_" gradientUnits="userSpaceOnUse" x1="590.3091" y1="166.96" x2="608.46" y2="166.96">
					<stop  offset="0" style="stop-color:#232C31"/>
					<stop  offset="1" style="stop-color:#000000"/>
				</linearGradient>
				<path fill="url(#SVGID_20_)" d="M590.309,180.385v-26.85h10.061c5.152,0,8.09,3.623,8.09,7.85c0,4.226-2.979,7.852-8.09,7.852
					h-7.768v11.148H590.309z M606.044,161.385c0-3.379-2.333-5.754-5.915-5.754h-7.528v11.511h7.528
					C603.711,167.141,606.044,164.725,606.044,161.385z"/>
				<linearGradient id="SVGID_21_" gradientUnits="userSpaceOnUse" x1="627.5859" y1="166.96" x2="644.6094" y2="166.96">
					<stop  offset="0" style="stop-color:#232C31"/>
					<stop  offset="1" style="stop-color:#000000"/>
				</linearGradient>
				<path fill="url(#SVGID_21_)" d="M627.586,180.385v-26.85h17.023v2.096h-14.73v9.943h14.449v2.094h-14.449v10.625h14.73v2.092
					H627.586L627.586,180.385z"/>
				<linearGradient id="SVGID_22_" gradientUnits="userSpaceOnUse" x1="664.5801" y1="166.96" x2="683.0938" y2="166.96">
					<stop  offset="0" style="stop-color:#232C31"/>
					<stop  offset="1" style="stop-color:#000000"/>
				</linearGradient>
				<path fill="url(#SVGID_22_)" d="M680.316,180.385l-7.527-11.113h-5.918v11.113h-2.291v-26.85h10.02
					c4.629,0,8.172,2.941,8.172,7.85c0,4.871-3.422,7.566-7.445,7.729l7.768,11.271H680.316z M680.355,161.385
					c0-3.379-2.373-5.754-5.955-5.754h-7.529v11.551h7.529C677.982,167.182,680.355,164.767,680.355,161.385z"/>
				<linearGradient id="SVGID_23_" gradientUnits="userSpaceOnUse" x1="700.0449" y1="166.96" x2="724.8809" y2="166.96">
					<stop  offset="0" style="stop-color:#232C31"/>
					<stop  offset="1" style="stop-color:#000000"/>
				</linearGradient>
				<path fill="url(#SVGID_23_)" d="M722.221,180.385l-2.654-6.602h-14.209l-2.656,6.602h-2.656l10.988-26.85h2.855l10.992,26.85
					H722.221z M712.482,155.992l-6.359,15.695h12.676L712.482,155.992z"/>
				<linearGradient id="SVGID_24_" gradientUnits="userSpaceOnUse" x1="738.4102" y1="166.96" x2="758.291" y2="166.96">
					<stop  offset="0" style="stop-color:#232C31"/>
					<stop  offset="1" style="stop-color:#000000"/>
				</linearGradient>
				<path fill="url(#SVGID_24_)" d="M747.184,180.385v-24.754h-8.773v-2.096h19.881v2.096h-8.773v24.754H747.184z"/>
				<linearGradient id="SVGID_25_" gradientUnits="userSpaceOnUse" x1="777.3359" y1="166.96" x2="779.6309" y2="166.96">
					<stop  offset="0" style="stop-color:#232C31"/>
					<stop  offset="1" style="stop-color:#000000"/>
				</linearGradient>
				<path fill="url(#SVGID_25_)" d="M777.336,180.385v-26.85h2.295v26.85H777.336z"/>
				<linearGradient id="SVGID_26_" gradientUnits="userSpaceOnUse" x1="799.5957" y1="166.9805" x2="825.6777" y2="166.9805">
					<stop  offset="0" style="stop-color:#232C31"/>
					<stop  offset="1" style="stop-color:#000000"/>
				</linearGradient>
				<path fill="url(#SVGID_26_)" d="M799.596,166.98c0-7.85,5.152-13.885,13.041-13.885c7.848,0,13.041,6.035,13.041,13.885
					s-5.193,13.885-13.041,13.885C804.748,180.865,799.596,174.828,799.596,166.98z M823.262,166.98
					c0-6.803-4.184-11.791-10.625-11.791c-6.48,0-10.625,4.988-10.625,11.791c0,6.762,4.145,11.791,10.625,11.791
					C819.078,178.771,823.262,173.742,823.262,166.98z"/>
				<linearGradient id="SVGID_27_" gradientUnits="userSpaceOnUse" x1="845.6504" y1="166.96" x2="867.1016" y2="166.96">
					<stop  offset="0" style="stop-color:#232C31"/>
					<stop  offset="1" style="stop-color:#000000"/>
				</linearGradient>
				<path fill="url(#SVGID_27_)" d="M864.848,180.385l-16.904-23.063v23.063h-2.293v-26.85h2.336l16.824,22.742v-22.742h2.291v26.85
					H864.848z"/>
				<linearGradient id="SVGID_28_" gradientUnits="userSpaceOnUse" x1="912.7969" y1="166.96" x2="929.8203" y2="166.96">
					<stop  offset="0" style="stop-color:#232C31"/>
					<stop  offset="1" style="stop-color:#000000"/>
				</linearGradient>
				<path fill="url(#SVGID_28_)" d="M912.797,180.385v-26.85h17.023v2.096h-14.73v9.943h14.447v2.094H915.09v10.625h14.73v2.092
					H912.797L912.797,180.385z"/>
				<linearGradient id="SVGID_29_" gradientUnits="userSpaceOnUse" x1="949.7891" y1="166.96" x2="966.8145" y2="166.96">
					<stop  offset="0" style="stop-color:#232C31"/>
					<stop  offset="1" style="stop-color:#000000"/>
				</linearGradient>
				<path fill="url(#SVGID_29_)" d="M949.789,180.385v-26.85h17.025v2.096h-14.73v9.943h14.447v2.094h-14.447v12.717H949.789
					L949.789,180.385z"/>
				<linearGradient id="SVGID_30_" gradientUnits="userSpaceOnUse" x1="985.9004" y1="166.96" x2="1002.9238" y2="166.96">
					<stop  offset="0" style="stop-color:#232C31"/>
					<stop  offset="1" style="stop-color:#000000"/>
				</linearGradient>
				<path fill="url(#SVGID_30_)" d="M985.9,180.385v-26.85h17.023v2.096h-14.732v9.943h14.451v2.094h-14.451v12.717H985.9
					L985.9,180.385z"/>
				<linearGradient id="SVGID_31_" gradientUnits="userSpaceOnUse" x1="1022.0059" y1="166.96" x2="1024.3008" y2="166.96">
					<stop  offset="0" style="stop-color:#232C31"/>
					<stop  offset="1" style="stop-color:#000000"/>
				</linearGradient>
				<path fill="url(#SVGID_31_)" d="M1022.006,180.385v-26.85h2.295v26.85H1022.006z"/>
				<linearGradient id="SVGID_32_" gradientUnits="userSpaceOnUse" x1="1044.2695" y1="166.9805" x2="1067.6953" y2="166.9805">
					<stop  offset="0" style="stop-color:#232C31"/>
					<stop  offset="1" style="stop-color:#000000"/>
				</linearGradient>
				<path fill="url(#SVGID_32_)" d="M1044.27,166.98c0-8.25,5.994-13.885,13.6-13.885c4.268,0,7.529,1.891,9.785,4.748l-1.936,1.247
					c-1.689-2.333-4.629-3.901-7.85-3.901c-6.275,0-11.188,4.787-11.188,11.791c0,6.922,4.912,11.791,11.188,11.791
					c3.221,0,6.16-1.57,7.85-3.901l1.977,1.206c-2.416,2.938-5.559,4.789-9.826,4.789
					C1050.264,180.865,1044.27,175.232,1044.27,166.98z"/>
				<linearGradient id="SVGID_33_" gradientUnits="userSpaceOnUse" x1="1086.5742" y1="166.96" x2="1088.8691" y2="166.96">
					<stop  offset="0" style="stop-color:#232C31"/>
					<stop  offset="1" style="stop-color:#000000"/>
				</linearGradient>
				<path fill="url(#SVGID_33_)" d="M1086.574,180.385v-26.85h2.295v26.85H1086.574z"/>
				<linearGradient id="SVGID_34_" gradientUnits="userSpaceOnUse" x1="1109.8438" y1="166.96" x2="1126.8691" y2="166.96">
					<stop  offset="0" style="stop-color:#232C31"/>
					<stop  offset="1" style="stop-color:#000000"/>
				</linearGradient>
				<path fill="url(#SVGID_34_)" d="M1109.844,180.385v-26.85h17.025v2.096h-14.73v9.943h14.449v2.094h-14.449v10.625h14.73v2.092
					H1109.844L1109.844,180.385z"/>
				<linearGradient id="SVGID_35_" gradientUnits="userSpaceOnUse" x1="1146.8398" y1="166.96" x2="1168.293" y2="166.96">
					<stop  offset="0" style="stop-color:#232C31"/>
					<stop  offset="1" style="stop-color:#000000"/>
				</linearGradient>
				<path fill="url(#SVGID_35_)" d="M1166.037,180.385l-16.902-23.063v23.063h-2.295v-26.85h2.336l16.822,22.742v-22.742h2.295
					v26.85H1166.037z"/>
				<linearGradient id="SVGID_36_" gradientUnits="userSpaceOnUse" x1="1188.2617" y1="166.9805" x2="1211.6855" y2="166.9805">
					<stop  offset="0" style="stop-color:#232C31"/>
					<stop  offset="1" style="stop-color:#000000"/>
				</linearGradient>
				<path fill="url(#SVGID_36_)" d="M1188.262,166.98c0-8.25,5.998-13.885,13.604-13.885c4.268,0,7.527,1.891,9.779,4.748
					l-1.93,1.247c-1.691-2.333-4.629-3.901-7.85-3.901c-6.277,0-11.189,4.787-11.189,11.791c0,6.922,4.912,11.791,11.189,11.791
					c3.221,0,6.156-1.57,7.85-3.901l1.971,1.206c-2.414,2.938-5.553,4.789-9.82,4.789
					C1194.26,180.865,1188.262,175.232,1188.262,166.98z"/>
				<linearGradient id="SVGID_37_" gradientUnits="userSpaceOnUse" x1="1227.3105" y1="166.96" x2="1250.9766" y2="166.96">
					<stop  offset="0" style="stop-color:#232C31"/>
					<stop  offset="1" style="stop-color:#000000"/>
				</linearGradient>
				<path fill="url(#SVGID_37_)" d="M1237.977,180.385v-11.471l-10.666-15.379h2.777l9.055,13.204l9.057-13.204h2.777
					l-10.664,15.379v11.471H1237.977z"/>
			</g>
		</g>
		<polygon fill="#FF2F63" points="1192.42,17.421 1192.42,26.929 1236.031,26.929 1236.031,44.82 1192.42,44.82 1192.42,82.84 
			1246.654,82.84 1246.654,73.331 1203.045,73.331 1203.045,55.441 1246.654,55.441 1246.654,17.421 		"/>
	</g>
	<g>
		<polygon fill="#00AF93" points="168,147.039 168,50.676 126,74.789 126,122.924 84.51,147.032 43,122.924 43,74.776 1,50.676 
			1,147.039 84.521,195.257 		"/>
		<polygon fill="#B32145" points="168,99.195 168,50.972 84.521,2.743 1,50.972 1,99.195 84.521,50.968 		"/>
		<polygon fill="#007378" points="84.41,147.032 43,122.924 43,74.776 1,50.676 1,147.039 84.475,195.257 		"/>
		<polygon fill="#FF2F63" points="85,3.614 1,51.843 1,100.066 85,51.839 		"/>
	</g>
</g>
</svg>
