<?xml version="1.0" encoding="utf-8"?>
<!-- Generator: Adobe Illustrator 16.0.0, SVG Export Plug-In . SVG Version: 6.00 Build 0)  -->
<!DOCTYPE svg PUBLIC "-//W3C//DTD SVG 1.1//EN" "http://www.w3.org/Graphics/SVG/1.1/DTD/svg11.dtd">
<svg version="1.1" id="Layer_1" xmlns="http://www.w3.org/2000/svg" xmlns:xlink="http://www.w3.org/1999/xlink" x="0px" y="0px"
	 width="168.86px" height="171.71px" viewBox="0 0 168.86 171.71" enable-background="new 0 0 168.86 171.71" xml:space="preserve">
<g>
	<path fill="#14A0C0" d="M118.604,16.314V17h1.541c11.936,10,19.604,24.78,19.604,41.63c0,30.145-24.195,54.426-54.25,54.801
		c14.856-0.375,26.811-12.643,26.813-27.591c0-9.003-4.316-17.049-11.01-22.061c0.002-0.008,0.008-0.032,0.008-0.032L43.493,21.068
		l0,0L118.604,16.314z"/>
	<path fill="#026491" d="M111.162,78.048c0.708,2.442,1.103,5.021,1.103,7.694c-0.003,14.949-11.938,27.115-26.795,27.488
		c30.055-0.371,54.293-24.846,54.293-54.99c0-5.219-0.729-10.267-2.087-15.049C141.073,83.866,117.845,99.922,111.162,78.048z"/>
	<path fill="#09D8D6" d="M138.763,58.241c0.002,30.379-24.624,55.003-54.999,55.005C53.385,113.244,28.76,88.62,28.759,58.241
		C28.76,28.342,52.622,4.014,82.342,3.261C37.435,4.018,1.258,40.653,1.258,85.743c0,45.564,36.937,82.501,82.503,82.505
		c45.567,0,82.5-36.941,82.504-82.505c0-45.09-36.175-81.725-81.083-82.483C114.903,4.013,138.765,28.342,138.763,58.241z"/>
	<g>
		<defs>
			<path id="SVGID_3_" d="M28.759,58.241c0.001,30.379,24.626,55.003,55.005,55.005c30.375-0.002,55.001-24.626,54.999-55.005
				c0.002-29.578-23.355-53.69-52.633-54.934c-0.789-0.022-1.574-0.06-2.369-0.06c-0.768,0-1.527,0.037-2.29,0.058
				C52.159,4.508,28.76,28.636,28.759,58.241z"/>
		</defs>
		<clipPath id="SVGID_2_">
			<use xlink:href="#SVGID_3_"  overflow="visible"/>
		</clipPath>
		<path clip-path="url(#SVGID_2_)" fill="#FF2F63" d="M144.54-68.408l-23.727,23.136l-72.75,61.491l0,0
			c0.003,0.002,0.003,0.002,0.003,0.002C36.127,26.315,28.55,41.39,28.549,58.241c0.001,30.142,24.242,54.619,54.291,54.996
			c-14.852-0.377-26.79-12.545-26.79-27.497c0.003-9,4.326-16.998,11.024-22.01c-0.007-0.006-0.007-0.006-0.007-0.006l56.961-42.717
			l0,0l26.857-20.134C159.878-3.653,149.294-72.324,144.54-68.408z"/>
	</g>
	<path fill="#B32145" d="M57.07,78.048c-0.708,2.442-1.103,5.021-1.103,7.694c0.003,14.949,11.938,27.115,26.795,27.488
		c-30.054-0.371-54.293-24.846-54.293-54.99c0-5.219,0.729-10.267,2.087-15.049C27.159,83.866,50.388,99.922,57.07,78.048z"/>
	<path fill="#09CDCB" d="M140.38,25.529c7.829,12.616,12.362,27.492,12.362,43.434c0,45.563-36.937,82.5-82.5,82.5
		c-21.688,0-41.411-8.383-56.137-22.068c14.551,23.445,40.514,39.068,70.137,39.068c45.563,0,82.5-36.938,82.5-82.5
		C166.742,62.087,156.59,40.593,140.38,25.529z"/>
</g>
</svg>
