<?xml version="1.0" encoding="utf-8"?>
<!-- Generator: Adobe Illustrator 16.0.0, SVG Export Plug-In . SVG Version: 6.00 Build 0)  -->
<!DOCTYPE svg PUBLIC "-//W3C//DTD SVG 1.1//EN" "http://www.w3.org/Graphics/SVG/1.1/DTD/svg11.dtd">
<svg version="1.1" id="Layer_1" xmlns="http://www.w3.org/2000/svg" xmlns:xlink="http://www.w3.org/1999/xlink" x="0px" y="0px"
	 width="524px" height="283px" viewBox="0 0 524 283" enable-background="new 0 0 524 283" xml:space="preserve">
<g>
	<path fill="#2A313B" d="M2.189,221.845l1.013-1.272c0.868,1.157,2.054,2.141,3.848,2.141c2.633,0,4.282-1.822,4.282-4.427v-13.713
		h1.649v13.713c0,4.021-2.633,5.931-5.844,5.931C5.053,224.217,3.462,223.495,2.189,221.845z"/>
	<path fill="#2A313B" d="M33.082,223.871l-7.956-9.084l-2.141,2.343v6.741h-1.649v-19.297h1.649v10.56l9.316-10.56h2.112l-8.216,9.2
		l8.998,10.097H33.082z"/>
	<path fill="#2A313B" d="M40.772,221.151l1.07-1.244c1.244,1.418,3.27,2.807,6.047,2.807c3.935,0,5.063-2.199,5.063-3.848
		c0-5.671-11.572-2.72-11.572-9.461c0-3.153,2.835-5.149,6.336-5.149c2.864,0,5.063,1.013,6.538,2.72l-1.099,1.215
		c-1.389-1.678-3.356-2.43-5.526-2.43c-2.575,0-4.513,1.476-4.513,3.559c0,4.947,11.572,2.228,11.572,9.431
		c0,2.488-1.649,5.468-6.856,5.468C44.649,224.217,42.248,222.916,40.772,221.151z"/>
	<path fill="#2A313B" d="M73.253,223.871v-19.297h12.238v1.505H74.902v7.146h10.386v1.505H74.902v7.637h10.589v1.505H73.253z"/>
	<path fill="#2A313B" d="M106.923,223.871l-12.15-16.577v16.577h-1.649v-19.297h1.678l12.093,16.346v-16.346h1.649v19.297H106.923z"
		/>
	<path fill="#2A313B" d="M116.174,214.237c0-5.96,4.34-9.981,9.779-9.981c3.182,0,5.497,1.273,7.262,3.298l-1.244,0.897
		c-1.36-1.62-3.559-2.69-6.018-2.69c-4.513,0-8.043,3.442-8.043,8.477c0,4.976,3.53,8.506,8.043,8.506
		c2.575,0,4.629-1.273,5.67-2.344v-4.629h-7.291v-1.476h8.939v6.741c-1.707,1.909-4.282,3.211-7.319,3.211
		C120.514,224.247,116.174,220.197,116.174,214.237z"/>
	<path fill="#2A313B" d="M141.02,223.871v-19.297h1.649v19.297H141.02z"/>
	<path fill="#2A313B" d="M164.827,223.871l-12.151-16.577v16.577h-1.649v-19.297h1.678l12.093,16.346v-16.346h1.649v19.297H164.827z
		"/>
	<path fill="#2A313B" d="M174.802,223.871v-19.297h12.237v1.505h-10.588v7.146h10.386v1.505h-10.386v7.637h10.588v1.505H174.802z"/>
	<path fill="#2A313B" d="M194.672,223.871v-19.297h12.238v1.505h-10.589v7.146h10.386v1.505h-10.386v7.637h10.589v1.505H194.672z"/>
	<path fill="#2A313B" d="M225.854,223.871l-5.41-7.985h-4.253v7.985h-1.649v-19.297h7.204c3.327,0,5.873,2.112,5.873,5.642
		c0,3.501-2.459,5.439-5.352,5.555l5.583,8.101H225.854z M225.883,210.215c0-2.43-1.707-4.137-4.282-4.137h-5.41v8.303h5.41
		C224.176,214.381,225.883,212.645,225.883,210.215z"/>
	<path fill="#2A313B" d="M235.28,223.871v-19.297h1.649v19.297H235.28z"/>
	<path fill="#2A313B" d="M259.087,223.871l-12.151-16.577v16.577h-1.649v-19.297h1.678l12.093,16.346v-16.346h1.649v19.297H259.087z
		"/>
	<path fill="#2A313B" d="M268.338,214.237c0-5.96,4.339-9.981,9.779-9.981c3.183,0,5.497,1.273,7.262,3.298l-1.244,0.897
		c-1.36-1.62-3.559-2.69-6.018-2.69c-4.514,0-8.043,3.442-8.043,8.477c0,4.976,3.529,8.506,8.043,8.506
		c2.575,0,4.629-1.273,5.67-2.344v-4.629h-7.29v-1.476h8.939v6.741c-1.707,1.909-4.281,3.211-7.319,3.211
		C272.678,224.247,268.338,220.197,268.338,214.237z"/>
	<path fill="#2A313B" d="M307.01,229.627c-2.488-3.761-3.877-8.129-3.877-12.787s1.389-9.026,3.877-12.787l0.896,0.637
		c-1.822,3.731-3.066,7.116-3.066,12.15c0,5.005,1.244,8.419,3.066,12.093L307.01,229.627z"/>
	<path fill="#2A313B" d="M330.729,223.871v-17.214l-7.03,17.214h-0.636l-7.06-17.214v17.214h-1.649v-19.297h2.46l6.567,16.057
		l6.538-16.057h2.487v19.297H330.729z"/>
	<path fill="#2A313B" d="M338.853,228.933c1.822-3.674,3.066-7.088,3.066-12.093c0-5.034-1.244-8.419-3.066-12.15l0.896-0.637
		c2.488,3.761,3.877,8.129,3.877,12.787s-1.389,9.026-3.877,12.787L338.853,228.933z"/>
	<path fill="#2A313B" d="M360.862,221.151l1.07-1.244c1.244,1.418,3.27,2.807,6.047,2.807c3.935,0,5.063-2.199,5.063-3.848
		c0-5.671-11.572-2.72-11.572-9.461c0-3.153,2.836-5.149,6.336-5.149c2.864,0,5.063,1.013,6.538,2.72l-1.099,1.215
		c-1.389-1.678-3.356-2.43-5.526-2.43c-2.574,0-4.513,1.476-4.513,3.559c0,4.947,11.572,2.228,11.572,9.431
		c0,2.488-1.649,5.468-6.856,5.468C364.739,224.217,362.338,222.916,360.862,221.151z"/>
	<path fill="#2A313B" d="M382.295,223.871v-19.297h6.162c5.988,0,9.749,4.368,9.749,9.663c0,5.352-3.761,9.634-9.749,9.634H382.295z
		 M396.471,214.237c0-4.514-2.894-8.158-8.014-8.158h-4.514v16.287h4.514C393.549,222.366,396.471,218.75,396.471,214.237z"/>
	<path fill="#2A313B" d="M419.667,223.871l-12.151-16.577v16.577h-1.649v-19.297h1.679l12.093,16.346v-16.346h1.649v19.297H419.667z
		"/>
	<path fill="#2A313B" d="M429.12,222.858c0-0.665,0.608-1.244,1.303-1.244s1.272,0.579,1.272,1.244c0,0.694-0.578,1.273-1.272,1.273
		S429.12,223.552,429.12,222.858z"/>
	<path fill="#2A313B" d="M450.581,223.871v-19.297h7.927c3.24,0,5.323,1.881,5.323,4.918c0,2.431-1.648,4.079-3.385,4.427
		c2.055,0.318,3.762,2.459,3.762,4.744c0,3.212-2.084,5.208-5.526,5.208H450.581z M462.096,209.666c0-1.967-1.302-3.587-3.79-3.587
		h-6.075v7.146h6.075C460.794,213.224,462.096,211.662,462.096,209.666z M462.472,218.547c0-1.967-1.359-3.818-4.051-3.818h-6.19
		v7.637h6.19C460.968,222.366,462.472,220.891,462.472,218.547z"/>
	<path fill="#2A313B" d="M485.813,223.871V214.7h-12.238v9.171h-1.648v-19.297h1.648v8.621h12.238v-8.621h1.648v19.297H485.813z"/>
	<path fill="#2A313B" d="M495.816,223.871v-19.297h6.162c5.989,0,9.75,4.368,9.75,9.663c0,5.352-3.761,9.634-9.75,9.634H495.816z
		 M509.992,214.237c0-4.514-2.893-8.158-8.014-8.158h-4.513v16.287h4.513C507.07,222.366,509.992,218.75,509.992,214.237z"/>
	<path fill="#2A313B" d="M518.029,222.858c0-0.665,0.607-1.244,1.302-1.244s1.273,0.579,1.273,1.244
		c0,0.694-0.579,1.273-1.273,1.273S518.029,223.552,518.029,222.858z"/>
	<path fill="#3A5DAE" d="M199.224,1.096v82.431h0.002l0,0h-0.015c0.002,0.092,0.013,0.179,0.013,0.272
		c0,4.791-3.885,8.677-8.677,8.677s-8.677-3.886-8.677-8.677c0-0.094,0.011-0.181,0.015-0.272h-28.214
		c0,20.367,16.51,36.88,36.876,36.88c20.367,0,36.876-16.513,36.876-36.88V1.096H199.224z"/>
	<polygon fill="#FF3A1E" points="255.623,1.096 283.822,1.096 255.623,60.75 283.822,120.407 255.623,120.407 	"/>
	<path d="M239.038,146.216v-1.229h0.975v1.229H239.038z"/>
	<path fill="#FF3A1E" d="M245.489,137.933h0.787v4.454l4.812-4.454h1.067l-3.698,3.423l3.87,4.86h-1.02l-3.444-4.316l-1.587,1.474
		v2.843h-0.787V137.933z"/>
	<path fill="#FF3A1E" d="M255.065,140.232h0.73v1.03h0.023c0.266-0.72,1.067-1.207,1.912-1.207c1.682,0,2.19,0.883,2.19,2.311v3.851
		h-0.729v-3.737c0-1.031-0.338-1.808-1.52-1.808c-1.16,0-1.854,0.881-1.878,2.053v3.492h-0.73V140.232z"/>
	<path fill="#FF3A1E" d="M268.317,143.224c0,1.716-0.998,3.165-2.83,3.165c-1.831,0-2.828-1.449-2.828-3.165
		c0-1.72,0.998-3.169,2.828-3.169C267.32,140.055,268.317,141.504,268.317,143.224z M263.39,143.224
		c0,1.276,0.696,2.549,2.097,2.549s2.098-1.272,2.098-2.549s-0.697-2.553-2.098-2.553S263.39,141.948,263.39,143.224z"/>
	<path fill="#FF3A1E" d="M271.054,140.232h0.776l1.53,5.126h0.023l1.46-5.126h0.822l1.463,5.126h0.022l1.529-5.126h0.777
		l-1.924,5.984h-0.8l-1.474-5.035h-0.022l-1.462,5.035h-0.798L271.054,140.232z"/>
	<path fill="#FF3A1E" d="M282.194,137.933h0.731v8.283h-0.731V137.933z"/>
	<path fill="#FF3A1E" d="M286.395,143.421c0.011,1.066,0.568,2.352,1.97,2.352c1.067,0,1.646-0.623,1.879-1.53h0.728
		c-0.311,1.357-1.098,2.146-2.606,2.146c-1.899,0-2.699-1.462-2.699-3.165c0-1.578,0.8-3.169,2.699-3.169
		c1.926,0,2.69,1.683,2.633,3.366H286.395z M290.266,142.805c-0.036-1.104-0.719-2.134-1.901-2.134c-1.194,0-1.854,1.043-1.97,2.134
		H290.266z"/>
	<path fill="#FF3A1E" d="M299.255,146.216h-0.673v-1.136h-0.023c-0.313,0.773-1.264,1.309-2.135,1.309
		c-1.818,0-2.688-1.474-2.688-3.165c0-1.695,0.869-3.169,2.688-3.169c0.894,0,1.764,0.453,2.077,1.312h0.023v-3.434h0.73V146.216z
		 M296.424,145.773c1.556,0,2.101-1.308,2.101-2.549c0-1.243-0.545-2.553-2.101-2.553c-1.389,0-1.958,1.31-1.958,2.553
		C294.466,144.465,295.035,145.773,296.424,145.773z"/>
	<path fill="#FF3A1E" d="M307.347,145.729c-0.01,1.784-0.695,2.876-2.654,2.876c-1.193,0-2.376-0.532-2.479-1.808h0.729
		c0.163,0.881,0.94,1.191,1.751,1.191c1.345,0,1.925-0.798,1.925-2.26v-0.813h-0.022c-0.336,0.732-1.045,1.231-1.902,1.231
		c-1.912,0-2.699-1.368-2.699-3.075c0-1.646,0.973-3.017,2.699-3.017c0.87,0,1.61,0.547,1.902,1.207h0.022v-1.03h0.729V145.729z
		 M306.617,143.152c0-1.171-0.544-2.48-1.925-2.48c-1.391,0-1.971,1.241-1.971,2.48c0,1.207,0.627,2.379,1.971,2.379
		C305.957,145.531,306.617,144.372,306.617,143.152z"/>
	<path fill="#FF3A1E" d="M310.814,143.421c0.012,1.066,0.569,2.352,1.971,2.352c1.069,0,1.647-0.623,1.879-1.53h0.729
		c-0.313,1.357-1.1,2.146-2.608,2.146c-1.899,0-2.699-1.462-2.699-3.165c0-1.578,0.8-3.169,2.699-3.169
		c1.925,0,2.69,1.683,2.632,3.366H310.814z M314.687,142.805c-0.034-1.104-0.719-2.134-1.901-2.134
		c-1.194,0-1.853,1.043-1.971,2.134H314.687z"/>
	<path d="M320.897,146.216v-1.229h0.974v1.229H320.897z"/>
	<path fill="#3A5DAE" d="M328.138,143.491c-0.034,1.703,1.195,2.226,2.701,2.226c0.871,0,2.192-0.475,2.192-1.683
		c0-0.938-0.939-1.31-1.705-1.495l-1.843-0.453c-0.975-0.242-1.867-0.706-1.867-1.995c0-0.812,0.521-2.33,2.853-2.33
		c1.636,0,3.071,0.881,3.06,2.574h-0.788c-0.046-1.267-1.091-1.901-2.26-1.901c-1.079,0-2.075,0.418-2.075,1.646
		c0,0.777,0.579,1.102,1.252,1.265l2.018,0.499c1.169,0.314,2.144,0.821,2.144,2.182c0,0.569-0.231,2.364-3.164,2.364
		c-1.958,0-3.396-0.881-3.303-2.898H328.138z"/>
	<path fill="#3A5DAE" d="M336.555,137.933h0.73v5.199l3.315-2.9h0.974l-2.55,2.215l2.725,3.77h-0.916l-2.365-3.259l-1.183,0.983
		v2.275h-0.73V137.933z"/>
	<path fill="#3A5DAE" d="M344.485,137.933h0.73v1.172h-0.73V137.933z M344.485,140.232h0.73v5.984h-0.73V140.232z"/>
	<path fill="#3A5DAE" d="M347.953,137.933h0.733v8.283h-0.733V137.933z"/>
	<path fill="#3A5DAE" d="M351.424,137.933h0.731v8.283h-0.731V137.933z"/>
	<path fill="#3A5DAE" d="M358.811,141.981c-0.036-0.903-0.733-1.31-1.566-1.31c-0.647,0-1.413,0.254-1.413,1.03
		c0,0.65,0.741,0.883,1.239,1.01l0.975,0.223c0.834,0.126,1.704,0.613,1.704,1.66c0,1.295-1.287,1.795-2.4,1.795
		c-1.391,0-2.341-0.647-2.457-2.109h0.732c0.057,0.986,0.786,1.493,1.761,1.493c0.683,0,1.634-0.302,1.634-1.135
		c0-0.697-0.649-0.927-1.312-1.091l-0.936-0.211c-0.952-0.254-1.671-0.575-1.671-1.599c0-1.217,1.192-1.683,2.248-1.683
		c1.194,0,2.145,0.628,2.19,1.926H358.811z"/>
	<path fill="#3A5DAE" d="M157.601,137.933h0.787v5.976c0,1.679-0.625,2.48-2.41,2.48c-1.901,0-2.32-1.393-2.307-2.83h0.788
		c0.024,0.708-0.047,2.157,1.589,2.157c1.227,0,1.553-0.625,1.553-2.146V137.933z"/>
	<path fill="#3A5DAE" d="M165.982,146.216h-0.671v-1.079h-0.025c-0.382,0.802-1.169,1.252-2.063,1.252
		c-1.506,0-2.096-0.881-2.096-2.273v-3.884h0.729v3.894c0.036,1.081,0.441,1.647,1.601,1.647c1.251,0,1.796-1.179,1.796-2.399
		v-3.142h0.729V146.216z"/>
	<path fill="#3A5DAE" d="M172.637,141.981c-0.032-0.903-0.728-1.31-1.563-1.31c-0.649,0-1.415,0.254-1.415,1.03
		c0,0.65,0.744,0.883,1.241,1.01l0.972,0.223c0.837,0.126,1.704,0.613,1.704,1.66c0,1.295-1.283,1.795-2.397,1.795
		c-1.39,0-2.34-0.647-2.457-2.109h0.731c0.057,0.986,0.787,1.493,1.76,1.493c0.687,0,1.636-0.302,1.636-1.135
		c0-0.697-0.648-0.927-1.311-1.091l-0.939-0.211c-0.95-0.254-1.667-0.575-1.667-1.599c0-1.217,1.193-1.683,2.247-1.683
		c1.194,0,2.145,0.628,2.191,1.926H172.637z"/>
	<path fill="#3A5DAE" d="M178.089,140.232h1.217v0.612h-1.217v4.039c0,0.475,0.069,0.754,0.591,0.785
		c0.209,0,0.418-0.012,0.626-0.031v0.623c-0.22,0-0.429,0.024-0.649,0.024c-0.974,0-1.311-0.326-1.299-1.345v-4.096h-1.043v-0.612
		h1.043v-1.799h0.73V140.232z"/>
	<path fill="#3A5DAE" d="M182.044,137.933h0.731v1.172h-0.731V137.933z M182.044,140.232h0.731v5.984h-0.731V140.232z"/>
	<path fill="#3A5DAE" d="M186.533,140.844h-1.021v-0.612h1.021v-0.548c-0.01-1.03,0.278-1.751,1.449-1.751
		c0.208,0,0.383,0.013,0.614,0.048v0.625c-0.197-0.034-0.36-0.057-0.533-0.057c-0.813,0-0.789,0.51-0.8,1.16v0.522h1.182v0.612
		h-1.182v5.372h-0.731V140.844z"/>
	<path fill="#3A5DAE" d="M199.322,142.108c-0.197-0.893-0.745-1.437-1.692-1.437c-1.403,0-2.099,1.276-2.099,2.553
		s0.696,2.549,2.099,2.549c0.904,0,1.645-0.704,1.738-1.703h0.73c-0.2,1.438-1.136,2.319-2.468,2.319
		c-1.833,0-2.831-1.449-2.831-3.165c0-1.72,0.998-3.169,2.831-3.169c1.274,0,2.26,0.685,2.421,2.053H199.322z"/>
	<path fill="#3A5DAE" d="M203.092,142.064c0.068-1.405,1.056-2.009,2.422-2.009c1.057,0,2.202,0.326,2.202,1.926v3.18
		c0,0.278,0.14,0.439,0.429,0.439c0.082,0,0.176-0.023,0.232-0.044v0.612c-0.162,0.035-0.278,0.048-0.476,0.048
		c-0.741,0-0.858-0.419-0.858-1.044h-0.021c-0.51,0.777-1.031,1.217-2.18,1.217c-1.102,0-2.005-0.544-2.005-1.751
		c0-1.681,1.634-1.741,3.212-1.927c0.602-0.066,0.938-0.147,0.938-0.812c0-0.983-0.709-1.229-1.565-1.229
		c-0.904,0-1.577,0.415-1.601,1.393H203.092z M206.987,142.943h-0.024c-0.093,0.177-0.417,0.233-0.614,0.269
		c-1.242,0.223-2.781,0.21-2.781,1.383c0,0.729,0.648,1.179,1.332,1.179c1.113,0,2.096-0.704,2.087-1.877V142.943z"/>
	<path fill="#3A5DAE" d="M212.888,140.232h1.218v0.612h-1.218v4.039c0,0.475,0.07,0.754,0.592,0.785
		c0.208,0,0.417-0.012,0.626-0.031v0.623c-0.223,0-0.429,0.024-0.648,0.024c-0.976,0-1.312-0.326-1.299-1.345v-4.096h-1.043v-0.612
		h1.043v-1.799h0.729V140.232z"/>
	<path fill="#3A5DAE" d="M216.843,137.933h0.732v1.172h-0.732V137.933z M216.843,140.232h0.732v5.984h-0.732V140.232z"/>
	<path fill="#3A5DAE" d="M225.969,143.224c0,1.716-0.997,3.165-2.829,3.165c-1.831,0-2.83-1.449-2.83-3.165
		c0-1.72,0.999-3.169,2.83-3.169C224.972,140.055,225.969,141.504,225.969,143.224z M221.042,143.224
		c0,1.276,0.696,2.549,2.098,2.549c1.403,0,2.098-1.272,2.098-2.549s-0.695-2.553-2.098-2.553
		C221.738,140.671,221.042,141.948,221.042,143.224z"/>
	<path fill="#3A5DAE" d="M228.708,140.232h0.729v1.03h0.022c0.268-0.72,1.067-1.207,1.914-1.207c1.682,0,2.193,0.883,2.193,2.311
		v3.851h-0.733v-3.737c0-1.031-0.336-1.808-1.518-1.808c-1.159,0-1.855,0.881-1.877,2.053v3.492h-0.729V140.232z"/>
	<rect x="191.332" y="137.933" fill="#3A5DAE" width="0.732" height="1.172"/>
	<rect x="191.332" y="140.232" fill="#3A5DAE" width="0.732" height="5.984"/>
	<path d="M365.172,11.943c-2.99,0-5.423-2.435-5.423-5.423c0-2.989,2.433-5.424,5.423-5.424c2.989,0,5.424,2.435,5.424,5.424
		C370.596,9.508,368.161,11.943,365.172,11.943z M365.172,1.321c-2.865,0-5.198,2.332-5.198,5.199c0,2.866,2.333,5.198,5.198,5.198
		c2.866,0,5.198-2.332,5.198-5.198C370.37,3.653,368.038,1.321,365.172,1.321z"/>
	<path d="M363.292,4.005h2.098c0.881,0,1.592,0.323,1.592,1.294c0,0.679-0.408,1.178-1.077,1.293v0.011
		c0.747,0.086,0.93,0.556,0.978,1.08c0.051,0.519-0.033,1.084,0.17,1.351h-0.344c-0.191-0.345-0.077-0.922-0.135-1.409
		c-0.063-0.487-0.303-0.881-1.184-0.881h-1.789v2.29h-0.309V4.005z M365.39,6.477c0.732,0,1.282-0.346,1.282-1.156
		c0-0.759-0.605-1.049-1.282-1.049h-1.789v2.205H365.39z"/>
	<path fill="#3A5DAE" d="M322.871,46.651c-4.792,0-8.677-3.886-8.677-8.679c0-4.791,3.885-8.675,8.677-8.675
		c4.793,0,8.679,3.884,8.679,8.675h28.199c0-20.364-16.51-36.876-36.878-36.876c-4.111,0-8.063,0.684-11.757,1.927L288.4,51.072
		c5.284,13.898,18.719,23.778,34.471,23.778v0.002c4.793,0,8.679,3.882,8.679,8.675c0,4.791-3.886,8.679-8.679,8.679
		c-4.792,0-8.677-3.888-8.677-8.679l0,0h-19.604l16.523,34.952c3.693,1.243,7.646,1.928,11.757,1.928
		c20.368,0,36.878-16.513,36.878-36.88C359.749,63.161,343.239,46.651,322.871,46.651z"/>
	<path fill="#2A313B" d="M1.294,279.97l0.669-0.779c0.777,0.887,2.043,1.754,3.779,1.754c2.459,0,3.165-1.373,3.165-2.404
		c0-3.543-7.233-1.699-7.233-5.912c0-1.971,1.772-3.219,3.96-3.219c1.79,0,3.165,0.633,4.086,1.699l-0.687,0.76
		c-0.868-1.049-2.098-1.52-3.454-1.52c-1.609,0-2.821,0.924-2.821,2.225c0,3.092,7.233,1.393,7.233,5.895
		c0,1.555-1.031,3.418-4.286,3.418C3.717,281.886,2.216,281.072,1.294,279.97z"/>
	<path fill="#2A313B" d="M13.369,277.041v-7.432h1.049v7.412c0,2.441,1.284,3.924,3.652,3.924s3.652-1.482,3.652-3.924v-7.412h1.049
		v7.432c0,2.982-1.591,4.846-4.701,4.846C14.979,281.886,13.369,280.005,13.369,277.041z"/>
	<path fill="#2A313B" d="M33.744,281.669l-3.381-4.99h-2.658v4.99h-1.03v-12.061h4.502c2.08,0,3.671,1.32,3.671,3.525
		c0,2.188-1.537,3.4-3.345,3.473l3.49,5.063H33.744z M33.762,273.134c0-1.52-1.067-2.586-2.676-2.586h-3.382v5.189h3.382
		C32.695,275.738,33.762,274.654,33.762,273.134z"/>
	<path fill="#2A313B" d="M38.315,281.669v-12.061h7.648v0.939h-6.618v4.467h6.491v0.939h-6.491v5.715H38.315z"/>
	<path fill="#2A313B" d="M57.154,281.669l-1.193-2.967h-6.383l-1.193,2.967h-1.193l4.936-12.061h1.284l4.936,12.061H57.154z
		 M52.778,270.712l-2.857,7.051h5.696L52.778,270.712z"/>
	<path fill="#2A313B" d="M59.863,275.648c0-3.707,2.694-6.238,6.111-6.238c1.917,0,3.381,0.85,4.394,2.133l-0.868,0.561
		c-0.759-1.049-2.08-1.754-3.526-1.754c-2.821,0-5.026,2.152-5.026,5.299c0,3.109,2.206,5.297,5.026,5.297
		c1.446,0,2.767-0.705,3.526-1.754l0.886,0.543c-1.085,1.32-2.495,2.152-4.412,2.152C62.557,281.886,59.863,279.355,59.863,275.648z
		"/>
	<path fill="#2A313B" d="M73.349,281.669v-12.061h7.648v0.939h-6.618v4.467h6.491v0.939h-6.491v4.773h6.618v0.941H73.349z"/>
	<path fill="#2A313B" d="M93.107,281.669v-11.121h-3.942v-0.939h8.933v0.939h-3.942v11.121H93.107z"/>
	<path fill="#2A313B" d="M108.202,281.669l-3.381-4.99h-2.658v4.99h-1.031v-12.061h4.502c2.08,0,3.671,1.32,3.671,3.525
		c0,2.188-1.537,3.4-3.345,3.473l3.49,5.063H108.202z M108.221,273.134c0-1.52-1.067-2.586-2.676-2.586h-3.381v5.189h3.381
		C107.154,275.738,108.221,274.654,108.221,273.134z"/>
	<path fill="#2A313B" d="M112.774,281.669v-12.061h7.648v0.939h-6.618v4.467h6.491v0.939h-6.491v4.773h6.618v0.941H112.774z"/>
	<path fill="#2A313B" d="M132.606,281.669l-1.193-2.967h-6.383l-1.193,2.967h-1.193l4.937-12.061h1.284l4.936,12.061H132.606z
		 M128.231,270.712l-2.857,7.051h5.696L128.231,270.712z"/>
	<path fill="#2A313B" d="M138.3,281.669v-11.121h-3.942v-0.939h8.933v0.939h-3.942v11.121H138.3z"/>
	<path fill="#2A313B" d="M156.559,281.669v-10.76l-4.394,10.76h-0.397l-4.412-10.76v10.76h-1.031v-12.061h1.537l4.104,10.035
		l4.086-10.035h1.555v12.061H156.559z"/>
	<path fill="#2A313B" d="M161.51,281.669v-12.061h7.648v0.939h-6.618v4.467h6.491v0.939h-6.491v4.773h6.618v0.941H161.51z"/>
	<path fill="#2A313B" d="M181.233,281.669l-7.594-10.361v10.361h-1.031v-12.061h1.049l7.559,10.215v-10.215h1.03v12.061H181.233z"/>
	<path fill="#2A313B" d="M189.222,281.669v-11.121h-3.942v-0.939h8.933v0.939h-3.942v11.121H189.222z"/>
	<path fill="#2A313B" d="M205.907,281.669v-11.121h-3.942v-0.939h8.933v0.939h-3.942v11.121H205.907z"/>
	<path fill="#2A313B" d="M213.932,281.669v-12.061h7.649v0.939h-6.618v4.467h6.491v0.939h-6.491v4.773h6.618v0.941H213.932z"/>
	<path fill="#2A313B" d="M224.58,275.648c0-3.707,2.694-6.238,6.112-6.238c1.917,0,3.381,0.85,4.394,2.133l-0.868,0.561
		c-0.759-1.049-2.079-1.754-3.525-1.754c-2.821,0-5.027,2.152-5.027,5.299c0,3.109,2.206,5.297,5.027,5.297
		c1.446,0,2.766-0.705,3.525-1.754l0.886,0.543c-1.085,1.32-2.495,2.152-4.412,2.152C227.273,281.886,224.58,279.355,224.58,275.648
		z"/>
	<path fill="#2A313B" d="M246.744,281.669v-5.732h-7.648v5.732h-1.031v-12.061h1.031v5.389h7.648v-5.389h1.03v12.061H246.744z"/>
	<path fill="#2A313B" d="M260.302,281.669l-7.595-10.361v10.361h-1.03v-12.061h1.049l7.558,10.215v-10.215h1.031v12.061H260.302z"/>
	<path fill="#2A313B" d="M264.764,275.648c0-3.525,2.314-6.238,5.859-6.238c3.525,0,5.858,2.713,5.858,6.238
		s-2.333,6.238-5.858,6.238C267.079,281.886,264.764,279.173,264.764,275.648z M275.396,275.648c0-3.057-1.881-5.299-4.773-5.299
		c-2.912,0-4.774,2.242-4.774,5.299c0,3.037,1.862,5.297,4.774,5.297C273.516,280.945,275.396,278.685,275.396,275.648z"/>
	<path fill="#2A313B" d="M279.678,281.669v-12.061h1.049v11.119h5.84v0.941H279.678z"/>
	<path fill="#2A313B" d="M288.463,275.648c0-3.525,2.314-6.238,5.858-6.238c3.526,0,5.858,2.713,5.858,6.238
		s-2.332,6.238-5.858,6.238C290.777,281.886,288.463,279.173,288.463,275.648z M299.095,275.648c0-3.057-1.88-5.299-4.773-5.299
		c-2.911,0-4.773,2.242-4.773,5.299c0,3.037,1.862,5.297,4.773,5.297C297.215,280.945,299.095,278.685,299.095,275.648z"/>
	<path fill="#2A313B" d="M303.178,275.648c0-3.725,2.712-6.238,6.111-6.238c1.989,0,3.436,0.795,4.539,2.061l-0.778,0.561
		c-0.85-1.012-2.224-1.682-3.761-1.682c-2.82,0-5.026,2.152-5.026,5.299c0,3.109,2.206,5.316,5.026,5.316
		c1.609,0,2.894-0.797,3.544-1.465v-2.893h-4.557v-0.924h5.588v4.213c-1.067,1.193-2.676,2.008-4.575,2.008
		C305.89,281.904,303.178,279.373,303.178,275.648z"/>
	<path fill="#2A313B" d="M320.858,281.669v-5.154l-4.792-6.906h1.248l4.068,5.93l4.068-5.93h1.247l-4.791,6.906v5.154H320.858z"/>
	<path fill="#2A313B" d="M334.288,279.97l0.669-0.779c0.777,0.887,2.044,1.754,3.779,1.754c2.459,0,3.164-1.373,3.164-2.404
		c0-3.543-7.232-1.699-7.232-5.912c0-1.971,1.772-3.219,3.96-3.219c1.79,0,3.164,0.633,4.086,1.699l-0.687,0.76
		c-0.868-1.049-2.098-1.52-3.454-1.52c-1.609,0-2.82,0.924-2.82,2.225c0,3.092,7.232,1.393,7.232,5.895
		c0,1.555-1.03,3.418-4.285,3.418C336.711,281.886,335.21,281.072,334.288,279.97z"/>
	<path fill="#2A313B" d="M345.911,275.648c0-3.525,2.314-6.238,5.859-6.238c3.525,0,5.858,2.713,5.858,6.238
		s-2.333,6.238-5.858,6.238C348.226,281.886,345.911,279.173,345.911,275.648z M356.544,275.648c0-3.057-1.881-5.299-4.773-5.299
		c-2.911,0-4.773,2.242-4.773,5.299c0,3.037,1.862,5.297,4.773,5.297C354.663,280.945,356.544,278.685,356.544,275.648z"/>
	<path fill="#2A313B" d="M360.825,281.669v-12.061h1.049v11.119h5.84v0.941H360.825z"/>
	<path fill="#2A313B" d="M370.207,277.041v-7.432h1.049v7.412c0,2.441,1.284,3.924,3.652,3.924c2.369,0,3.652-1.482,3.652-3.924
		v-7.412h1.049v7.432c0,2.982-1.591,4.846-4.701,4.846C371.816,281.886,370.207,280.005,370.207,277.041z"/>
	<path fill="#2A313B" d="M386.586,281.669v-11.121h-3.942v-0.939h8.933v0.939h-3.941v11.121H386.586z"/>
	<path fill="#2A313B" d="M394.61,281.669v-12.061h1.031v12.061H394.61z"/>
	<path fill="#2A313B" d="M399.094,275.648c0-3.525,2.314-6.238,5.858-6.238c3.526,0,5.858,2.713,5.858,6.238
		s-2.332,6.238-5.858,6.238C401.408,281.886,399.094,279.173,399.094,275.648z M409.726,275.648c0-3.057-1.88-5.299-4.773-5.299
		c-2.911,0-4.773,2.242-4.773,5.299c0,3.037,1.862,5.297,4.773,5.297C407.846,280.945,409.726,278.685,409.726,275.648z"/>
	<path fill="#2A313B" d="M422.886,281.669l-7.595-10.361v10.361h-1.03v-12.061h1.049l7.558,10.215v-10.215h1.03v12.061H422.886z"/>
	<path fill="#2A313B" d="M427.131,279.97l0.669-0.779c0.777,0.887,2.043,1.754,3.779,1.754c2.459,0,3.164-1.373,3.164-2.404
		c0-3.543-7.232-1.699-7.232-5.912c0-1.971,1.771-3.219,3.96-3.219c1.79,0,3.164,0.633,4.086,1.699l-0.687,0.76
		c-0.868-1.049-2.098-1.52-3.454-1.52c-1.609,0-2.82,0.924-2.82,2.225c0,3.092,7.232,1.393,7.232,5.895
		c0,1.555-1.03,3.418-4.285,3.418C429.554,281.886,428.053,281.072,427.131,279.97z"/>
	<path fill="#2A313B" d="M444.792,281.669v-12.061h4.521c2.314,0,3.635,1.627,3.635,3.525s-1.339,3.525-3.635,3.525h-3.489v5.01
		H444.792z M451.862,273.134c0-1.52-1.049-2.586-2.658-2.586h-3.381v5.172h3.381C450.813,275.72,451.862,274.634,451.862,273.134z"
		/>
	<path fill="#2A313B" d="M463.323,281.669l-1.193-2.967h-6.383l-1.193,2.967h-1.193l4.937-12.061h1.283l4.937,12.061H463.323z
		 M458.947,270.712l-2.856,7.051h5.695L458.947,270.712z"/>
	<path fill="#2A313B" d="M474.259,281.669l-3.381-4.99h-2.658v4.99h-1.03v-12.061h4.502c2.08,0,3.671,1.32,3.671,3.525
		c0,2.188-1.537,3.4-3.345,3.473l3.489,5.063H474.259z M474.277,273.134c0-1.52-1.066-2.586-2.676-2.586h-3.382v5.189h3.382
		C473.211,275.738,474.277,274.654,474.277,273.134z"/>
	<path fill="#2A313B" d="M481.724,281.669v-11.121h-3.941v-0.939h8.933v0.939h-3.942v11.121H481.724z"/>
	<path fill="#2A313B" d="M498.374,281.669l-7.594-10.361v10.361h-1.031v-12.061h1.049l7.559,10.215v-10.215h1.03v12.061H498.374z"/>
	<path fill="#2A313B" d="M503.289,281.669v-12.061h7.648v0.939h-6.618v4.467h6.491v0.939h-6.491v4.773h6.618v0.941H503.289z"/>
	<path fill="#2A313B" d="M521.458,281.669l-3.381-4.99h-2.658v4.99h-1.031v-12.061h4.503c2.079,0,3.671,1.32,3.671,3.525
		c0,2.188-1.537,3.4-3.346,3.473l3.49,5.063H521.458z M521.477,273.134c0-1.52-1.067-2.586-2.677-2.586h-3.381v5.189h3.381
		C520.409,275.738,521.477,274.654,521.477,273.134z"/>
</g>
</svg>
