<?xml version="1.0" encoding="utf-8"?>
<!-- Generator: Adobe Illustrator 16.0.0, SVG Export Plug-In . SVG Version: 6.00 Build 0)  -->
<!DOCTYPE svg PUBLIC "-//W3C//DTD SVG 1.1//EN" "http://www.w3.org/Graphics/SVG/1.1/DTD/svg11.dtd">
<svg version="1.1" id="Layer_1" xmlns="http://www.w3.org/2000/svg" xmlns:xlink="http://www.w3.org/1999/xlink" x="0px" y="0px"
	 width="945.396px" height="171.71px" viewBox="0 0 945.396 171.71" enable-background="new 0 0 945.396 171.71"
	 xml:space="preserve">
<g>
	<g>
		<polygon fill="#09D8D6" points="303.227,84.887 303.227,25.203 292.375,25.203 292.375,84.887 292.375,95.74 303.227,95.74 
			351.517,95.74 351.517,84.887 		"/>
		<polyline fill="#09D8D6" points="451.149,95.74 462.001,95.74 483.705,36.055 510.834,95.74 521.685,95.74 489.13,25.203 
			478.278,25.203 		"/>
		<polygon fill="#09D8D6" points="601.538,25.203 601.538,84.887 558.132,25.203 552.705,25.203 541.854,25.203 541.854,95.74 
			552.705,95.74 552.705,36.055 596.111,95.74 601.538,95.74 612.39,95.74 612.39,25.203 		"/>
		<polygon fill="#2A313B" points="707.936,25.203 698.667,25.203 692.402,25.203 670.247,51.317 648.091,25.203 641.827,25.203 
			632.56,25.203 662.364,60.609 632.56,95.74 642.293,95.74 648.557,95.74 670.247,69.973 691.938,95.74 698.201,95.74 
			707.936,95.74 678.13,60.609 		"/>
		<polygon fill="#2A313B" points="893.469,83.128 893.469,24.125 883.166,24.125 883.166,83.801 883.166,94.367 894.349,94.367 
			942.17,94.367 942.17,83.128 		"/>
		<g>
			<g>
				<rect x="804" y="23.581" fill="#2A313B" width="59" height="11"/>
				<polygon fill="#2A313B" points="816,83.581 816,64.581 848,64.581 848,52.581 815.405,52.581 804,52.581 804,64.418 804,84.185 
					804,93.581 815.405,93.581 863,93.581 863,83.581 				"/>
			</g>
		</g>
		<path fill="#2A313B" d="M771.805,73.763c-4.245,6.556-11.226,10.444-19.123,10.444c-12.945,0-23.438-10.861-23.438-24.347
			c0-13.484,10.493-24.534,23.438-24.534c8.346,0,15.67,4.72,19.821,11.274h11.434c-5.102-13.11-17.174-21.552-31.255-21.552
			c-18.698,0-33.854,15.869-33.854,35.346c0,19.478,15.156,35.171,33.854,35.171c14.081,0,26.153-8.693,31.255-21.803H771.805z"/>
		<g>
			<rect x="371" y="24.581" fill="#09D8D6" width="59" height="11"/>
			<polygon fill="#09D8D6" points="384,65.581 414,65.581 414,54.581 382.979,54.581 371,54.581 371,65.226 371,84.992 371,95.581 
				382.979,95.581 430,95.581 430,85.581 384,85.581 			"/>
		</g>
		<g>
			<path fill="#09D8D6" d="M260.074,71.915c-4.245,6.235-11.226,10.308-19.124,10.308c-12.943,0-23.437-10.93-23.437-24.414
				c0-13.485,10.493-24.418,23.437-24.418c8.348,0,15.671,4.55,19.823,11.396h11.433c-5.102-12.745-17.173-21.705-31.256-21.705
				c-18.696,0-33.854,15.791-33.854,35.268c0,19.479,15.157,35.268,33.854,35.268c14.083,0,26.154-8.958,31.256-21.703H260.074z"/>
			<path fill="#2A313B" d="M216.513,141.652v-17.859h-6.33v-1.51h14.345v1.51h-6.33v17.859H216.513z"/>
			<path fill="#2A313B" d="M236.699,131.982c0-5.662,3.717-10.018,9.408-10.018c5.662,0,9.408,4.355,9.408,10.018
				S251.77,142,246.107,142C240.416,142,236.699,137.645,236.699,131.982z M253.773,131.982c0-4.908-3.021-8.508-7.666-8.508
				c-4.675,0-7.666,3.6-7.666,8.508c0,4.879,2.991,8.508,7.666,8.508C250.753,140.49,253.773,136.861,253.773,131.982z"/>
			<path fill="#2A313B" d="M284.182,141.652l-4.646-16.639l-4.646,16.639h-1.858l-5.546-19.369h1.858l4.675,17.045l4.762-17.045
				h1.51l4.733,17.045l4.675-17.045h1.858l-5.517,19.369H284.182z"/>
			<path fill="#2A313B" d="M317.436,141.652l-1.916-4.762h-10.25l-1.917,4.762h-1.917l7.927-19.369h2.062l7.927,19.369H317.436z
				 M310.409,124.055l-4.588,11.324h9.147L310.409,124.055z"/>
			<path fill="#2A313B" d="M343.864,141.652l-5.43-8.016h-4.269v8.016h-1.655v-19.369h7.23c3.34,0,5.895,2.121,5.895,5.662
				c0,3.514-2.468,5.459-5.371,5.576l5.604,8.131H343.864z M343.894,127.945c0-2.438-1.713-4.152-4.297-4.152h-5.431v8.334h5.431
				C342.181,132.127,343.894,130.385,343.894,127.945z"/>
			<path fill="#2A313B" d="M360.073,141.652v-19.369h6.185c6.011,0,9.786,4.385,9.786,9.699c0,5.371-3.775,9.67-9.786,9.67H360.073z
				 M374.302,131.982c0-4.529-2.904-8.189-8.044-8.189h-4.53v16.35h4.53C371.368,140.143,374.302,136.512,374.302,131.982z"/>
			<path fill="#2A313B" d="M389.406,138.922l1.074-1.248c1.249,1.422,3.281,2.816,6.069,2.816c3.948,0,5.081-2.207,5.081-3.861
				c0-5.691-11.615-2.73-11.615-9.496c0-3.164,2.846-5.168,6.359-5.168c2.875,0,5.081,1.016,6.563,2.729l-1.104,1.221
				c-1.394-1.686-3.368-2.439-5.546-2.439c-2.584,0-4.53,1.48-4.53,3.572c0,4.965,11.615,2.234,11.615,9.465
				c0,2.498-1.655,5.488-6.882,5.488C393.297,142,390.887,140.693,389.406,138.922z"/>
			<path fill="#2A313B" d="M434.771,131.982c0-5.662,3.717-10.018,9.408-10.018c5.662,0,9.408,4.355,9.408,10.018
				S449.841,142,444.179,142C438.487,142,434.771,137.645,434.771,131.982z M451.845,131.982c0-4.908-3.02-8.508-7.666-8.508
				c-4.675,0-7.666,3.6-7.666,8.508c0,4.879,2.991,8.508,7.666,8.508C448.825,140.49,451.845,136.861,451.845,131.982z"/>
			<path fill="#2A313B" d="M467.995,141.652v-19.369h7.26c3.717,0,5.836,2.613,5.836,5.662s-2.148,5.664-5.836,5.664h-5.604v8.043
				H467.995z M479.349,127.945c0-2.438-1.684-4.152-4.268-4.152h-5.431v8.305h5.431
				C477.665,132.098,479.349,130.355,479.349,127.945z"/>
			<path fill="#2A313B" d="M494.89,141.652v-19.369h12.282v1.51h-10.628v7.174h10.425v1.51h-10.425v7.666h10.628v1.51H494.89z"/>
			<path fill="#2A313B" d="M532.933,141.652l-5.43-8.016h-4.269v8.016h-1.655v-19.369h7.23c3.34,0,5.895,2.121,5.895,5.662
				c0,3.514-2.468,5.459-5.371,5.576l5.604,8.131H532.933z M532.962,127.945c0-2.438-1.713-4.152-4.297-4.152h-5.431v8.334h5.431
				C531.249,132.127,532.962,130.385,532.962,127.945z"/>
			<path fill="#2A313B" d="M563.166,141.652l-1.916-4.762h-10.251l-1.916,4.762h-1.916l7.927-19.369h2.062l7.928,19.369H563.166z
				 M556.14,124.055l-4.588,11.324h9.146L556.14,124.055z"/>
			<path fill="#2A313B" d="M581.175,141.652v-17.859h-6.33v-1.51h14.344v1.51h-6.33v17.859H581.175z"/>
			<path fill="#2A313B" d="M602.929,141.652v-19.369h1.655v19.369H602.929z"/>
			<path fill="#2A313B" d="M618.989,131.982c0-5.662,3.717-10.018,9.408-10.018c5.662,0,9.408,4.355,9.408,10.018
				S634.06,142,628.397,142C622.706,142,618.989,137.645,618.989,131.982z M636.063,131.982c0-4.908-3.02-8.508-7.666-8.508
				c-4.675,0-7.666,3.6-7.666,8.508c0,4.879,2.991,8.508,7.666,8.508C633.044,140.49,636.063,136.861,636.063,131.982z"/>
			<path fill="#2A313B" d="M666.065,141.652l-12.196-16.639v16.639h-1.655v-19.369h1.685l12.138,16.406v-16.406h1.654v19.369
				H666.065z"/>
			<path fill="#2A313B" d="M700.657,141.652v-19.369h12.283v1.51h-10.628v7.174h10.425v1.51h-10.425v7.666h10.628v1.51H700.657z"/>
			<path fill="#2A313B" d="M727.348,141.652v-19.369h12.282v1.51h-10.627v7.174h10.424v1.51h-10.424v9.176H727.348z"/>
			<path fill="#2A313B" d="M753.399,141.652v-19.369h12.282v1.51h-10.628v7.174h10.425v1.51h-10.425v9.176H753.399z"/>
			<path fill="#2A313B" d="M779.45,141.652v-19.369h1.655v19.369H779.45z"/>
			<path fill="#2A313B" d="M795.511,131.982c0-5.953,4.326-10.018,9.814-10.018c3.078,0,5.431,1.365,7.057,3.426l-1.395,0.9
				c-1.219-1.684-3.339-2.816-5.662-2.816c-4.529,0-8.072,3.455-8.072,8.508c0,4.994,3.543,8.508,8.072,8.508
				c2.323,0,4.443-1.133,5.662-2.816l1.424,0.871c-1.742,2.119-4.008,3.455-7.086,3.455
				C799.837,142,795.511,137.936,795.511,131.982z"/>
			<path fill="#2A313B" d="M826.034,141.652v-19.369h1.655v19.369H826.034z"/>
			<path fill="#2A313B" d="M842.821,141.652v-19.369h12.283v1.51h-10.628v7.174h10.425v1.51h-10.425v7.666h10.628v1.51H842.821z"/>
			<path fill="#2A313B" d="M883.362,141.652l-12.195-16.639v16.639h-1.655v-19.369h1.684l12.138,16.406v-16.406h1.655v19.369
				H883.362z"/>
			<path fill="#2A313B" d="M899.396,131.982c0-5.953,4.327-10.018,9.814-10.018c3.078,0,5.431,1.365,7.057,3.426l-1.394,0.9
				c-1.22-1.684-3.34-2.816-5.663-2.816c-4.529,0-8.072,3.455-8.072,8.508c0,4.994,3.543,8.508,8.072,8.508
				c2.323,0,4.443-1.133,5.663-2.816l1.422,0.871c-1.742,2.119-4.007,3.455-7.085,3.455
				C903.724,142,899.396,137.936,899.396,131.982z"/>
			<path fill="#2A313B" d="M935.264,141.652v-8.275l-7.695-11.094h2.004l6.533,9.525l6.534-9.525h2.003l-7.694,11.094v8.275H935.264
				z"/>
		</g>
	</g>
	<path fill="#14A0C0" d="M119,16.314v0.267h0.641c11.936,10,19.604,24.99,19.604,41.84c0,30.145-24.195,54.53-54.25,54.905
		c14.856-0.375,26.811-12.59,26.813-27.539c0-9.003-4.316-17.023-11.01-22.035c0.002-0.008,0.008-0.019,0.008-0.019L43.439,21.062
		l0,0L119,16.314z"/>
	<path fill="#026491" d="M110.657,78.048c0.708,2.442,1.103,5.021,1.103,7.694c-0.003,14.949-11.938,27.115-26.795,27.488
		c30.055-0.371,54.293-24.846,54.293-54.99c0-5.219-0.729-10.267-2.087-15.049C140.568,83.866,117.34,99.922,110.657,78.048z"/>
	<path fill="#09D8D6" d="M138.258,58.241c0.002,30.379-24.624,55.003-54.999,55.005C52.88,113.244,28.255,88.62,28.254,58.241
		C28.255,28.342,52.117,4.014,81.837,3.261C36.93,4.018,0.753,40.653,0.753,85.743c0,45.564,36.937,82.501,82.503,82.505
		c45.567,0,82.5-36.941,82.504-82.505c0-45.09-36.175-81.725-81.083-82.483C114.398,4.013,138.26,28.342,138.258,58.241z"/>
	<polygon fill="#FF2F63" points="902.185,24.082 902.185,30.94 933.647,30.94 933.647,43.848 902.185,43.848 902.185,71.277 
		941.313,71.277 941.313,64.418 909.849,64.418 909.849,51.511 941.313,51.511 941.313,24.082 	"/>
	<g>
		<defs>
			<path id="SVGID_1_" d="M28.254,58.241c0.001,30.379,24.626,55.003,55.005,55.005c30.375-0.002,55.001-24.626,54.999-55.005
				c0.002-29.578-23.355-53.69-52.633-54.934c-0.789-0.022-1.574-0.06-2.369-0.06c-0.768,0-1.527,0.037-2.29,0.058
				C51.654,4.508,28.255,28.636,28.254,58.241z"/>
		</defs>
		<clipPath id="SVGID_2_">
			<use xlink:href="#SVGID_1_"  overflow="visible"/>
		</clipPath>
		<path clip-path="url(#SVGID_2_)" fill="#FF2F63" d="M144.035-68.408l-23.727,23.136l-72.75,61.491l0,0
			c0.003,0.002,0.003,0.002,0.003,0.002C35.622,26.315,28.045,41.39,28.044,58.241c0.001,30.142,24.242,54.619,54.291,54.996
			c-14.852-0.377-26.79-12.545-26.79-27.497c0.003-9,4.326-16.998,11.024-22.01c-0.007-0.006-0.007-0.006-0.007-0.006l56.961-42.717
			l0,0l26.857-20.134C159.373-3.653,148.789-72.324,144.035-68.408z"/>
	</g>
	<path fill="#B32145" d="M56.565,78.048c-0.708,2.442-1.103,5.021-1.103,7.694c0.003,14.949,11.938,27.115,26.795,27.488
		c-30.054-0.371-54.293-24.846-54.293-54.99c0-5.219,0.729-10.267,2.087-15.049C26.654,83.866,49.883,99.922,56.565,78.048z"/>
	<path fill="#09CDCB" d="M139.875,25.529c7.829,12.616,12.362,27.492,12.362,43.434c0,45.563-36.937,82.5-82.5,82.5
		c-21.688,0-41.411-8.383-56.137-22.068c14.551,23.445,40.514,39.068,70.137,39.068c45.563,0,82.5-36.938,82.5-82.5
		C166.237,62.087,156.085,40.593,139.875,25.529z"/>
</g>
</svg>
