<?xml version="1.0" encoding="utf-8"?>
<!-- Generator: Adobe Illustrator 16.0.0, SVG Export Plug-In . SVG Version: 6.00 Build 0)  -->
<!DOCTYPE svg PUBLIC "-//W3C//DTD SVG 1.1//EN" "http://www.w3.org/Graphics/SVG/1.1/DTD/svg11.dtd">
<svg version="1.1" id="Layer_1" xmlns="http://www.w3.org/2000/svg" xmlns:xlink="http://www.w3.org/1999/xlink" x="0px" y="0px"
	 width="627.551px" height="178.571px" viewBox="0 0 627.551 178.571" enable-background="new 0 0 627.551 178.571"
	 xml:space="preserve">
<g>
	<g>
		<polygon fill="#95A1A3" points="206.503,78.03 206.503,42.307 200.007,42.307 200.007,78.03 200.007,84.527 206.503,84.527 
			235.406,84.527 235.406,78.03 		"/>
		<polyline fill="#95A1A3" points="295.041,84.527 301.536,84.527 314.526,48.803 330.765,84.527 337.258,84.527 317.773,42.307 
			311.278,42.307 		"/>
		<polygon fill="#95A1A3" points="385.055,42.307 385.055,78.03 359.075,42.307 355.827,42.307 349.331,42.307 349.331,84.527 
			355.827,84.527 355.827,48.803 381.807,84.527 385.055,84.527 391.549,84.527 391.549,42.307 		"/>
		<polygon fill="#626666" points="448.739,42.307 443.19,42.307 439.442,42.307 426.18,57.937 412.918,42.307 409.168,42.307 
			403.622,42.307 421.461,63.5 403.622,84.527 409.448,84.527 413.198,84.527 426.18,69.104 439.163,84.527 442.913,84.527 
			448.739,84.527 430.899,63.5 		"/>
		<polygon fill="#626666" points="559.788,76.978 559.788,41.662 553.622,41.662 553.622,77.38 553.622,83.705 560.315,83.705 
			588.938,83.705 588.938,76.978 		"/>
		<g>
			<rect x="506.237" y="41.336" fill="#626666" width="35.314" height="6.584"/>
			<polygon fill="#626666" points="513.42,77.249 513.42,65.876 532.573,65.876 532.573,58.694 513.063,58.694 506.237,58.694 
				506.237,65.779 506.237,77.611 506.237,83.235 513.063,83.235 541.551,83.235 541.551,77.249 			"/>
		</g>
		<path fill="#626666" d="M486.967,71.373c-2.541,3.923-6.721,6.25-11.445,6.25c-7.75,0-14.029-6.501-14.029-14.573
			c0-8.07,6.279-14.684,14.029-14.684c4.994,0,9.379,2.825,11.863,6.748h6.842c-3.053-7.847-10.279-12.9-18.705-12.9
			c-11.191,0-20.264,9.499-20.264,21.156c0,11.658,9.072,21.051,20.264,21.051c8.426,0,15.652-5.202,18.705-13.05h-7.26V71.373z"/>
		<g>
			<rect x="247.067" y="41.935" fill="#95A1A3" width="35.314" height="6.584"/>
			<polygon fill="#95A1A3" points="254.849,66.475 272.805,66.475 272.805,59.891 254.237,59.891 247.067,59.891 247.067,66.263 
				247.067,78.094 247.067,84.432 254.237,84.432 282.382,84.432 282.382,78.446 254.849,78.446 			"/>
		</g>
		<g>
			<path fill="#95A1A3" d="M180.674,70.267c-2.541,3.732-6.72,6.169-11.446,6.169c-7.747,0-14.028-6.542-14.028-14.613
				c0-8.071,6.28-14.615,14.028-14.615c4.996,0,9.38,2.723,11.864,6.821h6.844c-3.054-7.629-10.279-12.992-18.708-12.992
				c-11.19,0-20.264,9.452-20.264,21.109c0,11.659,9.072,21.11,20.264,21.11c8.429,0,15.654-5.362,18.708-12.991H180.674z"/>
			<path fill="#95A1A3" d="M154.601,112.007v-10.689h-3.789v-0.904h8.586v0.904h-3.788v10.689H154.601z"/>
			<path fill="#95A1A3" d="M166.683,106.219c0-3.39,2.225-5.996,5.631-5.996c3.39,0,5.632,2.606,5.632,5.996
				s-2.242,5.996-5.632,5.996C168.907,112.215,166.683,109.609,166.683,106.219z M176.902,106.219c0-2.938-1.809-5.093-4.589-5.093
				c-2.798,0-4.588,2.155-4.588,5.093c0,2.921,1.79,5.093,4.588,5.093C175.095,111.312,176.902,109.14,176.902,106.219z"/>
			<path fill="#95A1A3" d="M195.104,112.007l-2.781-9.959l-2.78,9.959h-1.112l-3.319-11.594h1.111l2.799,10.203l2.851-10.203h0.903
				l2.833,10.203l2.798-10.203h1.112l-3.302,11.594H195.104z"/>
			<path fill="#95A1A3" d="M215.008,112.007l-1.147-2.85h-6.135l-1.147,2.85h-1.147l4.745-11.594h1.233l4.745,11.594H215.008z
				 M210.802,101.474l-2.747,6.778h5.476L210.802,101.474z"/>
			<path fill="#95A1A3" d="M230.826,112.007l-3.251-4.798h-2.555v4.798h-0.991v-11.594h4.328c1.999,0,3.528,1.27,3.528,3.389
				c0,2.104-1.478,3.268-3.215,3.338l3.354,4.867H230.826z M230.844,103.802c0-1.459-1.025-2.484-2.572-2.484h-3.25v4.988h3.25
				C229.818,106.306,230.844,105.263,230.844,103.802z"/>
			<path fill="#95A1A3" d="M240.527,112.007v-11.594h3.702c3.598,0,5.857,2.625,5.857,5.806c0,3.215-2.26,5.788-5.857,5.788H240.527
				z M249.044,106.219c0-2.711-1.738-4.901-4.814-4.901h-2.712v9.785h2.712C247.288,111.103,249.044,108.93,249.044,106.219z"/>
			<path fill="#95A1A3" d="M258.085,110.373l0.643-0.746c0.747,0.851,1.964,1.686,3.632,1.686c2.363,0,3.042-1.321,3.042-2.312
				c0-3.407-6.952-1.634-6.952-5.685c0-1.893,1.703-3.093,3.806-3.093c1.722,0,3.042,0.608,3.929,1.634l-0.661,0.731
				c-0.834-1.011-2.016-1.46-3.319-1.46c-1.547,0-2.712,0.886-2.712,2.139c0,2.971,6.952,1.336,6.952,5.664
				c0,1.496-0.99,3.285-4.118,3.285C260.413,112.215,258.971,111.433,258.085,110.373z"/>
			<path fill="#95A1A3" d="M285.237,106.219c0-3.39,2.226-5.996,5.631-5.996c3.39,0,5.632,2.606,5.632,5.996
				s-2.242,5.996-5.632,5.996C287.462,112.215,285.237,109.609,285.237,106.219z M295.457,106.219c0-2.938-1.808-5.093-4.589-5.093
				c-2.798,0-4.588,2.155-4.588,5.093c0,2.921,1.79,5.093,4.588,5.093C293.649,111.312,295.457,109.14,295.457,106.219z"/>
			<path fill="#95A1A3" d="M305.124,112.007v-11.594h4.345c2.225,0,3.492,1.564,3.492,3.389c0,1.826-1.284,3.391-3.492,3.391h-3.354
				v4.814H305.124z M311.919,103.802c0-1.459-1.008-2.484-2.555-2.484h-3.25v4.971h3.25
				C310.911,106.289,311.919,105.246,311.919,103.802z"/>
			<path fill="#95A1A3" d="M321.221,112.007v-11.594h7.352v0.904h-6.361v4.293h6.24v0.904h-6.24v4.588h6.361v0.904H321.221
				L321.221,112.007z"/>
			<path fill="#95A1A3" d="M343.991,112.007l-3.25-4.798h-2.555v4.798h-0.99v-11.594h4.328c1.998,0,3.527,1.27,3.527,3.389
				c0,2.104-1.477,3.268-3.215,3.338l3.354,4.867H343.991z M344.008,103.802c0-1.459-1.025-2.484-2.572-2.484h-3.25v4.988h3.25
				C342.983,106.306,344.008,105.263,344.008,103.802z"/>
			<path fill="#95A1A3" d="M362.088,112.007l-1.148-2.85h-6.135l-1.146,2.85h-1.148l4.746-11.594h1.234l4.744,11.594H362.088z
				 M357.881,101.474l-2.746,6.778h5.475L357.881,101.474z"/>
			<path fill="#95A1A3" d="M372.866,112.007v-10.689h-3.789v-0.904h8.586v0.904h-3.787v10.689H372.866z"/>
			<path fill="#95A1A3" d="M385.887,112.007v-11.594h0.99v11.594H385.887z"/>
			<path fill="#95A1A3" d="M395.5,106.219c0-3.39,2.225-5.996,5.631-5.996c3.389,0,5.631,2.606,5.631,5.996
				s-2.242,5.996-5.631,5.996C397.725,112.215,395.5,109.609,395.5,106.219z M405.719,106.219c0-2.938-1.807-5.093-4.588-5.093
				c-2.799,0-4.588,2.155-4.588,5.093c0,2.921,1.789,5.093,4.588,5.093C403.913,111.312,405.719,109.14,405.719,106.219z"/>
			<path fill="#95A1A3" d="M423.676,112.007l-7.299-9.959v9.959h-0.992v-11.594h1.01l7.266,9.82v-9.82h0.988v11.594H423.676z"/>
			<path fill="#95A1A3" d="M444.381,112.007v-11.594h7.352v0.904h-6.361v4.293h6.24v0.904h-6.24v4.588h6.361v0.904H444.381
				L444.381,112.007z"/>
			<path fill="#95A1A3" d="M460.358,112.007v-11.594h7.352v0.904h-6.361v4.293h6.238v0.904h-6.238v5.492H460.358L460.358,112.007z"
				/>
			<path fill="#95A1A3" d="M475.95,112.007v-11.594h7.352v0.904h-6.361v4.293h6.24v0.904h-6.24v5.492H475.95L475.95,112.007z"/>
			<path fill="#95A1A3" d="M491.543,112.007v-11.594h0.99v11.594H491.543z"/>
			<path fill="#95A1A3" d="M501.155,106.219c0-3.563,2.59-5.996,5.875-5.996c1.842,0,3.252,0.817,4.225,2.051l-0.836,0.538
				c-0.729-1.008-1.998-1.686-3.389-1.686c-2.711,0-4.832,2.068-4.832,5.093c0,2.989,2.121,5.093,4.832,5.093
				c1.391,0,2.66-0.678,3.389-1.686l0.854,0.521c-1.043,1.268-2.4,2.067-4.242,2.067
				C503.745,112.215,501.155,109.783,501.155,106.219z"/>
			<path fill="#95A1A3" d="M519.426,112.007v-11.594h0.988v11.594H519.426z"/>
			<path fill="#95A1A3" d="M529.473,112.007v-11.594h7.352v0.904h-6.361v4.293h6.24v0.904h-6.24v4.588h6.361v0.904H529.473
				L529.473,112.007z"/>
			<path fill="#95A1A3" d="M553.739,112.007l-7.299-9.959v9.959h-0.99v-11.594h1.008l7.266,9.82v-9.82h0.99v11.594H553.739z"/>
			<path fill="#95A1A3" d="M563.334,106.219c0-3.563,2.592-5.996,5.875-5.996c1.842,0,3.252,0.817,4.225,2.051l-0.834,0.538
				c-0.73-1.008-2-1.686-3.391-1.686c-2.711,0-4.832,2.068-4.832,5.093c0,2.989,2.121,5.093,4.832,5.093
				c1.391,0,2.66-0.678,3.391-1.686l0.852,0.521c-1.043,1.268-2.4,2.067-4.242,2.067
				C565.926,112.215,563.334,109.783,563.334,106.219z"/>
			<path fill="#95A1A3" d="M584.805,112.007v-4.953l-4.607-6.641h1.201l3.91,5.701l3.91-5.701h1.199l-4.605,6.641v4.953H584.805z"/>
		</g>
	</g>
	<path fill="#95A1A3" d="M96.234,36.987v0.16h0.384c7.145,5.985,11.734,14.958,11.734,25.043c0,18.043-14.482,32.638-32.471,32.863
		c8.892-0.225,16.047-7.535,16.048-16.483c0-5.389-2.583-10.189-6.59-13.189c0.001-0.005,0.005-0.012,0.005-0.012l-34.337-25.54l0,0
		L96.234,36.987z"/>
	<path fill="#626666" d="M91.241,73.937c0.424,1.462,0.66,3.005,0.66,4.605c-0.001,8.948-7.145,16.229-16.038,16.453
		c17.989-0.223,32.497-14.872,32.497-32.914c0-3.124-0.437-6.146-1.249-9.008C109.144,77.419,95.241,87.03,91.241,73.937z"/>
	<path fill="#BAC6C6" d="M107.761,62.082c0.001,18.184-14.739,32.921-32.919,32.923c-18.183-0.002-32.922-14.74-32.923-32.923
		c0.001-17.896,14.283-32.458,32.072-32.908c-26.878,0.453-48.532,22.381-48.532,49.369c0,27.272,22.108,49.38,49.382,49.382
		c27.274,0,49.379-22.11,49.382-49.382c0-26.988-21.652-48.916-48.532-49.37C93.48,29.624,107.763,44.186,107.761,62.082z"/>
	<polygon fill="#FF2F63" points="565.004,41.636 565.004,45.741 583.836,45.741 583.836,53.467 565.004,53.467 565.004,69.885 
		588.424,69.885 588.424,65.779 569.592,65.779 569.592,58.054 588.424,58.054 588.424,41.636 	"/>
	<g>
		<g>
			<defs>
				<path id="SVGID_1_" d="M41.919,62.082c0.001,18.184,14.74,32.921,32.923,32.923c18.181-0.002,32.921-14.74,32.919-32.923
					c0.001-17.704-13.979-32.136-31.503-32.88c-0.472-0.013-0.942-0.036-1.418-0.036c-0.46,0-0.914,0.022-1.371,0.035
					C55.925,29.92,41.92,44.362,41.919,62.082z"/>
			</defs>
			<clipPath id="SVGID_2_">
				<use xlink:href="#SVGID_1_"  overflow="visible"/>
			</clipPath>
			<path clip-path="url(#SVGID_2_)" fill="#FF2F63" d="M111.219-13.723L97.018,0.125L53.474,36.93l0,0
				c0.001,0.001,0.001,0.001,0.001,0.001c-7.146,6.042-11.681,15.065-11.682,25.151c0,18.041,14.51,32.691,32.496,32.917
				c-8.89-0.227-16.035-7.509-16.035-16.458c0.002-5.387,2.589-10.174,6.598-13.174c-0.004-0.003-0.004-0.003-0.004-0.003
				l34.094-25.569l0,0l16.075-12.051C120.399,25.036,114.064-16.067,111.219-13.723z"/>
		</g>
	</g>
	<path fill="#B32145" d="M58.864,73.937c-0.424,1.462-0.66,3.005-0.66,4.605c0.002,8.948,7.146,16.229,16.038,16.453
		c-17.988-0.223-32.497-14.872-32.497-32.914c0-3.124,0.436-6.146,1.249-9.008C40.961,77.419,54.865,87.03,58.864,73.937z"/>
	<path fill="#989B9B" d="M108.729,42.502c4.686,7.552,7.399,16.456,7.399,25.998c0,27.271-22.108,49.38-49.38,49.38
		c-12.981,0-24.786-5.018-33.601-13.209c8.709,14.033,24.25,23.384,41.98,23.384c27.271,0,49.38-22.108,49.38-49.379
		C124.508,64.384,118.432,51.519,108.729,42.502z"/>
</g>
<g>
	<path fill="#FF2F63" d="M149.591,143.885v-12.75h1.799v12.719c0,4.188,2.203,6.731,6.266,6.731c4.064,0,6.267-2.543,6.267-6.731
		v-12.719h1.799v12.75c0,5.118-2.729,8.313-8.065,8.313C152.352,152.199,149.591,148.973,149.591,143.885z"/>
	<path fill="#FF2F63" d="M191.878,151.827l-13.029-17.775v17.775h-1.768v-20.691h1.799l12.967,17.527v-17.527h1.768v20.691H191.878z
		"/>
	<path fill="#FF2F63" d="M204.975,151.827v-20.691h6.607c6.421,0,10.454,4.685,10.454,10.361c0,5.739-4.033,10.33-10.454,10.33
		H204.975z M220.175,141.497c0-4.839-3.102-8.748-8.593-8.748h-4.839v17.465h4.839C217.042,150.213,220.175,146.335,220.175,141.497
		z"/>
	<path fill="#FF2F63" d="M232.651,151.827v-20.691h13.122v1.613h-11.354v7.662h11.137v1.613h-11.137v8.189h11.354v1.613H232.651z"/>
	<path fill="#FF2F63" d="M268.486,151.827l-5.801-8.562h-4.56v8.562h-1.768v-20.691h7.724c3.567,0,6.297,2.265,6.297,6.05
		c0,3.753-2.637,5.832-5.739,5.956l5.987,8.686H268.486z M268.517,137.185c0-2.606-1.83-4.437-4.591-4.437h-5.801v8.903h5.801
		C266.687,141.652,268.517,139.791,268.517,137.185z"/>
	<path fill="#FF2F63" d="M294.458,141.497c0-6.359,4.622-10.702,10.485-10.702c3.289,0,5.801,1.458,7.538,3.66l-1.489,0.962
		c-1.303-1.799-3.567-3.009-6.049-3.009c-4.839,0-8.624,3.691-8.624,9.089c0,5.336,3.785,9.089,8.624,9.089
		c2.482,0,4.747-1.209,6.049-3.009l1.52,0.931c-1.861,2.265-4.281,3.691-7.569,3.691
		C299.08,152.199,294.458,147.856,294.458,141.497z"/>
	<path fill="#FF2F63" d="M321.483,141.497c0-6.049,3.971-10.702,10.051-10.702c6.049,0,10.051,4.653,10.051,10.702
		s-4.002,10.702-10.051,10.702C325.454,152.199,321.483,147.545,321.483,141.497z M339.724,141.497c0-5.242-3.227-9.089-8.19-9.089
		c-4.995,0-8.189,3.847-8.189,9.089c0,5.212,3.195,9.089,8.189,9.089C336.498,150.585,339.724,146.708,339.724,141.497z"/>
	<path fill="#FF2F63" d="M366.966,151.827l-13.029-17.775v17.775h-1.768v-20.691h1.799l12.967,17.527v-17.527h1.769v20.691H366.966z
		"/>
	<path fill="#FF2F63" d="M378.915,148.911l1.148-1.334c1.333,1.521,3.505,3.009,6.483,3.009c4.219,0,5.429-2.357,5.429-4.125
		c0-6.081-12.409-2.916-12.409-10.145c0-3.381,3.04-5.521,6.794-5.521c3.071,0,5.429,1.086,7.011,2.916l-1.179,1.303
		c-1.489-1.799-3.599-2.605-5.925-2.605c-2.761,0-4.84,1.582-4.84,3.815c0,5.305,12.408,2.389,12.408,10.112
		c0,2.668-1.768,5.863-7.352,5.863C383.072,152.199,380.497,150.803,378.915,148.911z"/>
	<path fill="#FF2F63" d="M409.476,151.827v-19.078h-6.763v-1.613h15.324v1.613h-6.763v19.078H409.476z"/>
	<path fill="#FF2F63" d="M440.037,151.827l-5.801-8.562h-4.561v8.562h-1.768v-20.691h7.724c3.567,0,6.298,2.265,6.298,6.05
		c0,3.753-2.637,5.832-5.739,5.956l5.987,8.686H440.037z M440.068,137.185c0-2.606-1.831-4.437-4.592-4.437h-5.801v8.903h5.801
		C438.237,141.652,440.068,139.791,440.068,137.185z"/>
	<path fill="#FF2F63" d="M452.544,143.885v-12.75h1.799v12.719c0,4.188,2.202,6.731,6.267,6.731c4.063,0,6.266-2.543,6.266-6.731
		v-12.719h1.8v12.75c0,5.118-2.73,8.313-8.065,8.313C455.305,152.199,452.544,148.973,452.544,143.885z"/>
	<path fill="#FF2F63" d="M479.258,141.497c0-6.359,4.622-10.702,10.485-10.702c3.288,0,5.801,1.458,7.538,3.66l-1.489,0.962
		c-1.303-1.799-3.567-3.009-6.049-3.009c-4.839,0-8.624,3.691-8.624,9.089c0,5.336,3.785,9.089,8.624,9.089
		c2.481,0,4.746-1.209,6.049-3.009l1.521,0.931c-1.861,2.265-4.281,3.691-7.569,3.691
		C483.88,152.199,479.258,147.856,479.258,141.497z"/>
	<path fill="#FF2F63" d="M512.333,151.827v-19.078h-6.763v-1.613h15.324v1.613h-6.763v19.078H512.333z"/>
	<path fill="#FF2F63" d="M530.764,151.827v-20.691h1.768v20.691H530.764z"/>
	<path fill="#FF2F63" d="M543.113,141.497c0-6.049,3.971-10.702,10.051-10.702c6.05,0,10.052,4.653,10.052,10.702
		s-4.002,10.702-10.052,10.702C547.083,152.199,543.113,147.545,543.113,141.497z M561.354,141.497c0-5.242-3.227-9.089-8.19-9.089
		c-4.994,0-8.189,3.847-8.189,9.089c0,5.212,3.195,9.089,8.189,9.089C558.127,150.585,561.354,146.708,561.354,141.497z"/>
	<path fill="#FF2F63" d="M588.596,151.827l-13.029-17.775v17.775h-1.768v-20.691h1.799l12.967,17.527v-17.527h1.769v20.691H588.596z
		"/>
</g>
</svg>
