<?xml version="1.0" encoding="utf-8"?>
<!-- Generator: Adobe Illustrator 16.0.0, SVG Export Plug-In . SVG Version: 6.00 Build 0)  -->
<!DOCTYPE svg PUBLIC "-//W3C//DTD SVG 1.1//EN" "http://www.w3.org/Graphics/SVG/1.1/DTD/svg11.dtd">
<svg version="1.1" id="Layer_1" xmlns="http://www.w3.org/2000/svg" xmlns:xlink="http://www.w3.org/1999/xlink" x="0px" y="0px"
	 width="60px" height="60px" viewBox="0 0 60 60" enable-background="new 0 0 60 60" xml:space="preserve">
<g>
	<g>
		<path fill="none" stroke="#09D8D6" stroke-miterlimit="10" d="M54.249,26.773l-2.897-0.556c-1.705-0.325-3.102-1.487-3.734-3.106
			c-0.639-1.613-0.404-3.413,0.627-4.814l1.818-2.481c0.271-0.367,0.23-0.878-0.095-1.203l-3.925-3.93
			c-0.316-0.312-0.809-0.356-1.175-0.108l-2.441,1.65c-1.439,0.977-3.246,1.143-4.838,0.448c-1.593-0.692-2.699-2.134-2.966-3.847
			l-0.467-3.043C34.085,5.334,33.7,5,33.239,5h-5.553c-0.442,0-0.826,0.316-0.912,0.75l-0.721,3.745
			c-0.319,1.668-1.446,3.052-3.015,3.698c-1.569,0.652-3.346,0.47-4.751-0.479l-3.156-2.139c-0.366-0.248-0.858-0.203-1.171,0.113
			l-3.929,3.925c-0.325,0.325-0.363,0.836-0.095,1.203l1.817,2.481c1.03,1.401,1.261,3.202,0.627,4.82
			c-0.632,1.614-2.028,2.776-3.735,3.101L5.75,26.779C5.316,26.86,5,27.245,5,27.688v5.551c0,0.457,0.334,0.846,0.787,0.918
			l3.038,0.466c1.718,0.267,3.155,1.369,3.848,2.966c0.695,1.591,0.528,3.399-0.443,4.838l-1.655,2.441
			c-0.248,0.366-0.203,0.858,0.112,1.175l3.925,3.93c0.326,0.32,0.837,0.361,1.203,0.092l2.482-1.819
			c1.401-1.024,3.201-1.265,4.814-0.628c1.619,0.633,2.781,2.029,3.106,3.734l0.557,2.898c0.086,0.439,0.47,0.75,0.912,0.75h5.553
			c0.461,0,0.851-0.334,0.917-0.782l0.326-2.139c0.271-1.759,1.411-3.21,3.052-3.888c1.642-0.679,3.471-0.457,4.905,0.592
			l1.746,1.281c0.366,0.27,0.877,0.229,1.202-0.096l3.925-3.926c0.316-0.316,0.361-0.809,0.113-1.175l-1.655-2.441
			c-0.973-1.438-1.14-3.247-0.443-4.838c0.691-1.597,2.13-2.704,3.847-2.966l3.039-0.466C54.665,34.085,55,33.696,55,33.239v-5.551
			C55,27.245,54.687,26.86,54.249,26.773L54.249,26.773z M53.15,32.448"/>
		<path fill="none" stroke="#09D8D6" stroke-miterlimit="10" d="M30.463,20.743c-5.361,0-9.72,4.358-9.72,9.72
			c0,5.363,4.358,9.72,9.72,9.72c5.362,0,9.721-4.357,9.721-9.72C40.184,25.101,35.825,20.743,30.463,20.743L30.463,20.743z
			 M30.463,38.335"/>
	</g>
</g>
</svg>
