<?xml version="1.0" encoding="utf-8"?>
<!-- Generator: Adobe Illustrator 16.0.0, SVG Export Plug-In . SVG Version: 6.00 Build 0)  -->
<!DOCTYPE svg PUBLIC "-//W3C//DTD SVG 1.1//EN" "http://www.w3.org/Graphics/SVG/1.1/DTD/svg11.dtd">
<svg version="1.1" id="Layer_1" xmlns="http://www.w3.org/2000/svg" xmlns:xlink="http://www.w3.org/1999/xlink" x="0px" y="0px"
	 width="80px" height="80px" viewBox="0 0 80 80" enable-background="new 0 0 80 80" xml:space="preserve">
<g>
	<path fill="#14A0C0" d="M55.094,10.584v0.336h0.195c5.05,4.23,8.293,10.459,8.293,17.586c0,12.751-10.234,23.01-22.947,23.169
		C46.918,51.517,51.976,46.322,51.977,40c0-3.809-1.826-7.215-4.657-9.335c0.001-0.003,0.003-0.016,0.003-0.016L23.094,12.596l0,0
		L55.094,10.584z"/>
	<path fill="#026491" d="M51.49,36.698c0.299,1.033,0.466,2.124,0.466,3.254c-0.001,6.323-5.05,11.47-11.334,11.628
		c12.714-0.157,22.966-10.51,22.966-23.261c0-2.208-0.309-4.343-0.883-6.366C64.143,39.159,54.316,45.951,51.49,36.698z"/>
	<path fill="#09D8D6" d="M63.165,28.319C63.166,41.17,52.749,51.586,39.9,51.587C27.05,51.586,16.633,41.17,16.633,28.319
		c0-12.647,10.094-22.938,22.666-23.256C20.303,5.383,5,20.879,5,39.953c0,19.274,15.625,34.898,34.899,34.9
		c19.275,0,34.898-15.626,34.9-34.9c0-19.073-15.303-34.57-34.299-34.89C53.072,5.381,63.166,15.672,63.165,28.319z"/>
	<g>
		<g>
			<defs>
				<path id="SVGID_1_" d="M16.633,28.319c0,12.851,10.417,23.267,23.267,23.268c12.849-0.001,23.266-10.417,23.265-23.268
					c0.001-12.512-9.88-22.711-22.264-23.237c-0.333-0.009-0.666-0.025-1.002-0.025c-0.325,0-0.646,0.016-0.969,0.025
					C26.531,5.59,16.633,15.796,16.633,28.319z"/>
			</defs>
			<clipPath id="SVGID_2_">
				<use xlink:href="#SVGID_1_"  overflow="visible"/>
			</clipPath>
			<path clip-path="url(#SVGID_2_)" fill="#FF2F63" d="M65.608-25.253l-10.036,9.787L24.798,10.544l0,0
				c0.001,0.001,0.001,0.001,0.001,0.001c-5.05,4.27-8.256,10.646-8.256,17.774c0,12.751,10.254,23.104,22.965,23.264
				c-6.282-0.16-11.332-5.307-11.332-11.632c0.001-3.807,1.83-7.19,4.663-9.31c-0.003-0.002-0.003-0.002-0.003-0.002l24.095-18.069
				l0,0l11.361-8.517C72.097,2.138,67.619-26.91,65.608-25.253z"/>
		</g>
	</g>
	<path fill="#B32145" d="M28.609,36.698c-0.299,1.033-0.466,2.124-0.466,3.254c0.001,6.323,5.05,11.47,11.334,11.628
		c-12.713-0.157-22.966-10.51-22.966-23.261c0-2.208,0.308-4.343,0.883-6.366C15.956,39.159,25.782,45.951,28.609,36.698z"/>
	<path fill="#09CDCB" d="M63.85,14.482c3.311,5.337,5.229,11.629,5.229,18.373c0,19.273-15.625,34.898-34.898,34.898
		c-9.174,0-17.517-3.547-23.746-9.335c6.155,9.917,17.138,16.525,29.668,16.525C59.375,74.943,75,59.318,75,40.046
		C75,29.946,70.705,20.854,63.85,14.482z"/>
</g>
</svg>
