<?xml version="1.0" encoding="utf-8"?>
<!-- Generator: Adobe Illustrator 16.0.0, SVG Export Plug-In . SVG Version: 6.00 Build 0)  -->
<!DOCTYPE svg PUBLIC "-//W3C//DTD SVG 1.1//EN" "http://www.w3.org/Graphics/SVG/1.1/DTD/svg11.dtd">
<svg version="1.1" id="Layer_1" xmlns="http://www.w3.org/2000/svg" xmlns:xlink="http://www.w3.org/1999/xlink" x="0px" y="0px"
	 width="960px" height="169.724px" viewBox="0 0 960 169.724" enable-background="new 0 0 960 169.724" xml:space="preserve">
<g>
	<polygon fill="#09D8D6" points="305.261,83.894 305.261,24.209 294.409,24.209 294.409,83.894 294.409,94.747 305.261,94.747 
		353.551,94.747 353.551,83.894 	"/>
	<polyline fill="#09D8D6" points="453.184,94.747 464.035,94.747 485.739,35.062 512.868,94.747 523.719,94.747 491.164,24.209 
		480.313,24.209 	"/>
	<polygon fill="#09D8D6" points="603.572,24.209 603.572,83.894 560.166,24.209 554.739,24.209 543.889,24.209 543.889,94.747 
		554.739,94.747 554.739,35.062 598.146,94.747 603.572,94.747 614.424,94.747 614.424,24.209 	"/>
	<polygon fill="#2A313B" points="709.97,24.209 700.701,24.209 694.437,24.209 672.281,50.324 650.125,24.209 643.861,24.209 
		634.594,24.209 664.398,59.616 634.594,94.747 644.327,94.747 650.591,94.747 672.281,68.98 693.972,94.747 700.235,94.747 
		709.97,94.747 680.164,59.616 	"/>
	<polygon fill="#2A313B" points="895.503,82.135 895.503,23.131 885.2,23.131 885.2,82.808 885.2,93.374 896.383,93.374 
		944.204,93.374 944.204,82.135 	"/>
	<g>
		<g>
			<rect x="806.213" y="23.116" fill="#2A313B" width="59" height="11"/>
			<polygon fill="#2A313B" points="818.213,83.116 818.213,64.116 850.213,64.116 850.213,52.116 817.439,52.116 806.213,52.116 
				806.213,63.425 806.213,83.192 806.213,93.116 817.439,93.116 865.213,93.116 865.213,83.116 			"/>
		</g>
	</g>
	<path fill="#2A313B" d="M773.839,72.77c-4.245,6.556-11.226,10.444-19.123,10.444c-12.945,0-23.438-10.861-23.438-24.347
		c0-13.484,10.493-24.534,23.438-24.534c8.346,0,15.67,4.72,19.821,11.274h11.434c-5.102-13.11-17.174-21.552-31.255-21.552
		c-18.698,0-33.854,15.869-33.854,35.346c0,19.478,15.156,35.171,33.854,35.171c14.081,0,26.153-8.693,31.255-21.803H773.839z"/>
	<g>
		<rect x="373.213" y="24.116" fill="#09D8D6" width="59" height="11"/>
		<polygon fill="#09D8D6" points="386.213,65.116 416.213,65.116 416.213,54.116 385.014,54.116 373.213,54.116 373.213,64.233 
			373.213,83.999 373.213,95.116 385.014,95.116 432.213,95.116 432.213,85.116 386.213,85.116 		"/>
	</g>
	<g>
		<path fill="#09D8D6" d="M262.108,70.921c-4.245,6.235-11.226,10.308-19.124,10.308c-12.943,0-23.437-10.93-23.437-24.414
			c0-13.485,10.493-24.418,23.437-24.418c8.348,0,15.671,4.55,19.823,11.396h11.433c-5.102-12.745-17.173-21.705-31.256-21.705
			c-18.696,0-33.854,15.791-33.854,35.268c0,19.479,15.157,35.268,33.854,35.268c14.083,0,26.154-8.958,31.256-21.703H262.108z"/>
		<path fill="#2A313B" d="M218.334,140.659V122.8h-6.33v-1.51h14.345v1.51h-6.33v17.859H218.334z"/>
		<path fill="#2A313B" d="M238.521,130.989c0-5.662,3.717-10.018,9.408-10.018c5.662,0,9.408,4.355,9.408,10.018
			s-3.746,10.018-9.408,10.018C242.237,141.007,238.521,136.651,238.521,130.989z M255.595,130.989c0-4.908-3.021-8.508-7.666-8.508
			c-4.675,0-7.666,3.6-7.666,8.508c0,4.879,2.991,8.508,7.666,8.508C252.574,139.497,255.595,135.868,255.595,130.989z"/>
		<path fill="#2A313B" d="M286.003,140.659l-4.646-16.639l-4.646,16.639h-1.858l-5.546-19.369h1.858l4.675,17.045l4.762-17.045h1.51
			l4.733,17.045l4.675-17.045h1.858l-5.517,19.369H286.003z"/>
		<path fill="#2A313B" d="M319.257,140.659l-1.916-4.762h-10.25l-1.917,4.762h-1.917l7.927-19.369h2.062l7.927,19.369H319.257z
			 M312.23,123.062l-4.588,11.324h9.147L312.23,123.062z"/>
		<path fill="#2A313B" d="M345.686,140.659l-5.43-8.016h-4.269v8.016h-1.655V121.29h7.23c3.34,0,5.895,2.121,5.895,5.662
			c0,3.514-2.468,5.459-5.372,5.576l5.604,8.131H345.686z M345.715,126.952c0-2.438-1.713-4.152-4.297-4.152h-5.431v8.334h5.431
			C344.002,131.134,345.715,129.392,345.715,126.952z"/>
		<path fill="#2A313B" d="M361.895,140.659V121.29h6.185c6.011,0,9.786,4.385,9.786,9.699c0,5.371-3.775,9.67-9.786,9.67H361.895z
			 M376.123,130.989c0-4.529-2.904-8.189-8.043-8.189h-4.53v16.35h4.53C373.19,139.149,376.123,135.519,376.123,130.989z"/>
		<path fill="#2A313B" d="M391.228,137.929l1.074-1.248c1.249,1.422,3.281,2.816,6.069,2.816c3.949,0,5.082-2.207,5.082-3.861
			c0-5.691-11.615-2.73-11.615-9.496c0-3.164,2.846-5.168,6.359-5.168c2.875,0,5.082,1.016,6.563,2.729l-1.104,1.221
			c-1.394-1.686-3.368-2.439-5.546-2.439c-2.584,0-4.53,1.48-4.53,3.572c0,4.965,11.615,2.234,11.615,9.465
			c0,2.498-1.655,5.488-6.882,5.488C395.118,141.007,392.708,139.7,391.228,137.929z"/>
		<path fill="#2A313B" d="M436.592,130.989c0-5.662,3.717-10.018,9.408-10.018c5.662,0,9.408,4.355,9.408,10.018
			s-3.746,10.018-9.408,10.018C440.309,141.007,436.592,136.651,436.592,130.989z M453.666,130.989c0-4.908-3.02-8.508-7.666-8.508
			c-4.675,0-7.666,3.6-7.666,8.508c0,4.879,2.991,8.508,7.666,8.508C450.646,139.497,453.666,135.868,453.666,130.989z"/>
		<path fill="#2A313B" d="M469.816,140.659V121.29h7.26c3.717,0,5.836,2.613,5.836,5.662s-2.148,5.664-5.836,5.664h-5.604v8.043
			H469.816z M481.17,126.952c0-2.438-1.684-4.152-4.268-4.152h-5.43v8.305h5.43C479.486,131.104,481.17,129.362,481.17,126.952z"/>
		<path fill="#2A313B" d="M496.711,140.659V121.29h12.282v1.51h-10.628v7.174h10.425v1.51h-10.425v7.666h10.628v1.51H496.711z"/>
		<path fill="#2A313B" d="M534.754,140.659l-5.43-8.016h-4.269v8.016H523.4V121.29h7.23c3.34,0,5.895,2.121,5.895,5.662
			c0,3.514-2.468,5.459-5.371,5.576l5.604,8.131H534.754z M534.783,126.952c0-2.438-1.713-4.152-4.297-4.152h-5.431v8.334h5.431
			C533.07,131.134,534.783,129.392,534.783,126.952z"/>
		<path fill="#2A313B" d="M564.987,140.659l-1.916-4.762H552.82l-1.916,4.762h-1.916l7.927-19.369h2.062l7.928,19.369H564.987z
			 M557.961,123.062l-4.588,11.324h9.146L557.961,123.062z"/>
		<path fill="#2A313B" d="M582.996,140.659V122.8h-6.33v-1.51h14.344v1.51h-6.33v17.859H582.996z"/>
		<path fill="#2A313B" d="M604.75,140.659V121.29h1.655v19.369H604.75z"/>
		<path fill="#2A313B" d="M620.811,130.989c0-5.662,3.717-10.018,9.408-10.018c5.662,0,9.408,4.355,9.408,10.018
			s-3.746,10.018-9.408,10.018C624.527,141.007,620.811,136.651,620.811,130.989z M637.885,130.989c0-4.908-3.02-8.508-7.666-8.508
			c-4.675,0-7.666,3.6-7.666,8.508c0,4.879,2.991,8.508,7.666,8.508C634.865,139.497,637.885,135.868,637.885,130.989z"/>
		<path fill="#2A313B" d="M667.887,140.659l-12.196-16.639v16.639h-1.655V121.29h1.685l12.138,16.406V121.29h1.654v19.369H667.887z"
			/>
		<path fill="#2A313B" d="M702.479,140.659V121.29h12.283v1.51h-10.628v7.174h10.425v1.51h-10.425v7.666h10.628v1.51H702.479z"/>
		<path fill="#2A313B" d="M729.169,140.659V121.29h12.282v1.51h-10.627v7.174h10.424v1.51h-10.424v9.176H729.169z"/>
		<path fill="#2A313B" d="M755.221,140.659V121.29h12.282v1.51h-10.628v7.174H767.3v1.51h-10.425v9.176H755.221z"/>
		<path fill="#2A313B" d="M781.271,140.659V121.29h1.655v19.369H781.271z"/>
		<path fill="#2A313B" d="M797.332,130.989c0-5.953,4.326-10.018,9.814-10.018c3.078,0,5.431,1.365,7.057,3.426l-1.395,0.9
			c-1.219-1.684-3.339-2.816-5.662-2.816c-4.529,0-8.072,3.455-8.072,8.508c0,4.994,3.543,8.508,8.072,8.508
			c2.323,0,4.443-1.133,5.662-2.816l1.424,0.871c-1.742,2.119-4.008,3.455-7.086,3.455
			C801.658,141.007,797.332,136.942,797.332,130.989z"/>
		<path fill="#2A313B" d="M827.855,140.659V121.29h1.655v19.369H827.855z"/>
		<path fill="#2A313B" d="M844.643,140.659V121.29h12.283v1.51h-10.628v7.174h10.425v1.51h-10.425v7.666h10.628v1.51H844.643z"/>
		<path fill="#2A313B" d="M885.184,140.659l-12.195-16.639v16.639h-1.655V121.29h1.684l12.138,16.406V121.29h1.655v19.369H885.184z"
			/>
		<path fill="#2A313B" d="M901.218,130.989c0-5.953,4.327-10.018,9.814-10.018c3.078,0,5.431,1.365,7.057,3.426l-1.394,0.9
			c-1.22-1.684-3.34-2.816-5.663-2.816c-4.529,0-8.072,3.455-8.072,8.508c0,4.994,3.543,8.508,8.072,8.508
			c2.323,0,4.443-1.133,5.663-2.816l1.422,0.871c-1.742,2.119-4.007,3.455-7.085,3.455
			C905.545,141.007,901.218,136.942,901.218,130.989z"/>
		<path fill="#2A313B" d="M937.085,140.659v-8.275l-7.695-11.094h2.004l6.533,9.525l6.534-9.525h2.003l-7.694,11.094v8.275H937.085z
			"/>
	</g>
</g>
<path fill="#14A0C0" d="M121.213,15.321v0.795h0.462c11.936,10,19.604,24.726,19.604,41.575c0,30.145-24.195,54.398-54.25,54.773
	c14.856-0.375,26.811-12.656,26.813-27.604c0-9.003-4.316-17.057-11.01-22.068c0.002-0.008,0.008-0.036,0.008-0.036l-57.278-42.68
	l0,0L121.213,15.321z"/>
<path fill="#026491" d="M112.691,77.055c0.708,2.442,1.103,5.021,1.103,7.694c-0.003,14.949-11.938,27.115-26.795,27.488
	c30.055-0.371,54.293-24.846,54.293-54.99c0-5.219-0.729-10.267-2.087-15.049C142.603,82.873,119.374,98.929,112.691,77.055z"/>
<path fill="#09D8D6" d="M140.292,57.248c0.002,30.379-24.624,55.003-54.999,55.005c-30.379-0.002-55.004-24.626-55.005-55.005
	C30.289,27.349,54.151,3.021,83.871,2.268C38.964,3.025,2.787,39.66,2.787,84.75c0,45.564,36.937,82.501,82.503,82.505
	c45.567,0,82.5-36.941,82.504-82.505c0-45.09-36.175-81.725-81.083-82.483C116.433,3.02,140.294,27.349,140.292,57.248z"/>
<polygon fill="#FF2F63" points="904.219,23.088 904.219,29.947 935.682,29.947 935.682,42.855 904.219,42.855 904.219,70.284 
	943.347,70.284 943.347,63.425 911.883,63.425 911.883,50.518 943.347,50.518 943.347,23.088 "/>
<g>
	<defs>
		<path id="SVGID_1_" d="M30.288,57.248c0.001,30.379,24.626,55.003,55.005,55.005c30.375-0.002,55.001-24.626,54.999-55.005
			c0.002-29.578-23.355-53.69-52.633-54.934c-0.789-0.022-1.574-0.06-2.369-0.06c-0.768,0-1.527,0.037-2.29,0.058
			C53.688,3.515,30.289,27.643,30.288,57.248z"/>
	</defs>
	<clipPath id="SVGID_2_">
		<use xlink:href="#SVGID_1_"  overflow="visible"/>
	</clipPath>
	<path clip-path="url(#SVGID_2_)" fill="#FF2F63" d="M146.069-69.401l-23.727,23.136l-72.75,61.491l0,0
		c0.003,0.002,0.003,0.002,0.003,0.002c-11.939,10.094-19.517,25.169-19.518,42.02c0.001,30.142,24.242,54.619,54.291,54.996
		c-14.852-0.377-26.79-12.545-26.79-27.497c0.003-9,4.326-16.998,11.024-22.01c-0.007-0.006-0.007-0.006-0.007-0.006l56.961-42.717
		l0,0L152.415-0.12C161.407-4.646,150.823-73.317,146.069-69.401z"/>
</g>
<path fill="#B32145" d="M58.6,77.055c-0.708,2.442-1.103,5.021-1.103,7.694c0.003,14.949,11.938,27.115,26.795,27.488
	c-30.054-0.371-54.293-24.846-54.293-54.99c0-5.219,0.729-10.267,2.087-15.049C28.688,82.873,51.917,98.929,58.6,77.055z"/>
<path fill="#09CDCB" d="M141.909,24.536c7.829,12.616,12.362,27.492,12.362,43.434c0,45.563-36.937,82.5-82.5,82.5
	c-21.688,0-41.411-8.383-56.137-22.068c14.551,23.445,40.514,39.068,70.137,39.068c45.563,0,82.5-36.938,82.5-82.5
	C168.271,61.094,158.119,39.6,141.909,24.536z"/>
</svg>
