<?xml version="1.0" encoding="utf-8"?>
<!-- Generator: Adobe Illustrator 16.0.0, SVG Export Plug-In . SVG Version: 6.00 Build 0)  -->
<!DOCTYPE svg PUBLIC "-//W3C//DTD SVG 1.1//EN" "http://www.w3.org/Graphics/SVG/1.1/DTD/svg11.dtd">
<svg version="1.1" id="Layer_1" xmlns="http://www.w3.org/2000/svg" xmlns:xlink="http://www.w3.org/1999/xlink" x="0px" y="0px"
	 width="30px" height="30px" viewBox="0 0 30 30" enable-background="new 0 0 30 30" xml:space="preserve">
<polygon fill-rule="evenodd" clip-rule="evenodd" fill="#FF2F63" points="5,15 25,25 25,15 5,25 "/>
<path d="M25,25.25c-0.038,0-0.076-0.009-0.111-0.026L15,20.279l-9.889,4.944c-0.078,0.038-0.169,0.034-0.243-0.011
	C4.795,25.167,4.75,25.087,4.75,25V15c0-0.087,0.045-0.167,0.118-0.213c0.075-0.045,0.166-0.05,0.243-0.011L15,19.721l9.889-4.944
	c0.077-0.04,0.168-0.034,0.243,0.011c0.073,0.046,0.118,0.126,0.118,0.213v10c0,0.087-0.045,0.167-0.118,0.213
	C25.091,25.237,25.046,25.25,25,25.25z M15.559,20l9.191,4.596v-9.191L15.559,20z M5.25,15.404v9.191L14.441,20L5.25,15.404z"/>
<path d="M15,20.25c-0.138,0-0.25-0.112-0.25-0.25v-5c0-0.138,0.112-0.25,0.25-0.25s0.25,0.112,0.25,0.25v5
	C15.25,20.138,15.138,20.25,15,20.25z"/>
<circle fill-rule="evenodd" clip-rule="evenodd" fill="#FF2F63" cx="15" cy="10" r="5"/>
<path d="M15,15.25c-2.895,0-5.25-2.355-5.25-5.25S12.105,4.75,15,4.75s5.25,2.355,5.25,5.25S17.895,15.25,15,15.25z M15,5.25
	c-2.619,0-4.75,2.131-4.75,4.75s2.131,4.75,4.75,4.75s4.75-2.131,4.75-4.75S17.619,5.25,15,5.25z"/>
<g>
	<path d="M13.531,13.026V7.693h2.143c1.072,0,1.672,0.735,1.672,1.607c0,0.871-0.607,1.606-1.672,1.606h-1.479v2.119H13.531z
		 M16.658,9.3c0-0.6-0.432-1.016-1.064-1.016h-1.398v2.03h1.398C16.227,10.315,16.658,9.9,16.658,9.3z"/>
</g>
</svg>
