<?xml version="1.0" encoding="utf-8"?>
<!-- Generator: Adobe Illustrator 16.0.0, SVG Export Plug-In . SVG Version: 6.00 Build 0)  -->
<!DOCTYPE svg PUBLIC "-//W3C//DTD SVG 1.1//EN" "http://www.w3.org/Graphics/SVG/1.1/DTD/svg11.dtd">
<svg version="1.1" id="Layer_1" xmlns="http://www.w3.org/2000/svg" xmlns:xlink="http://www.w3.org/1999/xlink" x="0px" y="0px"
	 width="60px" height="60px" viewBox="0 0 60 60" enable-background="new 0 0 60 60" xml:space="preserve">
<circle fill-rule="evenodd" clip-rule="evenodd" fill="#FFFFFF" cx="30" cy="30" r="25"/>
<path d="M30,55.5C15.939,55.5,4.5,44.061,4.5,30S15.939,4.5,30,4.5S55.5,15.939,55.5,30S44.061,55.5,30,55.5z M30,5.5
	C16.491,5.5,5.5,16.49,5.5,30S16.491,54.5,30,54.5S54.5,43.51,54.5,30S43.509,5.5,30,5.5z"/>
<g>
	<path d="M27.123,37.002l-3.549-5.564h-2.813v5.564h-1.743V22.998h5.627c2.562,0,4.409,1.637,4.409,4.22
		c0,2.52-1.742,3.905-3.653,4.073l3.779,5.711H27.123z M27.249,27.218c0-1.596-1.155-2.667-2.813-2.667h-3.674v5.354h3.674
		C26.093,29.905,27.249,28.793,27.249,27.218z"/>
	<path d="M31.807,37.002V22.998h9.175v1.553H33.55v4.515h7.285v1.554H33.55v6.383H31.807z"/>
</g>
</svg>
