<?xml version="1.0" encoding="utf-8"?>
<!-- Generator: Adobe Illustrator 16.0.0, SVG Export Plug-In . SVG Version: 6.00 Build 0)  -->
<!DOCTYPE svg PUBLIC "-//W3C//DTD SVG 1.1//EN" "http://www.w3.org/Graphics/SVG/1.1/DTD/svg11.dtd">
<svg version="1.1" id="Layer_1" xmlns="http://www.w3.org/2000/svg" xmlns:xlink="http://www.w3.org/1999/xlink" x="0px" y="0px"
	 width="60px" height="60px" viewBox="0 0 60 60" enable-background="new 0 0 60 60" xml:space="preserve">
<circle fill-rule="evenodd" clip-rule="evenodd" fill="#FF2F63" stroke="#000000" stroke-width="2" stroke-miterlimit="10" cx="30" cy="30" r="25"/>
<g>
	<path fill="#FFFFFF" d="M27.123,37.002l-3.549-5.564h-2.813v5.564h-1.744V22.998h5.627c2.563,0,4.41,1.637,4.41,4.22
		c0,2.52-1.742,3.905-3.654,4.073l3.779,5.711H27.123z M27.248,27.218c0-1.596-1.154-2.667-2.813-2.667h-3.674v5.354h3.674
		C26.094,29.905,27.248,28.793,27.248,27.218z"/>
	<path fill="#FFFFFF" d="M31.807,37.002V22.998h9.176v1.553h-7.432v4.515h7.285v1.554h-7.285v6.383H31.807z"/>
</g>
</svg>
