<?xml version="1.0" encoding="utf-8"?>
<!-- Generator: Adobe Illustrator 16.0.0, SVG Export Plug-In . SVG Version: 6.00 Build 0)  -->
<!DOCTYPE svg PUBLIC "-//W3C//DTD SVG 1.1//EN" "http://www.w3.org/Graphics/SVG/1.1/DTD/svg11.dtd">
<svg version="1.1" id="Layer_1" xmlns="http://www.w3.org/2000/svg" xmlns:xlink="http://www.w3.org/1999/xlink" x="0px" y="0px"
	 width="60px" height="60px" viewBox="0 0 60 60" enable-background="new 0 0 60 60" xml:space="preserve">
<circle fill-rule="evenodd" clip-rule="evenodd" fill="#FFFFFF" cx="30" cy="30" r="20"/>
<path d="M30,50.5C18.696,50.5,9.5,41.304,9.5,30S18.696,9.5,30,9.5S50.5,18.696,50.5,30S41.304,50.5,30,50.5z M30,10.5
	c-10.752,0-19.5,8.748-19.5,19.5S19.248,49.5,30,49.5S49.5,40.752,49.5,30S40.752,10.5,30,10.5z"/>
<path d="M34.095,37.002v-6.425h-8.189v6.425h-1.742V22.998h1.742v6.025h8.189v-6.025h1.742v14.004H34.095z"/>
</svg>
