<?xml version="1.0" encoding="utf-8"?>
<!-- Generator: Adobe Illustrator 16.0.0, SVG Export Plug-In . SVG Version: 6.00 Build 0)  -->
<!DOCTYPE svg PUBLIC "-//W3C//DTD SVG 1.1//EN" "http://www.w3.org/Graphics/SVG/1.1/DTD/svg11.dtd">
<svg version="1.1" id="Layer_1" xmlns="http://www.w3.org/2000/svg" xmlns:xlink="http://www.w3.org/1999/xlink" x="0px" y="0px"
	 width="302px" height="40px" viewBox="0 0 302 40" enable-background="new 0 0 302 40" xml:space="preserve">
<g>
	<path fill="#FFFFFF" d="M12.242,4.807v20.995h0.001l0,0h-0.004c0.001,0.022,0.003,0.045,0.003,0.069
		c0,1.22-0.988,2.209-2.209,2.209c-1.22,0-2.21-0.989-2.21-2.209c0-0.024,0.002-0.047,0.003-0.069H0.641
		c0,5.187,4.205,9.392,9.392,9.392c5.188,0,9.392-4.205,9.392-9.392V4.807H12.242z"/>
	<polygon fill="#FFFFFF" points="26.606,4.807 33.789,4.807 26.606,20 33.789,35.193 26.606,35.193 	"/>
	<path fill="#FFFFFF" d="M43.734,16.409c-1.221,0-2.209-0.99-2.209-2.209c0-1.221,0.988-2.21,2.209-2.21s2.21,0.989,2.21,2.21h7.183
		c0-5.188-4.205-9.394-9.393-9.394c-1.046,0-2.054,0.175-2.993,0.49l-5.786,12.238c1.346,3.54,4.768,6.056,8.779,6.056l0,0
		c1.221,0,2.21,0.988,2.21,2.211c0,1.22-0.989,2.21-2.21,2.21s-2.209-0.99-2.209-2.21l0,0h-4.994l4.21,8.901
		c0.939,0.317,1.947,0.49,2.993,0.49c5.188,0,9.393-4.205,9.393-9.392C53.126,20.613,48.921,16.409,43.734,16.409z"/>
</g>
<path fill="#FFFFFF" d="M63.583,17.756l0.704-1.009c0.448,0.561,1.073,1.057,2.001,1.057c1.313,0,2.146-0.912,2.146-2.241V8.119
	h1.328v7.459c0,2.306-1.488,3.41-3.394,3.41C65.248,18.988,64.319,18.62,63.583,17.756z"/>
<path fill="#FFFFFF" d="M78.706,18.796l-4.05-4.802l-1.072,1.216v3.586h-1.329V8.119h1.329v5.507l4.722-5.507h1.665l-4.45,5.059
	l4.851,5.618H78.706z"/>
<path fill="#FFFFFF" d="M81.231,17.291l0.8-1.024c0.688,0.801,1.841,1.537,3.346,1.537c1.905,0,2.513-1.024,2.513-1.857
	c0-2.753-6.322-1.216-6.322-5.025c0-1.761,1.568-2.978,3.682-2.978c1.616,0,2.881,0.561,3.777,1.505l-0.8,0.977
	c-0.801-0.896-1.921-1.281-3.09-1.281c-1.265,0-2.192,0.688-2.192,1.697c0,2.4,6.322,1.024,6.322,5.01
	c0,1.537-1.057,3.138-3.938,3.138C83.488,18.988,82.111,18.284,81.231,17.291z"/>
<path fill="#FFFFFF" d="M95.39,18.796V8.119h6.995v1.185h-5.666v3.441h5.554v1.185h-5.554v3.682h5.666v1.185H95.39z"/>
<path fill="#FFFFFF" d="M112.049,18.796l-6.227-8.516v8.516h-1.329V8.119h1.361l6.146,8.34v-8.34h1.328v10.677H112.049z"/>
<path fill="#FFFFFF" d="M115.39,13.466c0-3.329,2.449-5.522,5.49-5.522c1.904,0,3.217,0.832,4.146,1.985l-1.057,0.672
	c-0.672-0.864-1.809-1.473-3.089-1.473c-2.337,0-4.113,1.776-4.113,4.338c0,2.529,1.776,4.338,4.113,4.338
	c1.28,0,2.337-0.608,2.881-1.152V14.49h-3.682v-1.185h4.994v3.842c-0.992,1.12-2.449,1.856-4.193,1.856
	C117.839,19.004,115.39,16.779,115.39,13.466z"/>
<path fill="#FFFFFF" d="M127.23,18.796V8.119h1.329v10.677H127.23z"/>
<path fill="#FFFFFF" d="M138.61,18.796l-6.227-8.516v8.516h-1.329V8.119h1.361l6.146,8.34v-8.34h1.328v10.677H138.61z"/>
<path fill="#FFFFFF" d="M142.382,18.796V8.119h6.995v1.185h-5.666v3.441h5.554v1.185h-5.554v3.682h5.666v1.185H142.382z"/>
<path fill="#FFFFFF" d="M151.486,18.796V8.119h6.995v1.185h-5.666v3.441h5.555v1.185h-5.555v3.682h5.666v1.185H151.486z"/>
<path fill="#FFFFFF" d="M166.768,18.796l-2.705-4.242h-2.145v4.242h-1.328V8.119h4.289c1.953,0,3.361,1.249,3.361,3.218
	c0,1.921-1.328,2.978-2.785,3.105l2.883,4.354H166.768z M166.865,11.337c0-1.217-0.881-2.033-2.146-2.033h-2.801v4.082h2.801
	C165.984,13.386,166.865,12.537,166.865,11.337z"/>
<path fill="#FFFFFF" d="M170.334,18.796V8.119h1.328v10.677H170.334z"/>
<path fill="#FFFFFF" d="M181.713,18.796l-6.227-8.516v8.516h-1.328V8.119h1.361l6.146,8.34v-8.34h1.328v10.677H181.713z"/>
<path fill="#FFFFFF" d="M185.055,13.466c0-3.329,2.449-5.522,5.49-5.522c1.904,0,3.217,0.832,4.145,1.985l-1.057,0.672
	c-0.672-0.864-1.809-1.473-3.088-1.473c-2.338,0-4.113,1.776-4.113,4.338c0,2.529,1.775,4.338,4.113,4.338
	c1.279,0,2.336-0.608,2.881-1.152V14.49h-3.682v-1.185h4.994v3.842c-0.992,1.12-2.449,1.856-4.193,1.856
	C187.504,19.004,185.055,16.779,185.055,13.466z"/>
<path fill="#FFFFFF" d="M202.75,21.981c-1.439-1.985-2.256-4.498-2.256-7.075s0.816-5.09,2.256-7.075l0.736,0.545
	c-1.039,2.032-1.68,3.857-1.68,6.53c0,2.657,0.641,4.498,1.68,6.515L202.75,21.981z"/>
<path fill="#FFFFFF" d="M214.129,18.796V9.816l-3.617,8.979h-0.543l-3.635-8.979v8.979h-1.328V8.119h1.904l3.33,8.228l3.313-8.228
	h1.906v10.677H214.129z"/>
<path fill="#FFFFFF" d="M216.975,21.421c1.039-2.017,1.68-3.857,1.68-6.515c0-2.673-0.641-4.498-1.68-6.53l0.736-0.545
	c1.439,1.985,2.256,4.498,2.256,7.075s-0.816,5.09-2.256,7.075L216.975,21.421z"/>
<path fill="#FFFFFF" d="M225.422,17.291l0.799-1.024c0.689,0.801,1.842,1.537,3.346,1.537c1.904,0,2.514-1.024,2.514-1.857
	c0-2.753-6.322-1.216-6.322-5.025c0-1.761,1.568-2.978,3.682-2.978c1.615,0,2.881,0.561,3.777,1.505l-0.801,0.977
	c-0.801-0.896-1.92-1.281-3.09-1.281c-1.264,0-2.191,0.688-2.191,1.697c0,2.4,6.322,1.024,6.322,5.01
	c0,1.537-1.057,3.138-3.938,3.138C227.678,18.988,226.301,18.284,225.422,17.291z"/>
<path fill="#FFFFFF" d="M235.438,18.796V8.119h3.65c3.328,0,5.473,2.321,5.473,5.347c0,3.041-2.145,5.33-5.473,5.33H235.438z
	 M243.186,13.466c0-2.305-1.457-4.162-4.098-4.162h-2.322v8.308h2.322C241.68,17.611,243.186,15.755,243.186,13.466z"/>
<path fill="#FFFFFF" d="M254.193,18.796l-6.227-8.516v8.516h-1.33V8.119h1.361l6.146,8.34v-8.34h1.328v10.677H254.193z"/>
<path fill="#FFFFFF" d="M257.678,18.075c0-0.479,0.4-0.88,0.881-0.88s0.879,0.4,0.879,0.88c0,0.48-0.398,0.881-0.879,0.881
	S257.678,18.556,257.678,18.075z"/>
<path fill="#FFFFFF" d="M265.805,18.796V8.119h4.754c1.857,0,2.994,1.121,2.994,2.722c0,1.345-0.896,2.241-1.873,2.449
	c1.137,0.176,2.08,1.344,2.08,2.625c0,1.712-1.137,2.881-3.09,2.881H265.805z M272.176,11.033c0-0.961-0.641-1.729-1.842-1.729
	h-3.201v3.441h3.201C271.535,12.745,272.176,12.009,272.176,11.033z M272.383,15.771c0-0.977-0.672-1.841-1.969-1.841h-3.281v3.682
	h3.281C271.646,17.611,272.383,16.907,272.383,15.771z"/>
<path fill="#FFFFFF" d="M283.439,18.796v-4.898h-6.242v4.898h-1.33V8.119h1.33v4.595h6.242V8.119h1.328v10.677H283.439z"/>
<path fill="#FFFFFF" d="M287.26,18.796V8.119h3.65c3.328,0,5.473,2.321,5.473,5.347c0,3.041-2.145,5.33-5.473,5.33H287.26z
	 M295.008,13.466c0-2.305-1.457-4.162-4.098-4.162h-2.322v8.308h2.322C293.502,17.611,295.008,15.755,295.008,13.466z"/>
<path fill="#FFFFFF" d="M297.74,18.075c0-0.479,0.4-0.88,0.881-0.88s0.879,0.4,0.879,0.88c0,0.48-0.398,0.881-0.879,0.881
	S297.74,18.556,297.74,18.075z"/>
<path fill="#FFFFFF" d="M62.829,31.086L63.16,30.7c0.386,0.439,1.013,0.869,1.872,0.869c1.219,0,1.567-0.681,1.567-1.191
	c0-1.755-3.582-0.842-3.582-2.929c0-0.977,0.877-1.595,1.961-1.595c0.887,0,1.567,0.313,2.024,0.843l-0.341,0.376
	c-0.43-0.52-1.038-0.753-1.71-0.753c-0.798,0-1.397,0.457-1.397,1.103c0,1.531,3.583,0.689,3.583,2.92
	c0,0.77-0.511,1.692-2.123,1.692C64.029,32.035,63.286,31.632,62.829,31.086z"/>
<path fill="#FFFFFF" d="M68.361,29.635v-3.682h0.52v3.673c0,1.209,0.636,1.943,1.81,1.943c1.173,0,1.81-0.734,1.81-1.943v-3.673
	h0.52v3.682c0,1.478-0.788,2.4-2.329,2.4C69.159,32.035,68.361,31.104,68.361,29.635z"/>
<path fill="#FFFFFF" d="M78.004,31.928l-1.675-2.472h-1.316v2.472h-0.511v-5.975h2.23c1.03,0,1.818,0.654,1.818,1.747
	c0,1.084-0.762,1.684-1.657,1.72l1.729,2.508H78.004z M78.014,27.7c0-0.753-0.529-1.281-1.326-1.281h-1.675v2.571h1.675
	C77.485,28.99,78.014,28.452,78.014,27.7z"/>
<path fill="#FFFFFF" d="M79.82,31.928v-5.975h3.789v0.466h-3.278v2.213h3.216v0.466h-3.216v2.83H79.82z"/>
<path fill="#FFFFFF" d="M88.703,31.928l-0.591-1.469H84.95l-0.591,1.469h-0.591l2.445-5.975h0.636l2.445,5.975H88.703z M86.536,26.5
	l-1.415,3.493h2.821L86.536,26.5z"/>
<path fill="#FFFFFF" d="M89.595,28.945c0-1.836,1.335-3.091,3.027-3.091c0.949,0,1.675,0.422,2.177,1.058l-0.43,0.277
	c-0.377-0.52-1.03-0.869-1.747-0.869c-1.397,0-2.49,1.066-2.49,2.625c0,1.54,1.093,2.624,2.49,2.624c0.717,0,1.37-0.35,1.747-0.869
	l0.438,0.27c-0.537,0.653-1.236,1.065-2.186,1.065C90.93,32.035,89.595,30.781,89.595,28.945z"/>
<path fill="#FFFFFF" d="M95.826,31.928v-5.975h3.789v0.466h-3.278v2.213h3.216v0.466h-3.216v2.364h3.278v0.466H95.826z"/>
<path fill="#FFFFFF" d="M104.716,31.928v-5.509h-1.952v-0.466h4.425v0.466h-1.953v5.509H104.716z"/>
<path fill="#FFFFFF" d="M111.745,31.928l-1.675-2.472h-1.316v2.472h-0.511v-5.975h2.23c1.03,0,1.818,0.654,1.818,1.747
	c0,1.084-0.762,1.684-1.657,1.72l1.729,2.508H111.745z M111.754,27.7c0-0.753-0.529-1.281-1.326-1.281h-1.675v2.571h1.675
	C111.225,28.99,111.754,28.452,111.754,27.7z"/>
<path fill="#FFFFFF" d="M113.56,31.928v-5.975h3.789v0.466h-3.278v2.213h3.216v0.466h-3.216v2.364h3.278v0.466H113.56z"/>
<path fill="#FFFFFF" d="M122.935,31.928l-0.591-1.469h-3.162l-0.591,1.469H118l2.445-5.975h0.636l2.445,5.975H122.935z
	 M120.768,26.5l-1.415,3.493h2.821L120.768,26.5z"/>
<path fill="#FFFFFF" d="M125.306,31.928v-5.509h-1.952v-0.466h4.425v0.466h-1.953v5.509H125.306z"/>
<path fill="#FFFFFF" d="M133.903,31.928v-5.329l-2.177,5.329h-0.197l-2.186-5.329v5.329h-0.511v-5.975h0.762l2.033,4.972
	l2.024-4.972h0.771v5.975H133.903z"/>
<path fill="#FFFFFF" d="M135.905,31.928v-5.975h3.789v0.466h-3.278v2.213h3.216v0.466h-3.216v2.364h3.278v0.466H135.905z"/>
<path fill="#FFFFFF" d="M145.226,31.928l-3.762-5.132v5.132h-0.511v-5.975h0.52l3.744,5.061v-5.061h0.511v5.975H145.226z"/>
<path fill="#FFFFFF" d="M148.734,31.928v-5.509h-1.952v-0.466h4.425v0.466h-1.953v5.509H148.734z"/>
<path fill="#FFFFFF" d="M156.102,31.928v-5.509h-1.951v-0.466h4.424v0.466h-1.953v5.509H156.102z"/>
<path fill="#FFFFFF" d="M159.629,31.928v-5.975h3.789v0.466h-3.279v2.213h3.217v0.466h-3.217v2.364h3.279v0.466H159.629z"/>
<path fill="#FFFFFF" d="M164.453,28.945c0-1.836,1.336-3.091,3.027-3.091c0.949,0,1.676,0.422,2.178,1.058l-0.43,0.277
	c-0.377-0.52-1.031-0.869-1.748-0.869c-1.396,0-2.49,1.066-2.49,2.625c0,1.54,1.094,2.624,2.49,2.624
	c0.717,0,1.371-0.35,1.748-0.869l0.438,0.27c-0.537,0.653-1.236,1.065-2.186,1.065C165.789,32.035,164.453,30.781,164.453,28.945z"
	/>
<path fill="#FFFFFF" d="M174.984,31.928v-2.839h-3.789v2.839h-0.512v-5.975h0.512v2.67h3.789v-2.67h0.51v5.975H174.984z"/>
<path fill="#FFFFFF" d="M181.25,31.928l-3.762-5.132v5.132h-0.512v-5.975h0.52l3.744,5.061v-5.061h0.512v5.975H181.25z"/>
<path fill="#FFFFFF" d="M183.012,28.945c0-1.747,1.146-3.091,2.902-3.091c1.746,0,2.9,1.344,2.9,3.091c0,1.746-1.154,3.09-2.9,3.09
	C184.158,32.035,183.012,30.691,183.012,28.945z M188.277,28.945c0-1.514-0.932-2.625-2.363-2.625c-1.443,0-2.365,1.111-2.365,2.625
	c0,1.505,0.922,2.624,2.365,2.624C187.346,31.569,188.277,30.45,188.277,28.945z"/>
<path fill="#FFFFFF" d="M189.949,31.928v-5.975h0.52v5.509h2.893v0.466H189.949z"/>
<path fill="#FFFFFF" d="M193.852,28.945c0-1.747,1.146-3.091,2.902-3.091c1.746,0,2.902,1.344,2.902,3.091
	c0,1.746-1.156,3.09-2.902,3.09C194.998,32.035,193.852,30.691,193.852,28.945z M199.119,28.945c0-1.514-0.932-2.625-2.365-2.625
	c-1.441,0-2.365,1.111-2.365,2.625c0,1.505,0.924,2.624,2.365,2.624C198.188,31.569,199.119,30.45,199.119,28.945z"/>
<path fill="#FFFFFF" d="M200.691,28.945c0-1.846,1.344-3.091,3.027-3.091c0.986,0,1.703,0.395,2.248,1.021l-0.385,0.277
	c-0.42-0.501-1.102-0.833-1.863-0.833c-1.396,0-2.49,1.066-2.49,2.625c0,1.54,1.094,2.633,2.49,2.633
	c0.797,0,1.434-0.394,1.756-0.726V29.42h-2.258v-0.457h2.77v2.087c-0.529,0.592-1.326,0.994-2.268,0.994
	C202.035,32.044,200.691,30.79,200.691,28.945z"/>
<path fill="#FFFFFF" d="M209,31.928v-2.553l-2.373-3.422h0.617l2.016,2.938l2.016-2.938h0.619l-2.375,3.422v2.553H209z"/>
<path fill="#FFFFFF" d="M214.756,31.086l0.33-0.386c0.387,0.439,1.014,0.869,1.873,0.869c1.219,0,1.566-0.681,1.566-1.191
	c0-1.755-3.582-0.842-3.582-2.929c0-0.977,0.877-1.595,1.961-1.595c0.887,0,1.568,0.313,2.025,0.843l-0.342,0.376
	c-0.43-0.52-1.037-0.753-1.709-0.753c-0.799,0-1.398,0.457-1.398,1.103c0,1.531,3.584,0.689,3.584,2.92
	c0,0.77-0.512,1.692-2.123,1.692C215.955,32.035,215.213,31.632,214.756,31.086z"/>
<path fill="#FFFFFF" d="M220.064,28.945c0-1.747,1.146-3.091,2.902-3.091c1.746,0,2.9,1.344,2.9,3.091c0,1.746-1.154,3.09-2.9,3.09
	C221.211,32.035,220.064,30.691,220.064,28.945z M225.33,28.945c0-1.514-0.932-2.625-2.363-2.625c-1.443,0-2.365,1.111-2.365,2.625
	c0,1.505,0.922,2.624,2.365,2.624C224.398,31.569,225.33,30.45,225.33,28.945z"/>
<path fill="#FFFFFF" d="M227.002,31.928v-5.975h0.52v5.509h2.893v0.466H227.002z"/>
<path fill="#FFFFFF" d="M231.201,29.635v-3.682h0.52v3.673c0,1.209,0.635,1.943,1.809,1.943s1.811-0.734,1.811-1.943v-3.673h0.52
	v3.682c0,1.478-0.789,2.4-2.33,2.4C231.998,32.035,231.201,31.104,231.201,29.635z"/>
<path fill="#FFFFFF" d="M238.865,31.928v-5.509h-1.953v-0.466h4.426v0.466h-1.953v5.509H238.865z"/>
<path fill="#FFFFFF" d="M242.391,31.928v-5.975h0.512v5.975H242.391z"/>
<path fill="#FFFFFF" d="M244.164,28.945c0-1.747,1.146-3.091,2.902-3.091c1.746,0,2.9,1.344,2.9,3.091c0,1.746-1.154,3.09-2.9,3.09
	C245.311,32.035,244.164,30.691,244.164,28.945z M249.43,28.945c0-1.514-0.932-2.625-2.363-2.625c-1.443,0-2.365,1.111-2.365,2.625
	c0,1.505,0.922,2.624,2.365,2.624C248.498,31.569,249.43,30.45,249.43,28.945z"/>
<path fill="#FFFFFF" d="M255.5,31.928l-3.762-5.132v5.132h-0.512v-5.975h0.52l3.744,5.061v-5.061h0.512v5.975H255.5z"/>
<path fill="#FFFFFF" d="M257.152,31.086l0.332-0.386c0.385,0.439,1.012,0.869,1.871,0.869c1.219,0,1.568-0.681,1.568-1.191
	c0-1.755-3.582-0.842-3.582-2.929c0-0.977,0.877-1.595,1.961-1.595c0.887,0,1.566,0.313,2.023,0.843l-0.34,0.376
	c-0.43-0.52-1.039-0.753-1.711-0.753c-0.797,0-1.396,0.457-1.396,1.103c0,1.531,3.582,0.689,3.582,2.92
	c0,0.77-0.51,1.692-2.123,1.692C258.354,32.035,257.609,31.632,257.152,31.086z"/>
<path fill="#FFFFFF" d="M265.004,31.928v-5.975h2.238c1.146,0,1.801,0.807,1.801,1.747s-0.662,1.746-1.801,1.746h-1.729v2.481
	H265.004z M268.506,27.7c0-0.753-0.52-1.281-1.316-1.281h-1.676v2.562h1.676C267.986,28.98,268.506,28.443,268.506,27.7z"/>
<path fill="#FFFFFF" d="M273.734,31.928l-0.59-1.469h-3.162l-0.592,1.469h-0.59l2.443-5.975h0.637l2.445,5.975H273.734z
	 M271.568,26.5l-1.416,3.493h2.822L271.568,26.5z"/>
<path fill="#FFFFFF" d="M278.703,31.928l-1.676-2.472h-1.316v2.472h-0.51v-5.975h2.23c1.029,0,1.818,0.654,1.818,1.747
	c0,1.084-0.762,1.684-1.658,1.72l1.729,2.508H278.703z M278.713,27.7c0-0.753-0.529-1.281-1.326-1.281h-1.676v2.571h1.676
	C278.184,28.99,278.713,28.452,278.713,27.7z"/>
<path fill="#FFFFFF" d="M281.951,31.928v-5.509h-1.953v-0.466h4.426v0.466h-1.953v5.509H281.951z"/>
<path fill="#FFFFFF" d="M289.75,31.928l-3.762-5.132v5.132h-0.51v-5.975h0.52l3.744,5.061v-5.061h0.51v5.975H289.75z"/>
<path fill="#FFFFFF" d="M291.734,31.928v-5.975h3.789v0.466h-3.277v2.213h3.215v0.466h-3.215v2.364h3.277v0.466H291.734z"/>
<path fill="#FFFFFF" d="M300.285,31.928l-1.674-2.472h-1.316v2.472h-0.512v-5.975h2.23c1.031,0,1.818,0.654,1.818,1.747
	c0,1.084-0.762,1.684-1.656,1.72l1.729,2.508H300.285z M300.295,27.7c0-0.753-0.529-1.281-1.326-1.281h-1.674v2.571h1.674
	C299.766,28.99,300.295,28.452,300.295,27.7z"/>
</svg>
