<?xml version="1.0" encoding="utf-8"?>
<!-- Generator: Adobe Illustrator 16.0.0, SVG Export Plug-In . SVG Version: 6.00 Build 0)  -->
<!DOCTYPE svg PUBLIC "-//W3C//DTD SVG 1.1//EN" "http://www.w3.org/Graphics/SVG/1.1/DTD/svg11.dtd">
<svg version="1.1" id="Layer_1" xmlns="http://www.w3.org/2000/svg" xmlns:xlink="http://www.w3.org/1999/xlink" x="0px" y="0px"
	 width="220px" height="150px" viewBox="0 0 220 150" enable-background="new 0 0 220 150" xml:space="preserve">
<path fill="#3A5DAE" d="M47.091,1.246v82.43h0.002l0,0h-0.016c0.003,0.092,0.014,0.18,0.014,0.273c0,4.791-3.885,8.676-8.677,8.676
	s-8.677-3.885-8.677-8.676c0-0.094,0.011-0.182,0.015-0.273H1.538c0,20.367,16.51,36.881,36.876,36.881S75.29,104.043,75.29,83.676
	V1.246H47.091z"/>
<polygon fill="#FF3A1E" points="103.489,1.246 131.689,1.246 103.489,60.898 131.689,120.557 103.489,120.557 "/>
<path d="M86.905,146.365v-1.229h0.975v1.229H86.905z"/>
<path fill="#FF3A1E" d="M93.355,138.082h0.787v4.455l4.812-4.455h1.066l-3.697,3.424l3.87,4.859h-1.02l-3.444-4.316l-1.587,1.475
	v2.842h-0.787V138.082z"/>
<path fill="#FF3A1E" d="M102.932,140.381h0.73v1.031h0.023c0.266-0.721,1.067-1.207,1.912-1.207c1.682,0,2.19,0.883,2.19,2.311v3.85
	h-0.729v-3.736c0-1.031-0.338-1.809-1.52-1.809c-1.16,0-1.854,0.881-1.878,2.053v3.492h-0.73V140.381z"/>
<path fill="#FF3A1E" d="M116.185,143.373c0,1.717-0.998,3.166-2.83,3.166c-1.83,0-2.828-1.449-2.828-3.166
	c0-1.719,0.998-3.168,2.828-3.168C115.187,140.205,116.185,141.654,116.185,143.373z M111.257,143.373
	c0,1.277,0.696,2.549,2.098,2.549s2.098-1.271,2.098-2.549c0-1.275-0.696-2.553-2.098-2.553S111.257,142.098,111.257,143.373z"/>
<path fill="#FF3A1E" d="M118.921,140.381h0.776l1.53,5.127h0.023l1.46-5.127h0.822l1.463,5.127h0.022l1.529-5.127h0.777
	l-1.924,5.984h-0.8l-1.474-5.035h-0.022l-1.462,5.035h-0.798L118.921,140.381z"/>
<path fill="#FF3A1E" d="M130.062,138.082h0.731v8.283h-0.731V138.082z"/>
<path fill="#FF3A1E" d="M134.262,143.57c0.011,1.066,0.568,2.352,1.97,2.352c1.067,0,1.646-0.623,1.879-1.529h0.728
	c-0.311,1.357-1.098,2.146-2.606,2.146c-1.899,0-2.699-1.463-2.699-3.166c0-1.578,0.8-3.168,2.699-3.168
	c1.926,0,2.69,1.682,2.633,3.365H134.262z M138.133,142.955c-0.036-1.104-0.719-2.135-1.901-2.135c-1.194,0-1.854,1.043-1.97,2.135
	H138.133z"/>
<path fill="#FF3A1E" d="M147.122,146.365h-0.673v-1.135h-0.023c-0.313,0.773-1.264,1.309-2.135,1.309
	c-1.818,0-2.688-1.475-2.688-3.166c0-1.695,0.869-3.168,2.688-3.168c0.894,0,1.764,0.453,2.077,1.311h0.023v-3.434h0.73V146.365z
	 M144.291,145.922c1.556,0,2.101-1.307,2.101-2.549s-0.545-2.553-2.101-2.553c-1.389,0-1.958,1.311-1.958,2.553
	S142.902,145.922,144.291,145.922z"/>
<path fill="#FF3A1E" d="M155.214,145.879c-0.01,1.783-0.695,2.875-2.654,2.875c-1.193,0-2.376-0.531-2.479-1.807h0.729
	c0.163,0.881,0.94,1.191,1.751,1.191c1.345,0,1.925-0.799,1.925-2.26v-0.814h-0.022c-0.336,0.732-1.045,1.232-1.902,1.232
	c-1.912,0-2.699-1.369-2.699-3.076c0-1.646,0.973-3.016,2.699-3.016c0.87,0,1.61,0.547,1.902,1.207h0.022v-1.031h0.729V145.879z
	 M154.484,143.301c0-1.17-0.544-2.48-1.925-2.48c-1.391,0-1.971,1.242-1.971,2.48c0,1.207,0.627,2.379,1.971,2.379
	C153.824,145.68,154.484,144.521,154.484,143.301z"/>
<path fill="#FF3A1E" d="M158.682,143.57c0.012,1.066,0.569,2.352,1.971,2.352c1.069,0,1.647-0.623,1.879-1.529h0.729
	c-0.313,1.357-1.1,2.146-2.608,2.146c-1.899,0-2.699-1.463-2.699-3.166c0-1.578,0.8-3.168,2.699-3.168
	c1.925,0,2.69,1.682,2.632,3.365H158.682z M162.554,142.955c-0.034-1.104-0.719-2.135-1.901-2.135c-1.194,0-1.853,1.043-1.971,2.135
	H162.554z"/>
<path d="M168.765,146.365v-1.229h0.974v1.229H168.765z"/>
<path fill="#3A5DAE" d="M176.005,143.641c-0.034,1.703,1.195,2.225,2.701,2.225c0.871,0,2.192-0.475,2.192-1.682
	c0-0.939-0.939-1.311-1.705-1.496l-1.843-0.453c-0.975-0.242-1.867-0.705-1.867-1.994c0-0.813,0.521-2.33,2.853-2.33
	c1.636,0,3.071,0.881,3.06,2.574h-0.788c-0.046-1.268-1.091-1.902-2.26-1.902c-1.079,0-2.075,0.418-2.075,1.646
	c0,0.777,0.579,1.102,1.252,1.266l2.018,0.498c1.169,0.314,2.144,0.822,2.144,2.182c0,0.57-0.231,2.365-3.164,2.365
	c-1.958,0-3.396-0.881-3.303-2.898H176.005z"/>
<path fill="#3A5DAE" d="M184.422,138.082h0.73v5.199l3.315-2.9h0.974l-2.55,2.215l2.725,3.77H188.7l-2.365-3.258l-1.183,0.982v2.275
	h-0.73V138.082z"/>
<path fill="#3A5DAE" d="M192.353,140.381h0.73v5.984h-0.73V140.381z"/>
<path fill="#3A5DAE" d="M195.82,138.082h0.733v8.283h-0.733V138.082z"/>
<path fill="#3A5DAE" d="M199.291,138.082h0.731v8.283h-0.731V138.082z"/>
<path fill="#3A5DAE" d="M206.678,142.131c-0.036-0.904-0.733-1.311-1.566-1.311c-0.647,0-1.413,0.254-1.413,1.031
	c0,0.65,0.741,0.883,1.239,1.01l0.975,0.223c0.834,0.125,1.704,0.613,1.704,1.66c0,1.295-1.287,1.795-2.4,1.795
	c-1.391,0-2.341-0.648-2.457-2.109h0.732c0.057,0.986,0.786,1.492,1.761,1.492c0.683,0,1.634-0.301,1.634-1.135
	c0-0.697-0.649-0.926-1.312-1.09l-0.936-0.211c-0.952-0.254-1.671-0.576-1.671-1.6c0-1.217,1.192-1.682,2.248-1.682
	c1.194,0,2.145,0.627,2.19,1.926H206.678z"/>
<path fill="#3A5DAE" d="M5.467,138.082h0.787v5.977c0,1.678-0.625,2.48-2.41,2.48c-1.901,0-2.32-1.393-2.307-2.83h0.788
	c0.024,0.707-0.047,2.156,1.589,2.156c1.227,0,1.553-0.625,1.553-2.146V138.082z"/>
<path fill="#3A5DAE" d="M13.85,146.365h-0.671v-1.078h-0.025c-0.382,0.801-1.169,1.252-2.063,1.252
	c-1.506,0-2.096-0.881-2.096-2.273v-3.885h0.729v3.895c0.036,1.08,0.44,1.646,1.602,1.646c1.251,0,1.796-1.178,1.796-2.398v-3.143
	h0.729V146.365z"/>
<path fill="#3A5DAE" d="M20.504,142.131c-0.032-0.904-0.729-1.311-1.563-1.311c-0.648,0-1.414,0.254-1.414,1.031
	c0,0.65,0.743,0.883,1.24,1.01l0.972,0.223c0.837,0.125,1.704,0.613,1.704,1.66c0,1.295-1.283,1.795-2.397,1.795
	c-1.39,0-2.34-0.648-2.457-2.109h0.731c0.057,0.986,0.787,1.492,1.76,1.492c0.687,0,1.636-0.301,1.636-1.135
	c0-0.697-0.648-0.926-1.311-1.09l-0.939-0.211c-0.95-0.254-1.667-0.576-1.667-1.6c0-1.217,1.193-1.682,2.247-1.682
	c1.194,0,2.145,0.627,2.191,1.926H20.504z"/>
<path fill="#3A5DAE" d="M25.956,140.381h1.217v0.613h-1.217v4.039c0,0.475,0.069,0.754,0.591,0.785c0.209,0,0.418-0.012,0.626-0.031
	v0.623c-0.22,0-0.429,0.023-0.648,0.023c-0.975,0-1.311-0.326-1.299-1.344v-4.096h-1.044v-0.613h1.044v-1.799h0.73V140.381z"/>
<path fill="#3A5DAE" d="M29.911,140.381h0.731v5.984h-0.731V140.381z"/>
<path fill="#3A5DAE" d="M34.399,140.994h-1.021v-0.613h1.021v-0.547c-0.01-1.031,0.278-1.752,1.449-1.752
	c0.209,0,0.384,0.014,0.614,0.049v0.625c-0.196-0.035-0.359-0.057-0.532-0.057c-0.813,0-0.789,0.51-0.8,1.16v0.521h1.182v0.613
	h-1.182v5.371h-0.731V140.994z"/>
<path fill="#3A5DAE" d="M47.189,142.258c-0.197-0.893-0.745-1.438-1.692-1.438c-1.403,0-2.099,1.277-2.099,2.553
	c0,1.277,0.695,2.549,2.099,2.549c0.904,0,1.646-0.703,1.738-1.703h0.73c-0.2,1.439-1.136,2.32-2.469,2.32
	c-1.832,0-2.83-1.449-2.83-3.166c0-1.719,0.998-3.168,2.83-3.168c1.274,0,2.26,0.684,2.422,2.053H47.189z"/>
<path fill="#3A5DAE" d="M50.959,142.213c0.068-1.404,1.056-2.008,2.422-2.008c1.057,0,2.202,0.326,2.202,1.926v3.18
	c0,0.277,0.14,0.439,0.429,0.439c0.081,0,0.176-0.023,0.232-0.045v0.613c-0.162,0.035-0.278,0.047-0.476,0.047
	c-0.741,0-0.858-0.418-0.858-1.043h-0.021c-0.51,0.777-1.031,1.217-2.18,1.217c-1.102,0-2.006-0.545-2.006-1.752
	c0-1.68,1.634-1.74,3.212-1.926c0.603-0.066,0.938-0.148,0.938-0.813c0-0.982-0.709-1.229-1.564-1.229
	c-0.904,0-1.577,0.416-1.601,1.393H50.959z M54.854,143.092H54.83c-0.093,0.178-0.417,0.234-0.614,0.27
	c-1.242,0.223-2.781,0.209-2.781,1.383c0,0.729,0.648,1.178,1.332,1.178c1.112,0,2.096-0.703,2.087-1.877V143.092z"/>
<path fill="#3A5DAE" d="M60.755,140.381h1.218v0.613h-1.218v4.039c0,0.475,0.07,0.754,0.592,0.785c0.207,0,0.417-0.012,0.626-0.031
	v0.623c-0.223,0-0.429,0.023-0.648,0.023c-0.976,0-1.312-0.326-1.299-1.344v-4.096h-1.043v-0.613h1.043v-1.799h0.729V140.381z"/>
<path fill="#3A5DAE" d="M64.71,140.381h0.732v5.984H64.71V140.381z"/>
<path fill="#3A5DAE" d="M73.836,143.373c0,1.717-0.997,3.166-2.829,3.166c-1.831,0-2.83-1.449-2.83-3.166
	c0-1.719,0.999-3.168,2.83-3.168C72.839,140.205,73.836,141.654,73.836,143.373z M68.909,143.373c0,1.277,0.695,2.549,2.098,2.549
	c1.403,0,2.098-1.271,2.098-2.549c0-1.275-0.694-2.553-2.098-2.553C69.604,140.82,68.909,142.098,68.909,143.373z"/>
<path fill="#3A5DAE" d="M76.574,140.381h0.729v1.031h0.021c0.268-0.721,1.067-1.207,1.914-1.207c1.682,0,2.192,0.883,2.192,2.311
	v3.85h-0.732v-3.736c0-1.031-0.336-1.809-1.519-1.809c-1.158,0-1.855,0.881-1.877,2.053v3.492h-0.729V140.381z"/>
<rect x="39.199" y="138.082" fill="#3A5DAE" width="0.732" height="1.172"/>
<rect x="39.199" y="140.381" fill="#3A5DAE" width="0.732" height="5.984"/>
<path d="M213.039,12.092c-2.99,0-5.423-2.434-5.423-5.422c0-2.99,2.433-5.424,5.423-5.424c2.989,0,5.424,2.434,5.424,5.424
	C218.463,9.658,216.028,12.092,213.039,12.092z M213.039,1.471c-2.865,0-5.198,2.332-5.198,5.199c0,2.865,2.333,5.197,5.198,5.197
	c2.866,0,5.198-2.332,5.198-5.197C218.237,3.803,215.905,1.471,213.039,1.471z"/>
<path d="M211.159,4.154h2.098c0.881,0,1.592,0.324,1.592,1.295c0,0.678-0.408,1.178-1.077,1.293v0.01
	c0.747,0.086,0.93,0.557,0.978,1.08c0.051,0.52-0.033,1.084,0.17,1.352h-0.344c-0.191-0.346-0.077-0.922-0.135-1.41
	c-0.063-0.486-0.303-0.881-1.184-0.881h-1.789v2.291h-0.309V4.154z M213.257,6.627c0.732,0,1.282-0.346,1.282-1.156
	c0-0.76-0.605-1.049-1.282-1.049h-1.789v2.205H213.257z"/>
<path fill="#3A5DAE" d="M170.738,46.801c-4.792,0-8.677-3.887-8.677-8.68c0-4.791,3.885-8.674,8.677-8.674
	c4.793,0,8.679,3.883,8.679,8.674h28.199c0-20.363-16.51-36.875-36.878-36.875c-4.111,0-8.063,0.684-11.757,1.926l-22.714,48.049
	C141.552,65.119,154.986,75,170.738,75v0.002c4.793,0,8.679,3.881,8.679,8.674c0,4.791-3.886,8.68-8.679,8.68
	c-4.792,0-8.677-3.889-8.677-8.68l0,0h-19.604l16.523,34.953c3.693,1.242,7.646,1.928,11.757,1.928
	c20.368,0,36.878-16.514,36.878-36.881C207.616,63.311,191.106,46.801,170.738,46.801z"/>
<rect x="192.353" y="138.082" fill="#3A5DAE" width="0.73" height="1.172"/>
<rect x="64.71" y="138.082" fill="#3A5DAE" width="0.732" height="1.172"/>
<rect x="29.911" y="138.082" fill="#3A5DAE" width="0.731" height="1.172"/>
</svg>
