<?xml version="1.0" encoding="utf-8"?>
<!-- Generator: Adobe Illustrator 23.0.2, SVG Export Plug-In . SVG Version: 6.00 Build 0)  -->
<svg version="1.1" id="Layer_1" xmlns="http://www.w3.org/2000/svg" xmlns:xlink="http://www.w3.org/1999/xlink" x="0px" y="0px"
	 viewBox="0 0 2560 1440" style="enable-background:new 0 0 2560 1440;" xml:space="preserve">
<style type="text/css">
	.st0{fill:none;stroke:#3FA9F5;stroke-miterlimit:10;stroke-dasharray:12,6;}
	.st1{fill:#FFFFFF;stroke:#000000;stroke-linecap:round;stroke-linejoin:round;stroke-miterlimit:10;}
	.st2{fill:none;stroke:#000000;stroke-linecap:round;stroke-linejoin:round;stroke-miterlimit:10;}
	.st3{fill:#FFFFFF;stroke:#000000;stroke-miterlimit:10;}
	.st4{clip-path:url(#SVGID_1_);fill:none;stroke:#000000;stroke-width:0.5;stroke-miterlimit:10;}
	.st5{clip-path:url(#SVGID_2_);fill:none;stroke:#000000;stroke-width:0.5;stroke-miterlimit:10;}
	.st6{clip-path:url(#SVGID_3_);fill:none;stroke:#000000;stroke-width:0.5;stroke-miterlimit:10;}
	.st7{fill:none;stroke:#000000;stroke-miterlimit:10;}
	.st8{fill:none;stroke:#000000;stroke-width:1.026;stroke-miterlimit:10;}
	.st9{fill:none;stroke:#000000;stroke-width:0.9129;stroke-miterlimit:10;}
	
		.st10{clip-path:url(#SVGID_4_);fill:none;stroke:#000000;stroke-width:0.4849;stroke-linecap:round;stroke-linejoin:round;stroke-miterlimit:10;}
	.st11{clip-path:url(#SVGID_5_);}
	.st12{clip-path:url(#SVGID_7_);}
	.st13{clip-path:url(#SVGID_8_);fill:none;stroke:#000000;stroke-linecap:round;stroke-linejoin:round;stroke-miterlimit:10;}
	.st14{clip-path:url(#SVGID_9_);}
	.st15{clip-path:url(#SVGID_10_);fill:none;stroke:#000000;stroke-linecap:round;stroke-linejoin:round;stroke-miterlimit:10;}
	.st16{clip-path:url(#SVGID_11_);}
	.st17{clip-path:url(#SVGID_12_);fill:none;stroke:#000000;stroke-linecap:round;stroke-linejoin:round;stroke-miterlimit:10;}
	.st18{clip-path:url(#SVGID_13_);}
	.st19{clip-path:url(#SVGID_14_);fill:none;stroke:#000000;stroke-linecap:round;stroke-linejoin:round;stroke-miterlimit:10;}
	.st20{clip-path:url(#SVGID_15_);}
	.st21{clip-path:url(#SVGID_16_);fill:none;stroke:#000000;stroke-linecap:round;stroke-linejoin:round;stroke-miterlimit:10;}
	.st22{clip-path:url(#SVGID_17_);}
	.st23{clip-path:url(#SVGID_18_);fill:none;stroke:#000000;stroke-linecap:round;stroke-linejoin:round;stroke-miterlimit:10;}
	.st24{fill:none;stroke:#000000;stroke-width:1.0121;stroke-miterlimit:10;}
	.st25{fill:none;stroke:#000000;stroke-miterlimit:10;stroke-dasharray:12,24;}
	.st26{fill:none;stroke:#3FA9F5;stroke-miterlimit:10;}
	.st27{fill:none;stroke:#3FA9F5;stroke-linecap:round;stroke-linejoin:round;stroke-miterlimit:10;}
	.st28{clip-path:url(#SVGID_19_);}
	.st29{clip-path:url(#SVGID_20_);fill:none;stroke:#000000;stroke-linecap:round;stroke-linejoin:round;stroke-miterlimit:10;}
	.st30{fill:none;stroke:#000000;stroke-width:0.7746;stroke-linecap:round;stroke-linejoin:round;stroke-miterlimit:10;}
	.st31{fill:#FFFFFF;stroke:#3FA9F5;stroke-miterlimit:10;}
</style>
<line class="st0" x1="885" y1="290" x2="985" y2="290"/>
<polygon class="st1" points="1474.5,540 1514.5,540 1514.5,599.5 1494.75,629.5 1474.5,599.5 "/>
<polyline class="st2" points="954.5,690 954.5,764.23 954.5,775.5 954.5,805.5 954.5,815 954.5,870 "/>
<g>
	<rect x="1439.89" y="629.74" class="st3" width="10.24" height="40"/>
	<g>
		<defs>
			<rect id="SVGID_41_" x="1439.63" y="630.24" width="10.24" height="40"/>
		</defs>
		<clipPath id="SVGID_1_">
			<use xlink:href="#SVGID_41_"  style="overflow:visible;"/>
		</clipPath>
		<polyline class="st4" points="1449.88,620.24 1434.51,650.24 1449.88,680.24 		"/>
		<line class="st4" x1="1455" y1="620.24" x2="1434.51" y2="660.24"/>
		<line class="st4" x1="1434.51" y1="670.24" x2="1455" y2="630.24"/>
		<line class="st4" x1="1434.51" y1="680.24" x2="1455" y2="640.24"/>
		<polyline class="st4" points="1439.63,620.24 1455,650.24 1439.63,680.24 		"/>
		<line class="st4" x1="1434.51" y1="620.24" x2="1455" y2="660.24"/>
		<line class="st4" x1="1434.51" y1="630.24" x2="1455" y2="670.24"/>
		<line class="st4" x1="1434.51" y1="640.24" x2="1455" y2="680.24"/>
	</g>
</g>
<g>
	<rect x="1129.89" y="959.5" class="st3" width="10.24" height="40"/>
	<g>
		<defs>
			<rect id="SVGID_43_" x="1129.63" y="960" width="10.24" height="40"/>
		</defs>
		<clipPath id="SVGID_2_">
			<use xlink:href="#SVGID_43_"  style="overflow:visible;"/>
		</clipPath>
		<polyline class="st5" points="1139.88,950 1124.51,980 1139.88,1010 		"/>
		<line class="st5" x1="1145" y1="950" x2="1124.51" y2="990"/>
		<line class="st5" x1="1124.51" y1="1000" x2="1145" y2="960"/>
		<line class="st5" x1="1124.51" y1="1010" x2="1145" y2="970"/>
		<polyline class="st5" points="1129.63,950 1145,980 1129.63,1010 		"/>
		<line class="st5" x1="1124.51" y1="950" x2="1145" y2="990"/>
		<line class="st5" x1="1124.51" y1="960" x2="1145" y2="1000"/>
		<line class="st5" x1="1124.51" y1="970" x2="1145" y2="1010"/>
	</g>
</g>
<g>
	<rect x="1375.5" y="330.04" class="st3" width="20" height="40"/>
	<g>
		<defs>
			<rect id="SVGID_45_" x="1375" y="330.54" width="20" height="40"/>
		</defs>
		<clipPath id="SVGID_3_">
			<use xlink:href="#SVGID_45_"  style="overflow:visible;"/>
		</clipPath>
		<polyline class="st6" points="1395,320.54 1365,350.54 1395,380.54 		"/>
		<line class="st6" x1="1405" y1="320.54" x2="1365" y2="360.54"/>
		<line class="st6" x1="1365" y1="370.54" x2="1405" y2="330.54"/>
		<line class="st6" x1="1365" y1="380.54" x2="1405" y2="340.54"/>
		<polyline class="st6" points="1375,320.54 1405,350.54 1375,380.54 		"/>
		<line class="st6" x1="1365" y1="320.54" x2="1405" y2="360.54"/>
		<line class="st6" x1="1365" y1="330.54" x2="1405" y2="370.54"/>
		<line class="st6" x1="1365" y1="340.54" x2="1405" y2="380.54"/>
	</g>
</g>
<path class="st7" d="M1184.5,938"/>
<polyline class="st8" points="985,690 984.5,780 995,779.93 999.5,780 1031.5,780 1045,780 "/>
<polyline class="st7" points="1335,440 1335,390 1385,390 1385,370 "/>
<line class="st2" x1="1265" y1="1010" x2="1265" y2="1090"/>
<polyline class="st2" points="985,1010 985,1090 1225,1090 "/>
<path class="st3" d="M1005,1030h-40v20h40c5.52,0,10-4.48,10-10C1015,1034.48,1010.52,1030,1005,1030z"/>
<polyline class="st7" points="1185,580 1135,580 1135,870 1205,870 1205,910 "/>
<polyline class="st7" points="1235,910 1235,870 1335,870 1335,910 "/>
<polyline class="st9" points="1385,690 1385,760 1285,760 1285,870 "/>
<polyline class="st7" points="1285,640 1285,690 1445,690 1445,670 "/>
<path class="st3" d="M1355,670v40h20v-40c0-5.52-4.48-10-10-10S1355,664.48,1355,670z"/>
<line class="st3" x1="1494.75" y1="630" x2="1495" y2="740"/>
<polyline class="st7" points="1385,490 1495,490 1495,540 "/>
<g>
	<rect x="1590.61" y="530" class="st1" width="9.76" height="39.51"/>
	<g>
		<defs>
			<rect id="SVGID_47_" x="1590.37" y="530.49" width="9.76" height="39.51"/>
		</defs>
		<clipPath id="SVGID_4_">
			<use xlink:href="#SVGID_47_"  style="overflow:visible;"/>
		</clipPath>
		<polyline class="st10" points="1600.12,520.62 1585.49,550.25 1600.12,579.88 		"/>
		<line class="st10" x1="1605" y1="520.62" x2="1585.49" y2="560.12"/>
		<line class="st10" x1="1585.49" y1="570" x2="1605" y2="530.49"/>
		<line class="st10" x1="1585.49" y1="579.88" x2="1605" y2="540.37"/>
		<polyline class="st10" points="1590.37,520.62 1605,550.25 1590.37,579.88 		"/>
		<line class="st10" x1="1585.49" y1="520.62" x2="1605" y2="560.12"/>
		<line class="st10" x1="1585.49" y1="530.49" x2="1605" y2="570"/>
		<line class="st10" x1="1585.49" y1="540.37" x2="1605" y2="579.88"/>
	</g>
</g>
<polyline class="st7" points="1515,590 1595,590 1595,570 "/>
<line class="st3" x1="1555" y1="500" x2="1625" y2="500"/>
<line class="st3" x1="1555" y1="420" x2="1625" y2="420"/>
<polyline class="st7" points="985,290 1555,290 1555,550 1514.5,550 "/>
<line class="st7" x1="985" y1="290" x2="985" y2="550"/>
<g>
	<g>
		<defs>
			<rect id="SVGID_49_" x="1355" y="710" width="60" height="50"/>
		</defs>
		<clipPath id="SVGID_5_">
			<use xlink:href="#SVGID_49_"  style="overflow:visible;"/>
		</clipPath>
		<g class="st11">
			<defs>
				<rect id="SVGID_51_" x="1355" y="710" width="60" height="50"/>
			</defs>
			<clipPath id="SVGID_6_">
				<use xlink:href="#SVGID_51_"  style="overflow:visible;"/>
			</clipPath>
		</g>
	</g>
</g>
<g>
	<g>
		<defs>
			<rect id="SVGID_53_" x="1105" y="710" width="60" height="50"/>
		</defs>
		<clipPath id="SVGID_7_">
			<use xlink:href="#SVGID_53_"  style="overflow:visible;"/>
		</clipPath>
		<g class="st12">
			<defs>
				<rect id="SVGID_55_" x="1105" y="710" width="60" height="50"/>
			</defs>
			<clipPath id="SVGID_8_">
				<use xlink:href="#SVGID_55_"  style="overflow:visible;"/>
			</clipPath>
			<path class="st13" d="M1125.5,740c0.15-2.11,1.27-10.13,9.75-10.13c8.48,0,9.6,8.01,9.75,10.12"/>
		</g>
	</g>
</g>
<g>
	<g>
		<defs>
			<rect id="SVGID_57_" x="1205" y="1060" width="60" height="50"/>
		</defs>
		<clipPath id="SVGID_9_">
			<use xlink:href="#SVGID_57_"  style="overflow:visible;"/>
		</clipPath>
		<g class="st14">
			<defs>
				<rect id="SVGID_59_" x="1205" y="1060" width="60" height="50"/>
			</defs>
			<clipPath id="SVGID_10_">
				<use xlink:href="#SVGID_59_"  style="overflow:visible;"/>
			</clipPath>
			<path class="st15" d="M1225.5,1090c0.15-2.11,1.27-10.13,9.75-10.13c8.48,0,9.6,8.01,9.75,10.12"/>
		</g>
	</g>
</g>
<g>
	<g>
		<defs>
			<rect id="SVGID_61_" x="1315" y="1060" width="60" height="50"/>
		</defs>
		<clipPath id="SVGID_11_">
			<use xlink:href="#SVGID_61_"  style="overflow:visible;"/>
		</clipPath>
		<g class="st16">
			<defs>
				<rect id="SVGID_63_" x="1315" y="1060" width="60" height="50"/>
			</defs>
			<clipPath id="SVGID_12_">
				<use xlink:href="#SVGID_63_"  style="overflow:visible;"/>
			</clipPath>
			<path class="st17" d="M1335.5,1090c0.15-2.11,1.27-10.13,9.75-10.13c8.48,0,9.6,8.01,9.75,10.12"/>
		</g>
	</g>
</g>
<g>
	<g>
		<defs>
			<rect id="SVGID_65_" x="1355" y="710" width="60" height="50"/>
		</defs>
		<clipPath id="SVGID_13_">
			<use xlink:href="#SVGID_65_"  style="overflow:visible;"/>
		</clipPath>
		<g class="st18">
			<defs>
				<rect id="SVGID_67_" x="1355" y="710" width="60" height="50"/>
			</defs>
			<clipPath id="SVGID_14_">
				<use xlink:href="#SVGID_67_"  style="overflow:visible;"/>
			</clipPath>
			<path class="st19" d="M1375.5,740c0.15-2.11,1.27-10.13,9.75-10.13c8.48,0,9.6,8.01,9.75,10.12"/>
		</g>
	</g>
</g>
<g>
	<g>
		<defs>
			<rect id="SVGID_69_" x="1025" y="710" width="60" height="50"/>
		</defs>
		<clipPath id="SVGID_15_">
			<use xlink:href="#SVGID_69_"  style="overflow:visible;"/>
		</clipPath>
		<g class="st20">
			<defs>
				<rect id="SVGID_71_" x="1025" y="710" width="60" height="50"/>
			</defs>
			<clipPath id="SVGID_16_">
				<use xlink:href="#SVGID_71_"  style="overflow:visible;"/>
			</clipPath>
			<path class="st21" d="M1065,740c-0.15-2.11-1.27-10.12-9.75-10.12c-8.48,0-9.6,8.01-9.75,10.13"/>
		</g>
	</g>
</g>
<g>
	<g>
		<defs>
			<rect id="SVGID_73_" x="1055" y="710" width="60" height="50"/>
		</defs>
		<clipPath id="SVGID_17_">
			<use xlink:href="#SVGID_73_"  style="overflow:visible;"/>
		</clipPath>
		<g class="st22">
			<defs>
				<rect id="SVGID_75_" x="1055" y="710" width="60" height="50"/>
			</defs>
			<clipPath id="SVGID_18_">
				<use xlink:href="#SVGID_75_"  style="overflow:visible;"/>
			</clipPath>
			<path class="st23" d="M1095,740c-0.15-2.11-1.27-10.12-9.75-10.12c-8.48,0-9.6,8.01-9.75,10.13"/>
		</g>
	</g>
</g>
<line class="st7" x1="1095" y1="740" x2="1125" y2="740"/>
<line class="st7" x1="1145" y1="740" x2="1375" y2="740"/>
<polyline class="st7" points="1395,740 1655,740 1655,520 "/>
<line class="st7" x1="1065" y1="740" x2="1075" y2="740"/>
<polyline class="st7" points="1015,690 1015,740 1045,740 "/>
<polyline class="st7" points="1185,480 1085,480 1085,1090 "/>
<polyline class="st24" points="1225,440.49 1225,420 1055,420 1055,840 955,840 "/>
<line class="st25" x1="885" y1="290" x2="985" y2="290"/>
<polyline class="st26" points="1345,1010 1345,1140 885,1140 "/>
<line class="st26" x1="1235" y1="1010" x2="1235" y2="1140"/>
<line class="st2" x1="1245" y1="1090" x2="1335" y2="1090"/>
<polyline class="st2" points="1355,1090 1375,1090 1375,1010 "/>
<polyline class="st27" points="911.15,1140 911.15,670 935,670 "/>
<g>
	<g>
		<defs>
			<rect id="SVGID_77_" x="1025" y="750" width="60" height="50"/>
		</defs>
		<clipPath id="SVGID_19_">
			<use xlink:href="#SVGID_77_"  style="overflow:visible;"/>
		</clipPath>
		<g class="st28">
			<defs>
				<rect id="SVGID_79_" x="1025" y="750" width="60" height="50"/>
			</defs>
			<clipPath id="SVGID_20_">
				<use xlink:href="#SVGID_79_"  style="overflow:visible;"/>
			</clipPath>
			<path class="st29" d="M1045.5,780c0.15-2.11,1.27-10.13,9.75-10.13c8.48,0,9.6,8.01,9.75,10.12l20,0"/>
		</g>
	</g>
</g>
<line class="st30" x1="1135" y1="1090" x2="1135" y2="1000"/>
<rect x="1184.5" y="910" class="st3" width="200" height="100"/>
<line class="st7" x1="1275.5" y1="1010" x2="1275.5" y2="930"/>
<rect x="934.5" y="549.5" class="st1" width="100" height="140"/>
<rect x="935" y="870.5" class="st1" width="100" height="140"/>
<circle class="st1" cx="985" cy="915" r="15"/>
<circle class="st1" cx="1175" cy="810" r="10"/>
<circle class="st31" cx="885" cy="1140" r="10"/>
<circle class="st1" cx="1655" cy="810" r="10"/>
<rect x="1624.5" y="400" class="st1" width="60" height="120"/>
<polygon class="st1" points="1185,588.5 1236.5,640 1333.5,640 1385,588.5 1385,468.5 1356.5,440 1216.5,440 1185,468.5 "/>
<circle class="st1" cx="984" cy="599" r="15"/>
<circle class="st1" cx="1358.5" cy="939.5" r="9.5"/>
<line class="st1" x1="1185" y1="810" x2="1645" y2="810"/>
</svg>
